<svg width="186" height="182" viewBox="0 0 186 182" fill="none" xmlns="http://www.w3.org/2000/svg">
<g clip-path="url(#clip0_21_6403)">
<path d="M124.376 78.7012L122.412 83.2948L110.366 99.307C110.366 99.307 102.117 108.232 106.7 108.757C111.283 109.282 114.294 100.488 114.294 100.488L128.435 86.4448L130.006 80.0136L124.376 78.7012Z" fill="#9F616A"/>
<path d="M130.399 60.064L128.501 60.5966C128.501 60.5966 119.979 83.2904 120.765 86.0466C121.55 88.8027 125.085 92.2152 126.657 91.9527C128.228 91.6902 130.399 60.064 130.399 60.064Z" fill="#0059FC"/>
<path d="M156.919 176.689C156.919 176.689 156.086 180.875 158.591 179.2C161.096 177.524 162.402 174.284 162.402 174.284L156.919 176.689Z" fill="#2F2E41"/>
<path d="M127.257 82.2448C127.257 82.2448 100.677 176.218 110.104 178.974C119.532 181.73 133.411 178.712 133.28 176.874C133.149 175.037 130.792 138.681 130.792 138.681C130.792 138.681 144.54 186.98 161.562 175.693C178.583 164.406 174.786 162.306 173.215 161.518C171.644 160.731 147.945 123.325 148.076 116.369C148.206 109.413 147.814 87.6259 144.933 84.3447L127.257 82.2448Z" fill="#2F2E41"/>
<path d="M185.889 182H24.5745V181.385H186L185.889 182Z" fill="#3F3D56"/>
<path d="M144.139 48.8336C143.117 47.9064 142.479 46.6278 142.352 45.2514C142.226 43.875 142.62 42.5011 143.456 41.4022C143.346 41.5063 143.237 41.6143 143.134 41.7292C142.157 42.8138 141.649 44.2429 141.723 45.7024C141.797 47.1618 142.446 48.5322 143.527 49.5122C144.609 50.4923 146.034 51.0019 147.49 50.9289C148.946 50.8559 150.313 50.2064 151.292 49.1231C151.396 49.0083 151.492 48.8895 151.584 48.7686C150.577 49.7132 149.253 50.2442 147.874 50.2562C146.495 50.2682 145.162 49.7605 144.139 48.8336Z" fill="#2F2E41"/>
<path d="M143.624 50.1548C149.879 50.1548 154.95 45.0719 154.95 38.8019C154.95 32.5318 149.879 27.449 143.624 27.449C137.369 27.449 132.298 32.5318 132.298 38.8019C132.298 45.0719 137.369 50.1548 143.624 50.1548Z" fill="#2F2E41"/>
<path d="M113.116 178.58C113.116 178.58 110.104 181.599 113.116 181.599C116.127 181.599 119.008 179.63 119.008 179.63L113.116 178.58Z" fill="#2F2E41"/>
<path d="M136.422 45.8893C136.422 45.8893 138.386 54.0266 136.946 55.6016C135.506 57.1766 132.363 58.3578 132.363 58.3578L132.887 73.0575C132.887 73.0575 138.91 70.9576 139.172 70.6951C139.434 70.4326 144.802 61.9015 144.802 61.9015L150.04 56.9141C150.04 56.9141 142.052 53.1079 144.409 46.5455C146.766 39.9831 136.422 45.8893 136.422 45.8893Z" fill="#9F616A"/>
<path d="M147.988 43.1763C148.59 39.4557 146.069 35.9501 142.358 35.3463C138.646 34.7425 135.149 37.2692 134.546 40.9898C133.944 44.7104 136.465 48.216 140.176 48.8198C143.888 49.4236 147.385 46.8969 147.988 43.1763Z" fill="#9F616A"/>
<path d="M144.933 84.3447C144.933 84.3447 147.944 74.3699 149.385 73.0575C150.825 71.745 154.36 59.4077 154.36 59.4077C154.36 59.4077 152.134 56.389 150.301 56.389C148.468 56.389 146.766 57.0453 144.671 59.014C143.685 59.9411 141.885 60.9612 140.257 61.7811C139.679 62.077 139.049 62.2545 138.402 62.3033C137.755 62.3521 137.105 62.2712 136.489 62.0653C135.874 61.8594 135.305 61.5327 134.817 61.1041C134.329 60.6756 133.932 60.1539 133.647 59.5695C133.321 58.8762 133.214 58.2119 133.542 57.7015C133.542 57.7015 128.697 59.014 128.435 60.8515C128.173 62.6889 128.435 66.4951 128.042 67.2826C127.65 68.0701 126.471 69.2513 126.995 74.2387C127.519 79.2261 126.448 85.5328 126.448 85.5328C131.339 90.211 138.115 87.3233 144.933 84.3447Z" fill="#0059FC"/>
<path d="M141.202 39.9174C144.383 39.9174 146.963 38.1546 146.963 35.98C146.963 33.8054 144.383 32.0426 141.202 32.0426C138.02 32.0426 135.44 33.8054 135.44 35.98C135.44 38.1546 138.02 39.9174 141.202 39.9174Z" fill="#2F2E41"/>
<path d="M151.021 35.7175C154.059 35.7175 156.521 33.2495 156.521 30.2051C156.521 27.1607 154.059 24.6927 151.021 24.6927C147.984 24.6927 145.522 27.1607 145.522 30.2051C145.522 33.2495 147.984 35.7175 151.021 35.7175Z" fill="#2F2E41"/>
<path d="M154.95 34.1426C153.571 34.1424 152.242 33.6229 151.227 32.687C150.213 31.751 149.586 30.4671 149.471 29.0896C149.458 29.2412 149.45 29.3941 149.45 29.549C149.451 31.0104 150.03 32.4119 151.061 33.4455C152.091 34.479 153.489 35.0599 154.947 35.0605C156.405 35.0612 157.804 34.4814 158.836 33.4488C159.867 32.4161 160.448 31.0151 160.449 29.5537V29.549C160.449 29.3941 160.441 29.2412 160.428 29.0896C160.314 30.4671 159.687 31.751 158.672 32.687C157.657 33.6229 156.329 34.1424 154.95 34.1426Z" fill="#2F2E41"/>
<path d="M142.051 118.449H140.222L136.566 150.413L148.624 150.007L142.051 118.449Z" fill="#0059FC"/>
<path opacity="0.2" d="M142.051 118.449H140.222L136.566 150.413L148.624 150.007L142.051 118.449Z" fill="black"/>
<path d="M141.442 118.041L139.208 150.21L166.574 152.247L168.808 120.891L141.442 118.041Z" fill="#0059FC"/>
<path opacity="0.2" d="M150.655 121.3C150.881 121.3 151.063 121.117 151.063 120.891C151.063 120.666 150.881 120.483 150.655 120.483C150.43 120.483 150.248 120.666 150.248 120.891C150.248 121.117 150.43 121.3 150.655 121.3Z" fill="black"/>
<path opacity="0.2" d="M159.187 122.317C159.412 122.317 159.594 122.134 159.594 121.908C159.594 121.683 159.412 121.5 159.187 121.5C158.962 121.5 158.779 121.683 158.779 121.908C158.779 122.134 158.962 122.317 159.187 122.317Z" fill="black"/>
<path d="M159.288 121.911H159.086C159.086 121.824 159.229 113.236 154.309 112.444C153.339 112.289 152.547 112.509 151.954 113.098C149.922 115.117 150.762 120.821 150.771 120.877L150.571 120.908C150.535 120.669 149.709 115.044 151.813 112.954C152.454 112.315 153.308 112.075 154.342 112.241C159.434 113.058 159.291 121.824 159.288 121.911Z" fill="#3F3D56"/>
<path d="M154.753 77.5199L154.098 84.8698L155.408 106.919C155.408 106.919 158.419 118.075 153.837 117.813C149.254 117.55 150.956 106.132 150.956 106.132L148.861 80.5386L154.753 77.5199Z" fill="#9F616A"/>
<path d="M150.956 57.5703L154.361 59.4078C154.361 59.4078 158.943 90.63 156.325 93.6487C153.706 96.6673 148.338 97.8486 148.076 96.6673C147.814 95.4861 146.897 71.4825 146.897 71.4825L150.956 57.5703Z" fill="#0059FC"/>
<path d="M18.5349 0H14.7165C14.5822 0 14.4534 0.0534632 14.3585 0.14863C14.2635 0.243796 14.2102 0.372871 14.2102 0.507456V2.18748C14.2102 2.32207 14.2635 2.45115 14.3585 2.54631C14.4534 2.64148 14.5822 2.69494 14.7165 2.69494H15.3492V5.2122H17.9021V2.69494H18.5349C18.6692 2.69494 18.7979 2.64148 18.8929 2.54631C18.9878 2.45115 19.0411 2.32207 19.0412 2.18748V0.507456C19.0411 0.372873 18.9878 0.243802 18.8929 0.148636C18.7979 0.0534702 18.6692 4.48204e-06 18.5349 0Z" fill="#E6E6E6"/>
<path d="M22.3597 15.3756C20.0211 11.9455 18.8256 7.86153 18.9444 3.70869C18.9465 3.61287 18.9155 3.51926 18.8566 3.44377C18.7977 3.36828 18.7145 3.31554 18.6212 3.29453V2.5686H14.5885V3.28445H14.5329C14.4785 3.28452 14.4247 3.29532 14.3746 3.31623C14.3244 3.33714 14.2788 3.36775 14.2404 3.40631C14.2021 3.44488 14.1716 3.49065 14.1509 3.541C14.1302 3.59135 14.1196 3.6453 14.1196 3.69977C14.1196 3.70985 14.12 3.71991 14.1207 3.72996C14.4385 8.1693 13.3656 12.1504 10.9023 15.6733C10.7605 15.8758 10.6881 16.1188 10.6959 16.3661L11.1368 30.0389C11.1474 30.3439 11.2751 30.633 11.4933 30.8458C11.7114 31.0587 12.0031 31.1789 12.3075 31.1813H21.4291C21.737 31.1788 22.0318 31.0558 22.2506 30.8387C22.4694 30.6216 22.5949 30.3273 22.6005 30.0188L22.7705 16.7435C22.7755 16.2563 22.6322 15.7791 22.3597 15.3756Z" fill="#E6E6E6"/>
<path d="M20.9156 19.9172H12.976C12.8585 19.9172 12.7424 19.9427 12.6356 19.9919C12.5288 20.0411 12.4339 20.1129 12.3574 20.2023C12.2808 20.2917 12.2245 20.3967 12.1922 20.5099C12.16 20.6232 12.1525 20.7421 12.1704 20.8586L13.3701 28.6758H20.2595L21.7168 20.8849C21.7389 20.7669 21.7347 20.6455 21.7047 20.5293C21.6746 20.413 21.6194 20.3049 21.5429 20.2125C21.4664 20.1201 21.3705 20.0458 21.2621 19.9947C21.1537 19.9437 21.0354 19.9172 20.9156 19.9172Z" fill="white"/>
<path d="M61.0417 40.9587H57.2233C57.089 40.9587 56.9603 41.0122 56.8653 41.1074C56.7704 41.2025 56.717 41.3316 56.717 41.4662V43.1462C56.717 43.2808 56.7704 43.4099 56.8653 43.505C56.9603 43.6002 57.089 43.6537 57.2233 43.6537H57.8561V46.1709H60.409V43.6537H61.0417C61.176 43.6537 61.3048 43.6002 61.3997 43.505C61.4946 43.4099 61.548 43.2808 61.548 43.1462V41.4662C61.548 41.3316 61.4946 41.2025 61.3997 41.1074C61.3048 41.0122 61.176 40.9587 61.0417 40.9587Z" fill="#E6E6E6"/>
<path d="M64.8662 56.3343C62.5277 52.9042 61.3322 48.8203 61.451 44.6674C61.4531 44.5716 61.4221 44.478 61.3632 44.4025C61.3043 44.327 61.2211 44.2743 61.1278 44.2533V43.5273H57.095V44.2432H57.0395C56.9851 44.2433 56.9313 44.2541 56.8812 44.275C56.831 44.2959 56.7854 44.3265 56.747 44.3651C56.7087 44.4036 56.6782 44.4494 56.6575 44.4997C56.6368 44.5501 56.6261 44.604 56.6262 44.6585C56.6262 44.6686 56.6266 44.6786 56.6273 44.6887C56.9451 49.128 55.8722 53.1092 53.4089 56.6321C53.2671 56.8345 53.1947 57.0776 53.2025 57.3248L53.6434 70.9976C53.654 71.3026 53.7817 71.5917 53.9999 71.8046C54.218 72.0174 54.5097 72.1376 54.8141 72.14H63.9357C64.2436 72.1375 64.5384 72.0146 64.7572 71.7974C64.976 71.5803 65.1015 71.2861 65.1071 70.9775L65.2771 57.7023C65.2821 57.215 65.1388 56.7378 64.8662 56.3343Z" fill="#E6E6E6"/>
<path d="M63.4222 60.876H55.4826C55.3651 60.876 55.249 60.9015 55.1422 60.9507C55.0354 60.9999 54.9405 61.0716 54.864 61.161C54.7874 61.2505 54.7311 61.3554 54.6988 61.4687C54.6665 61.5819 54.6591 61.7009 54.677 61.8173L55.8767 69.6345H62.7661L64.2234 61.8436C64.2455 61.7256 64.2413 61.6042 64.2113 61.488C64.1812 61.3718 64.126 61.2636 64.0495 61.1713C63.973 61.0789 63.8771 61.0045 63.7687 60.9535C63.6603 60.9024 63.542 60.876 63.4222 60.876Z" fill="white"/>
<path d="M13.1666 98.8623H11.3554C11.2917 98.8623 11.2306 98.8877 11.1856 98.9328C11.1405 98.9779 11.1152 99.0392 11.1152 99.103V99.8999C11.1152 99.9638 11.1405 100.025 11.1856 100.07C11.2306 100.115 11.2917 100.141 11.3554 100.141H11.6555V101.335H12.8665V100.141H13.1666C13.2303 100.141 13.2914 100.115 13.3364 100.07C13.3815 100.025 13.4068 99.9638 13.4068 99.8999V99.103C13.4068 99.0392 13.3815 98.978 13.3364 98.9328C13.2914 98.8877 13.2303 98.8623 13.1666 98.8623Z" fill="#E6E6E6"/>
<path d="M14.9809 106.156C13.8717 104.529 13.3046 102.591 13.3609 100.622C13.3619 100.576 13.3472 100.532 13.3193 100.496C13.2913 100.46 13.2519 100.435 13.2076 100.425V100.081H11.2947V100.42H11.2683C11.2426 100.42 11.217 100.426 11.1932 100.435C11.1694 100.445 11.1478 100.46 11.1296 100.478C11.1114 100.496 11.097 100.518 11.0871 100.542C11.0773 100.566 11.0723 100.592 11.0723 100.617C11.0723 100.622 11.0725 100.627 11.0728 100.632C11.2494 102.642 10.7084 104.649 9.54617 106.297C9.47893 106.393 9.44457 106.508 9.44827 106.626L9.65744 113.111C9.66246 113.256 9.72304 113.393 9.82651 113.494C9.92998 113.595 10.0684 113.652 10.2128 113.653H14.5395C14.6856 113.652 14.8254 113.594 14.9292 113.491C15.033 113.388 15.0925 113.248 15.0952 113.102L15.1758 106.805C15.1782 106.574 15.1102 106.347 14.9809 106.156Z" fill="#E6E6E6"/>
<path d="M14.3582 108.54H10.2297V110.609H14.3582V108.54Z" fill="white"/>
<path d="M21.5983 98.8623H19.787C19.7233 98.8623 19.6622 98.8877 19.6172 98.9328C19.5722 98.9779 19.5469 99.0392 19.5469 99.103V99.8999C19.5469 99.9638 19.5722 100.025 19.6172 100.07C19.6622 100.115 19.7233 100.141 19.787 100.141H20.0872V101.335H21.2981V100.141H21.5983C21.662 100.141 21.723 100.115 21.7681 100.07C21.8131 100.025 21.8384 99.9638 21.8384 99.8999V99.103C21.8384 99.0714 21.8322 99.0401 21.8201 99.0109C21.8081 98.9817 21.7904 98.9552 21.7681 98.9328C21.7458 98.9105 21.7193 98.8927 21.6902 98.8806C21.661 98.8685 21.6298 98.8623 21.5983 98.8623Z" fill="#E6E6E6"/>
<path d="M23.4123 106.156C22.303 104.529 21.736 102.591 21.7923 100.622C21.7933 100.576 21.7786 100.532 21.7507 100.496C21.7227 100.46 21.6833 100.435 21.639 100.425V100.081H19.7261V100.42H19.6997C19.6739 100.42 19.6484 100.426 19.6246 100.435C19.6008 100.445 19.5792 100.46 19.561 100.478C19.5428 100.496 19.5284 100.518 19.5185 100.542C19.5087 100.566 19.5037 100.592 19.5037 100.617C19.5037 100.622 19.5039 100.627 19.5042 100.632C19.6808 102.642 19.1398 104.649 17.9776 106.297C17.9103 106.393 17.876 106.508 17.8797 106.626L18.0888 113.111C18.0939 113.256 18.1544 113.393 18.2579 113.494C18.3614 113.595 18.4998 113.652 18.6442 113.653H22.9709C23.117 113.652 23.2568 113.594 23.3606 113.491C23.4644 113.388 23.5239 113.248 23.5266 113.102L23.6072 106.805C23.6096 106.574 23.5416 106.347 23.4123 106.156Z" fill="#E6E6E6"/>
<path d="M22.7896 108.54H18.6611V110.609H22.7896V108.54Z" fill="white"/>
<path d="M30.0297 98.8623H28.2184C28.1547 98.8623 28.0936 98.8877 28.0486 98.9328C28.0036 98.9779 27.9783 99.0392 27.9783 99.103V99.8999C27.9783 99.9638 28.0036 100.025 28.0486 100.07C28.0936 100.115 28.1547 100.141 28.2184 100.141H28.5186V101.335H29.7295V100.141H30.0297C30.0934 100.141 30.1544 100.115 30.1995 100.07C30.2445 100.025 30.2698 99.9638 30.2698 99.8999V99.103C30.2698 99.0392 30.2445 98.9779 30.1995 98.9328C30.1544 98.8877 30.0934 98.8623 30.0297 98.8623Z" fill="#E6E6E6"/>
<path d="M31.844 106.156C30.7347 104.529 30.1676 102.591 30.224 100.622C30.225 100.576 30.2102 100.532 30.1823 100.496C30.1544 100.46 30.1149 100.435 30.0707 100.425V100.081H28.1577V100.42H28.1314C28.1056 100.42 28.0801 100.426 28.0563 100.435C28.0325 100.445 28.0108 100.46 27.9926 100.478C27.9744 100.496 27.96 100.518 27.9502 100.542C27.9403 100.566 27.9353 100.592 27.9353 100.617C27.9353 100.622 27.9355 100.627 27.9359 100.632C28.1124 102.642 27.5714 104.649 26.4092 106.297C26.342 106.393 26.3076 106.508 26.3113 106.626L26.5205 113.111C26.5255 113.256 26.5861 113.393 26.6895 113.494C26.793 113.595 26.9314 113.652 27.0758 113.653H31.4026C31.5486 113.652 31.6884 113.594 31.7922 113.491C31.896 113.388 31.9556 113.248 31.9582 113.102L32.0388 106.805C32.0412 106.574 31.9732 106.347 31.844 106.156Z" fill="#E6E6E6"/>
<path d="M31.2212 108.54H27.0928V110.609H31.2212V108.54Z" fill="white"/>
<path d="M54.4082 83.017H50.5897C50.4555 83.017 50.3267 83.0704 50.2318 83.1656C50.1368 83.2608 50.0835 83.3898 50.0835 83.5244V85.2045C50.0835 85.339 50.1368 85.4681 50.2318 85.5633C50.3267 85.6584 50.4555 85.7119 50.5897 85.7119H51.2225V88.2292H53.7754V85.7119H54.4082C54.4747 85.7119 54.5405 85.6988 54.6019 85.6733C54.6633 85.6478 54.7191 85.6104 54.7662 85.5633C54.8132 85.5162 54.8505 85.4602 54.8759 85.3987C54.9013 85.3371 54.9144 85.2711 54.9144 85.2045V83.5244C54.9144 83.3898 54.8611 83.2608 54.7662 83.1656C54.6712 83.0704 54.5425 83.017 54.4082 83.017Z" fill="#E6E6E6"/>
<path d="M58.2327 98.3927C55.8942 94.9626 54.6987 90.8786 54.8175 86.7258C54.8196 86.63 54.7886 86.5364 54.7297 86.4609C54.6707 86.3854 54.5876 86.3326 54.4943 86.3116V85.5857H50.4615V86.3015H50.4059C50.3516 86.3016 50.2978 86.3124 50.2476 86.3333C50.1974 86.3542 50.1519 86.3848 50.1135 86.4234C50.0751 86.462 50.0447 86.5077 50.024 86.5581C50.0032 86.6084 49.9926 86.6624 49.9927 86.7169C49.9927 86.7269 49.9931 86.737 49.9938 86.7471C50.3115 91.1864 49.2387 95.1675 46.7753 98.6904C46.6336 98.8929 46.5611 99.1359 46.5689 99.3832L47.0099 113.056C47.0205 113.361 47.1482 113.65 47.3663 113.863C47.5845 114.076 47.8762 114.196 48.1806 114.198H57.3022C57.6101 114.196 57.9048 114.073 58.1236 113.856C58.3424 113.639 58.468 113.344 58.4736 113.036L58.6435 99.7606C58.6485 99.2734 58.5052 98.7962 58.2327 98.3927Z" fill="#E6E6E6"/>
<path d="M56.7887 102.934H48.8491C48.7316 102.934 48.6154 102.96 48.5086 103.009C48.4018 103.058 48.3069 103.13 48.2304 103.219C48.1539 103.309 48.0976 103.414 48.0653 103.527C48.033 103.64 48.0255 103.759 48.0434 103.876L49.2432 111.693H56.1326L57.5899 103.902C57.6119 103.784 57.6078 103.663 57.5777 103.546C57.5477 103.43 57.4924 103.322 57.4159 103.23C57.3394 103.137 57.2436 103.063 57.1352 103.012C57.0268 102.961 56.9085 102.934 56.7887 102.934Z" fill="white"/>
<path d="M56.4928 32.9415H33.7312C35.3226 24.3172 34.9564 13.9031 33.7312 2.70349H56.4928C55.3002 13.9032 54.9438 24.3172 56.4928 32.9415Z" fill="#E6E6E6"/>
<path d="M45.2491 22.4956C48.2783 22.4956 50.7339 20.0342 50.7339 16.9978C50.7339 13.9615 48.2783 11.5 45.2491 11.5C42.22 11.5 39.7644 13.9615 39.7644 16.9978C39.7644 20.0342 42.22 22.4956 45.2491 22.4956Z" fill="white"/>
<path d="M35.6508 73.0755H12.8892C14.4805 64.4513 14.1144 54.0372 12.8892 42.8375H35.6508C34.4582 54.0372 34.1018 64.4513 35.6508 73.0755Z" fill="#E6E6E6"/>
<path d="M24.4071 62.6297C27.4362 62.6297 29.8918 60.1682 29.8918 57.1319C29.8918 54.0955 27.4362 51.634 24.4071 51.634C21.378 51.634 18.9224 54.0955 18.9224 57.1319C18.9224 60.1682 21.378 62.6297 24.4071 62.6297Z" fill="white"/>
<path d="M69.3818 34.8657H46.6201C48.2115 26.2414 47.8454 15.8273 46.6201 4.62769H69.3818C68.1891 15.8274 67.8327 26.2414 69.3818 34.8657Z" fill="#E6E6E6"/>
<path d="M58.1381 24.4198C61.1672 24.4198 63.6228 21.9584 63.6228 18.922C63.6228 15.8857 61.1672 13.4242 58.1381 13.4242C55.1089 13.4242 52.6533 15.8857 52.6533 18.922C52.6533 21.9584 55.1089 24.4198 58.1381 24.4198Z" fill="white"/>
<path d="M69.3818 33.4913H46.6201C48.2115 24.867 47.8454 14.4529 46.6201 3.2533H69.3818C68.1891 14.453 67.8327 24.867 69.3818 33.4913Z" fill="#E6E6E6"/>
<path d="M58.1381 23.0454C61.1672 23.0454 63.6228 20.584 63.6228 17.5476C63.6228 14.5113 61.1672 12.0498 58.1381 12.0498C55.1089 12.0498 52.6533 14.5113 52.6533 17.5476C52.6533 20.584 55.1089 23.0454 58.1381 23.0454Z" fill="white"/>
<path d="M69.3818 34.8657H46.6201C48.2115 26.2414 47.8454 15.8273 46.6201 4.62769H69.3818C68.1891 15.8274 67.8327 26.2414 69.3818 34.8657Z" fill="#E6E6E6"/>
<path d="M58.1381 24.4198C61.1672 24.4198 63.6228 21.9584 63.6228 18.922C63.6228 15.8857 61.1672 13.4242 58.1381 13.4242C55.1089 13.4242 52.6533 15.8857 52.6533 18.922C52.6533 21.9584 55.1089 24.4198 58.1381 24.4198Z" fill="white"/>
<path d="M74.5924 31.2921H0V39.5388H74.5924V31.2921Z" fill="#E6E6E6"/>
<path d="M74.5924 72.2509H0V80.4976H74.5924V72.2509Z" fill="#E6E6E6"/>
<path d="M74.5924 113.21H0V121.456H74.5924V113.21Z" fill="#E6E6E6"/>
</g>
<defs>
<clipPath id="clip0_21_6403">
<rect width="186" height="182" fill="white"/>
</clipPath>
</defs>
</svg>
