<svg width="248" height="162" viewBox="0 0 248 162" fill="none" xmlns="http://www.w3.org/2000/svg">
<g clip-path="url(#clip0_21_6457)">
<path d="M103.166 21.8223C104.034 20.0734 105.423 18.6216 106.272 16.8633C107.121 15.1051 107.287 12.7517 105.872 11.4058C104.671 10.2632 102.789 10.2471 101.353 9.41925C97.6927 7.3106 97.6967 0.612561 93.5141 0.0338142C91.4795 -0.247504 89.6386 1.27806 88.4089 2.92352C87.1792 4.56898 86.1992 6.48834 84.4937 7.63282C82.5629 8.92849 80.0669 8.98488 77.923 9.88491C73.8126 11.6103 71.6574 16.0473 69.8555 20.1251C68.6946 22.7518 67.5074 25.5851 68.0459 28.4061C66.875 29.1344 67.3968 31.0938 68.5654 31.8256C69.7341 32.5574 71.2014 32.5413 72.5432 32.8582C75.3626 33.5243 77.6726 35.7705 78.7675 38.4527C79.6208 40.5439 79.7952 42.84 79.96 45.0924L80.817 56.8186C80.944 58.5576 81.1107 60.4057 82.1694 61.7912C83.2281 63.1767 85.5201 63.7574 86.7098 62.4831C87.8469 61.2651 87.3347 59.3368 87.3118 57.6706C87.2889 56.0044 88.7949 53.9298 90.2152 54.8013L90.7161 53.6649C93.96 52.5034 96.8005 50.4318 98.8975 47.6979C100.995 44.964 102.259 41.6838 102.54 38.2497C102.902 32.7175 100.7 26.7866 103.166 21.8223Z" fill="#E6E6E6"/>
<path d="M106.481 56.897C106.794 56.6017 107.016 56.2229 107.122 55.8053C107.227 55.3878 107.21 54.9488 107.074 54.5403C106.938 54.1318 106.688 53.7708 106.353 53.4998C106.019 53.2288 105.613 53.0591 105.185 53.0109L105.191 53.1986C104.58 53.5551 103.884 53.7381 103.177 53.7278C102.472 53.7166 101.771 53.8277 101.105 54.0559C100.773 54.1764 100.486 54.3944 100.281 54.6812C100.076 54.968 99.9627 55.3101 99.9557 55.6626C99.9944 55.9329 100.098 56.1898 100.257 56.4115C100.416 56.6333 100.627 56.8133 100.87 56.9363C101.359 57.1773 101.885 57.3368 102.425 57.4085C103.819 57.6709 105.45 57.8692 106.481 56.897Z" fill="#E6E6E6"/>
<path d="M133.646 21.915C134.23 21.5183 134.726 21.0054 135.103 20.4083C135.285 20.1063 135.372 19.7562 135.351 19.404C135.331 19.0518 135.205 18.7139 134.989 18.4347C134.55 18.0536 133.985 17.8495 133.403 17.8619C131.824 17.744 130.238 17.9311 128.729 18.413L133.375 22.5287L133.646 21.915Z" fill="#E6E6E6"/>
<path d="M125.902 25.4832C126.528 26.1741 126.329 27.2458 126.15 28.161C125.972 29.0762 125.95 30.2198 126.739 30.7192C127.42 31.153 128.379 30.7988 128.877 30.1634C129.323 29.4861 129.594 28.7092 129.668 27.9017C129.913 26.7273 130.024 25.5289 129.998 24.3294C129.968 23.1212 129.542 21.9563 128.785 21.0143C128.247 20.4015 127.532 19.9723 126.738 19.7869C125.944 19.6015 125.112 19.6692 124.359 19.9805L125.079 19.9448C124.555 20.6164 124.159 21.3774 123.908 22.1907C123.788 22.5994 123.779 23.0327 123.883 23.4458C123.988 23.8588 124.2 24.2364 124.499 24.5395C124.928 24.9085 125.522 25.0637 125.902 25.4832Z" fill="#E6E6E6"/>
<path d="M161.203 13.8968L161.331 13.5027C160.795 13.812 160.383 14.2959 160.162 14.8732C159.941 15.4505 159.925 16.0862 160.117 16.6737C160.529 16.3492 160.846 15.9208 161.037 15.4327C161.228 14.9445 161.285 14.4144 161.203 13.8968Z" fill="#E6E6E6"/>
<path d="M154.248 19.5349C154.93 19.1491 155.511 18.609 155.946 17.958C156.381 17.307 156.657 16.5631 156.753 15.786C156.827 15.303 156.771 14.809 156.591 14.3547C156.498 14.129 156.352 13.9297 156.164 13.7745C155.976 13.6193 155.752 13.5129 155.513 13.4648L155.222 13.9234C154.804 13.5637 154.102 13.9336 153.927 14.4563C153.813 14.9988 153.86 15.5626 154.062 16.0788C154.264 16.5981 154.255 17.1756 154.037 17.6883C153.802 17.9899 153.538 18.2674 153.248 18.5168C153.107 18.6455 153.015 18.8194 152.987 19.0088C152.96 19.1981 152.999 19.3911 153.098 19.5547C153.371 19.8682 153.884 19.7369 154.248 19.5349Z" fill="#E6E6E6"/>
<path d="M151.284 16.9724C151.534 16.5237 151.652 16.0136 151.625 15.5007L150.987 15.3009C150.58 15.4659 150.218 15.7272 149.934 16.0624C149.848 16.149 149.781 16.2536 149.74 16.3687C149.699 16.4839 149.684 16.6067 149.696 16.7284C149.707 16.8502 149.746 16.9678 149.809 17.0728C149.871 17.1779 149.956 17.2678 150.058 17.3362C150.159 17.4045 150.274 17.4496 150.395 17.4681C150.516 17.4867 150.64 17.4783 150.757 17.4435C150.874 17.4088 150.982 17.3485 151.073 17.267C151.165 17.1856 151.237 17.085 151.285 16.9724H151.284Z" fill="#E6E6E6"/>
<path d="M182.427 13.7487C182.484 13.7967 182.541 13.846 182.599 13.8944C182.65 13.884 182.698 13.8636 182.75 13.8584L182.427 13.7487Z" fill="#E6E6E6"/>
<path d="M181.406 19.3406L183.16 17.921C183.471 17.7011 183.736 17.4226 183.94 17.1012C184.08 16.797 184.14 16.4624 184.115 16.1287C184.091 15.7949 183.982 15.4728 183.799 15.1924C183.475 14.6955 183.07 14.257 182.599 13.8955C182.083 14.0177 181.629 14.3251 181.324 14.7596C181.018 15.1941 180.883 15.7254 180.944 16.2529C181.049 16.924 181.47 17.6413 181.127 18.2271C180.993 18.4552 180.762 18.6104 180.608 18.8251C180.454 19.0398 180.404 19.3828 180.616 19.5398C180.851 19.7152 181.177 19.5253 181.406 19.3406Z" fill="#E6E6E6"/>
<path d="M182.685 22.2375C182.902 22.2493 183.12 22.2141 183.323 22.1343C183.525 22.0546 183.709 21.9321 183.86 21.7753C184.642 21.1346 185.326 20.3831 185.89 19.5446L181.943 20.7947L182.353 21.2746C181.988 21.5125 182.258 22.1554 182.685 22.2375Z" fill="#E6E6E6"/>
<path d="M186.374 24.9469C186.455 25.1521 186.6 25.3254 186.788 25.4403C186.976 25.5552 187.197 25.6053 187.416 25.5829C187.634 25.5539 187.844 25.4772 188.029 25.3585C188.215 25.2397 188.372 25.0816 188.49 24.8955C188.69 24.6004 188.808 24.2573 188.831 23.9015C188.854 23.5457 188.782 23.1903 188.621 22.8719C188.461 22.5535 188.218 22.2837 187.918 22.0906C187.619 21.8974 187.273 21.7878 186.917 21.7731L187.28 22.3283C187.373 23.276 186.085 24.0397 186.374 24.9469Z" fill="#E6E6E6"/>
<path d="M211.938 35.3266C212.294 35.5922 212.726 35.7352 213.17 35.7341C213.614 35.7331 214.046 35.588 214.401 35.3207C214.631 35.1242 214.818 34.8824 214.95 34.6104C215.082 34.3383 215.157 34.0419 215.169 33.7397C215.181 33.4374 215.131 33.1359 215.022 32.854C214.912 32.5721 214.745 32.3158 214.532 32.1013L213.86 32.4765C213.487 32.2369 213.036 32.1513 212.601 32.2376C212.166 32.3239 211.782 32.5755 211.529 32.9394C211.302 33.3209 211.219 33.7708 211.293 34.2083C211.368 34.6458 211.597 35.0423 211.938 35.3266Z" fill="#E6E6E6"/>
<path d="M219.754 36.2114C220.082 36.1163 220.379 35.9388 220.619 35.6959C220.858 35.4529 221.031 35.1526 221.12 34.8237L219.813 34.652C219.45 34.3775 219.027 34.1927 218.578 34.1126C218.353 34.0789 218.124 34.1235 217.928 34.239C217.732 34.3545 217.581 34.5338 217.502 34.7469C217.474 34.9281 217.493 35.1134 217.558 35.2852C217.622 35.457 217.729 35.6094 217.869 35.7281C218.115 35.9634 218.418 36.1314 218.748 36.2161C219.079 36.3008 219.425 36.2993 219.754 36.2117V36.2114Z" fill="#E6E6E6"/>
<path d="M214.358 38.8253C214.381 39.0379 214.464 39.2396 214.597 39.4068C214.731 39.574 214.909 39.6997 215.111 39.7693C215.332 39.8742 215.579 39.9102 215.821 39.8728C216.062 39.8354 216.287 39.7263 216.466 39.5596C216.545 39.4705 216.601 39.3639 216.631 39.2486C216.66 39.1333 216.662 39.0127 216.635 38.8967C216.609 38.7807 216.555 38.6727 216.478 38.5817C216.402 38.4906 216.304 38.4192 216.195 38.3733L215.215 38.1951C214.835 37.9975 214.352 38.3978 214.358 38.8253Z" fill="#E6E6E6"/>
<path d="M157.49 45.7155L156.731 45.0227C156.933 45.304 157.191 45.5399 157.49 45.7155Z" fill="#E6E6E6"/>
<path d="M151.696 41.637C152.162 43.8057 154.498 45.5717 156.619 44.9211L156.731 45.0233C156.056 44.0991 155.941 42.7307 156.099 41.5431C156.392 39.5058 157.193 37.5751 158.429 35.929C159.664 34.2829 161.294 32.9745 163.169 32.1245C163.682 31.9642 164.141 31.6651 164.496 31.2601C164.798 30.8183 164.685 30.0602 164.164 29.9353C163.882 29.9026 163.596 29.9683 163.356 30.1212L159.415 32.0607C157.424 33.0404 155.394 34.0482 153.831 35.6221C152.268 37.196 151.229 39.4682 151.696 41.637Z" fill="#E6E6E6"/>
<path d="M88.0815 116.213C84.4097 113.584 80.388 111.482 76.1335 109.969C73.5186 109.039 70.7089 108.33 67.9852 108.858C66.4911 109.167 65.091 109.824 63.8985 110.776C62.7061 111.728 61.7551 112.948 61.1226 114.336C60.5134 115.735 60.2268 117.252 60.2843 118.777C60.3418 120.301 60.7419 121.793 61.4548 123.142C62.7111 125.496 64.887 127.371 65.6144 129.939C66.1049 131.67 65.8725 133.513 65.6364 135.297L64.1896 146.232C63.7506 149.55 63.3221 153.004 64.3733 156.182C65.4245 159.36 68.4221 162.162 71.7526 161.825L72.4126 161.775C70.2094 160.277 69.5932 157.175 70.2478 154.593C70.9025 152.011 72.5687 149.822 74.194 147.711L88.6655 128.919C90.6174 126.385 92.6814 123.253 91.6398 120.228C91.0477 118.509 89.56 117.271 88.0815 116.213Z" fill="#E6E6E6"/>
<path d="M55.2072 100.378C54.7186 100.213 54.2027 100.581 53.9155 101.009C53.6833 101.469 53.4105 101.908 53.1004 102.319C52.3491 103.094 50.9796 102.939 50.1692 102.226C49.3587 101.514 49.0076 100.412 48.8502 99.3451C48.6616 98.064 48.743 96.6348 49.5886 95.6542C50.4588 94.6445 51.8896 94.3737 53.206 94.1639C54.5658 93.947 56.0892 93.7667 57.2027 94.576C57.9045 95.0856 58.3134 95.9082 58.9634 96.4823C59.6135 97.0564 60.7697 97.2739 61.2589 96.5579C61.387 96.3041 61.4517 96.0231 61.4476 95.7388C61.4435 95.4545 61.3707 95.1755 61.2354 94.9255C60.9604 94.4274 60.795 93.8763 60.7502 93.3091C60.783 92.5219 61.4151 91.8963 62.062 91.4462C62.7089 90.996 63.4391 90.6078 63.8636 89.9441C64.3856 89.1275 64.3302 88.0756 64.6539 87.1623C65.4375 84.9514 68.2346 83.968 69.0491 81.7683C69.2453 81.3055 69.2673 80.7873 69.111 80.3096C68.7702 79.4334 67.8482 79.6054 67.7918 78.5346C67.7376 77.5104 68.5921 76.5056 69.4605 76.0781C70.6577 75.4894 72.0531 75.5362 73.3872 75.5002C74.7213 75.4643 76.1582 75.2871 77.136 74.3802C77.4529 74.0536 77.6972 73.6638 77.853 73.2362C78.0088 72.8087 78.0726 72.353 78.0402 71.8991C78.0077 71.4452 77.8798 71.0033 77.6648 70.6022C77.4498 70.2012 77.1525 69.85 76.7924 69.5718C76.0628 69.068 75.1408 68.8927 74.431 68.3616C73.5468 67.7002 73.1297 66.5981 72.4398 65.735C71.867 65.0777 71.2115 64.4973 70.4898 64.0083L68.7173 62.6931C67.649 61.9006 66.5377 61.088 65.238 60.8054C63.9383 60.5228 62.3904 60.9225 61.7394 62.0825C61.4827 62.5994 61.3425 63.1664 61.3286 63.7434C61.2694 65.102 61.3261 66.4631 61.4981 67.812L61.82 71.0695C61.916 72.0429 61.8129 73.3262 60.8679 73.579C58.7717 74.1395 59.479 71.0385 59.0143 70.0905C58.3017 68.6371 55.0331 67.939 53.6351 67.333C52.7621 66.9547 51.841 66.5371 51.3139 65.7452C50.6577 64.7593 50.7925 63.4178 51.3071 62.3514C51.8217 61.285 52.6598 60.4169 53.4214 59.51C54.1975 58.5858 54.9045 57.6056 55.6106 56.6265L58.0671 53.22C59.1174 51.7639 60.2213 49.9864 59.6249 48.2939C59.4957 48.0673 59.3024 47.8839 59.0694 47.7667C58.8364 47.6494 58.574 47.6036 58.315 47.6348C58.056 47.666 57.8121 47.773 57.6136 47.9422C57.4151 48.1115 57.271 48.3355 57.1993 48.5863C56.9378 49.5006 57.6352 50.6677 56.9682 51.3453C56.7395 51.5293 56.4534 51.627 56.16 51.6214C55.8665 51.6157 55.5844 51.507 55.363 51.3143C54.9305 50.9154 54.601 50.4177 54.4026 49.8637C53.5942 48.0668 52.8067 46.2596 51.9767 44.4728C51.7142 43.908 51.4407 42.9411 50.6444 43.0362C49.9545 43.1189 49.5817 44.1246 49.6056 44.7092C49.6406 45.5588 50.11 46.3178 50.4688 47.0887C50.8275 47.8595 51.0785 48.7849 50.6856 49.5384C50.1868 50.4924 48.923 50.7068 47.847 50.6752C45.8188 50.6137 43.8315 50.0894 42.037 49.1422C41.9901 50.139 41.9432 51.1359 41.8963 52.1329L37.6115 50.3393L36.7793 49.9911C35.5744 49.4867 34.3682 48.982 33.1277 48.5724C32.4235 48.34 31.7097 48.1386 30.9962 47.9376L29.6949 47.5707C28.8389 47.2674 27.9309 47.1378 27.0242 47.1897C26.0715 47.3093 25.222 47.8211 24.3409 48.2034C22.3754 49.0567 19.833 48.1981 17.7265 48.183C16.8909 46.9632 15.7629 45.9723 14.4455 45.3011C13.1281 44.6298 11.6635 44.2996 10.1855 44.3405C8.70757 44.3815 7.26347 44.7924 5.9853 45.5355C4.70713 46.2787 3.63569 47.3305 2.86898 48.5947C2.49866 49.2352 2.16888 49.8983 1.88157 50.58L1.02398 52.5009C0.604792 53.4406 0.176308 54.4305 0.258721 55.456C0.341133 56.4815 1.12622 57.5293 2.15607 57.52C-0.270147 58.6184 -0.774844 62.462 1.28516 64.1502C1.85554 64.6174 2.55543 64.9232 3.06849 65.4515C3.45603 65.8517 3.71521 66.3585 3.81278 66.907C3.91036 67.4555 3.84189 68.0206 3.61617 68.5299C3.39044 69.0392 3.01774 69.4695 2.54585 69.7656C2.07396 70.0617 1.52439 70.2101 0.967596 70.1918C2.40493 70.7473 3.98815 70.7989 5.45864 70.3383C6.92913 69.8777 8.19996 68.9321 9.06355 67.6559C9.94437 66.2769 10.327 64.5539 11.5254 63.4395C13.1123 61.9638 15.7334 62.0781 17.5635 63.2387C19.3936 64.3993 20.5514 66.3751 21.348 68.3905C22.3915 71.0317 23.0594 74.0497 25.2827 75.8163C26.3578 76.6705 27.7192 77.151 28.6697 78.1421C30.023 79.5536 30.2569 81.6843 30.2266 83.6396C30.1962 85.5949 29.9855 87.6236 30.6978 89.4447C31.4101 91.2658 33.4518 92.7638 35.2831 92.0782C34.7586 93.6347 34.7748 95.3228 35.3292 96.869C35.8837 98.4151 36.9438 99.7289 38.338 100.597L37.3373 94.3901C38.9998 94.8582 40.0776 96.4709 40.6998 98.0819C41.3219 99.693 41.6509 101.436 42.5531 102.909C43.9736 105.228 46.5461 106.227 49.1629 106.219C51.9897 106.209 53.0629 104.861 54.9255 102.876C55.2999 102.538 55.5839 102.111 55.7521 101.635C55.8281 101.395 55.8148 101.136 55.7146 100.905C55.6145 100.674 55.4343 100.487 55.2072 100.378Z" fill="#E6E6E6"/>
<path d="M63.2117 100.275L58.4714 99.5315L60.9565 101.025C61.6469 101.485 62.3976 101.847 63.1872 102.101C63.5834 102.225 64.0009 102.267 64.4139 102.223C64.8269 102.18 65.2265 102.052 65.588 101.848L65.3857 101.461C65.0679 100.654 64.0674 100.41 63.2117 100.275Z" fill="#E6E6E6"/>
<path d="M62.1382 109.058L62.149 109.03C62.0534 108.872 61.9127 108.746 61.7448 108.668C61.5769 108.59 61.3895 108.564 61.2068 108.594C60.8428 108.659 60.4707 108.665 60.1048 108.612C59.8724 108.521 59.6651 108.376 59.5003 108.188C59.3355 108.001 59.2179 107.777 59.1574 107.535C59.0003 107.062 58.9538 106.557 58.775 106.092C58.6458 105.724 58.4177 105.399 58.1158 105.153C57.8139 104.907 57.4499 104.749 57.0639 104.696C56.6765 104.665 56.2925 104.788 55.9948 105.037C55.6972 105.287 55.5098 105.644 55.4733 106.031C55.5036 106.429 55.6301 106.814 55.842 107.153L56.3532 108.137C56.4972 108.43 56.6629 108.713 56.8489 108.982C57.1506 109.398 57.5451 109.738 58.001 109.974C58.4569 110.211 58.9617 110.338 59.4753 110.345C59.9889 110.352 60.4971 110.24 60.9595 110.016C61.422 109.793 61.826 109.465 62.1394 109.058L62.1382 109.058Z" fill="#E6E6E6"/>
<path d="M52.9102 24.9738C54.1132 25.683 55.6199 26.1719 56.1915 27.4462L56.5215 27.5528L55.4424 28.8937C54.9978 29.4461 54.5303 30.0617 54.5408 30.7706C54.555 31.7471 55.4944 32.4836 56.4434 32.7138C57.4561 32.9221 58.5101 32.7468 59.4008 32.2218C60.2915 31.6968 60.9554 30.8596 61.2636 29.8727C61.3764 29.461 61.4232 29.034 61.522 28.6192C61.8105 27.6345 62.246 26.6991 62.8136 25.8444L72.3983 9.71973C72.7961 9.05021 73.2063 8.24963 72.907 7.53053C72.7473 7.22644 72.5002 6.97714 72.1976 6.81474C71.8949 6.65235 71.5506 6.58429 71.2089 6.61935C70.527 6.70234 69.8692 6.92374 69.2759 7.26997C69.0124 6.80694 68.6404 6.41479 68.1919 6.12721C67.7434 5.83963 67.2317 5.66521 66.701 5.61893C65.6396 5.53699 64.572 5.62993 63.5408 5.89405C61.211 6.24562 58.9645 7.01742 56.9106 8.17186C55.7869 8.73977 54.5504 9.44213 54.2244 10.6576C53.8235 12.1534 55.1158 13.678 56.6036 14.108C58.0913 14.5381 59.6795 14.1768 61.1855 13.815C61.3558 14.545 61.2848 15.3105 60.9833 15.9968C60.6818 16.6831 60.166 17.2532 59.5133 17.6217C58.8605 17.9902 58.1058 18.1372 57.3625 18.0407C56.6191 17.9442 55.9271 17.6093 55.39 17.0864C54.3106 16.0355 53.782 14.2106 52.2998 13.9395C50.8226 13.669 49.6484 15.2448 49.3221 16.7109C49.0032 18.2899 49.1762 19.9288 49.8178 21.4064C50.4594 22.884 51.5387 24.1294 52.9102 24.9744V24.9738Z" fill="#E6E6E6"/>
<path d="M71.44 50.8371C70.7283 48.8318 69.7929 46.9131 68.6516 45.1172C67.7873 43.6967 66.7202 42.41 65.4843 41.2977C64.3544 40.3221 63.0557 39.5614 61.6521 39.0531C60.2889 38.5604 58.7729 38.3169 57.3958 38.7662C56.0186 39.2154 54.8469 40.4959 54.8748 41.9443C54.9057 43.5458 56.3068 44.7984 57.7673 45.4565C59.2278 46.1145 60.8522 46.4008 62.2287 47.2178C63.1655 47.7859 63.9485 48.5755 64.5087 49.5171C65.0689 50.4588 65.3892 51.5236 65.4415 52.618L65.7885 53.1918C65.0025 53.4519 64.2693 53.8506 63.6238 54.3691C63.3042 54.6329 63.0598 54.9764 62.9154 55.3648C62.7711 55.7533 62.7318 56.173 62.8016 56.5815C63.0423 57.5513 64.0325 58.1077 64.9279 58.5514L69.8915 61.0098C69.0491 58.4978 71.8071 56.1602 71.9599 53.5152C71.9658 52.596 71.7888 51.6848 71.4391 50.8347L71.44 50.8371Z" fill="#E6E6E6"/>
<path d="M29.8377 44.0548C30.8416 44.8343 32.3845 44.4697 33.304 43.5925C34.2236 42.7154 34.6713 41.4672 35.0889 40.2669C34.9364 41.4549 34.9509 42.6583 35.132 43.8423C35.2263 44.4343 35.4424 45.0002 35.7668 45.5044C36.0911 46.0085 36.5166 46.4398 37.0163 46.771C37.4701 47.0194 37.9592 47.197 38.4666 47.2977C40.8258 47.8347 43.2914 47.6586 45.5503 46.7918L45.5705 46.0194C44.4356 46.1489 43.5771 44.904 43.5021 43.7645C43.4271 42.625 43.8408 41.5071 43.8773 40.3654C43.9139 39.2237 43.3636 37.89 42.2396 37.687C42.4363 38.0821 42.508 38.5277 42.4452 38.9645C42.3823 39.4014 42.188 39.8087 41.888 40.1324C41.588 40.456 41.1965 40.6807 40.7657 40.7764C40.3349 40.8721 39.8851 40.8343 39.4763 40.6681C38.175 40.1393 37.7029 38.5542 36.6975 37.5736C36.0763 37.0211 35.3056 36.6645 34.4823 36.5488C33.659 36.433 32.8198 36.5632 32.0703 36.923C31.3303 37.3006 30.6811 37.8343 30.1676 38.4874C29.6541 39.1404 29.2885 39.8972 29.096 40.7053C28.7902 41.8792 28.8807 43.3115 29.8377 44.0548Z" fill="#E6E6E6"/>
<path d="M60.8131 35.9208L60.8596 35.8452C60.5807 35.036 59.7108 34.5616 58.8631 34.4414C58.0085 34.385 57.1505 34.4133 56.3015 34.526C55.4447 34.6368 54.5761 34.4455 53.8452 33.9851C53.2618 33.5488 52.9294 32.8626 52.4628 32.3027C51.9962 31.7429 51.2412 31.2828 50.5636 31.5505C49.8299 31.8402 49.6341 32.8685 49.9901 33.5724C50.4092 34.2478 51.0415 34.7642 51.7871 35.04C54.6117 36.3365 57.7899 36.6467 60.8119 35.9208H60.8131Z" fill="#E6E6E6"/>
<path d="M51.1715 38.3461C50.9373 38.5182 50.7788 38.7741 50.7288 39.0603C50.6789 39.3466 50.7414 39.641 50.9034 39.8823C51.0654 40.1235 51.3144 40.2928 51.5982 40.3548C51.8821 40.4169 52.179 40.3669 52.4269 40.2152L52.6747 40.4597C53.0041 39.871 53.1395 39.0804 52.7187 38.5527C52.5315 38.3339 52.2702 38.1918 51.9847 38.1537C51.6993 38.1156 51.4098 38.1842 51.1718 38.3464L51.1715 38.3461Z" fill="#E6E6E6"/>
<path d="M48.2752 40.4607C48.2789 40.25 48.2187 40.0432 48.1025 39.8675C47.9864 39.6917 47.8198 39.5553 47.6246 39.476C47.4917 39.4533 47.3557 39.4576 47.2245 39.4888C47.0934 39.52 46.9699 39.5774 46.8616 39.6576C46.7532 39.7378 46.6622 39.8391 46.5941 39.9554C46.5259 40.0717 46.482 40.2005 46.4649 40.3342C46.4445 40.6067 46.4803 40.8804 46.5701 41.1384C46.6599 41.3964 46.8018 41.6332 46.987 41.8341C47.0947 41.9959 47.2355 42.133 47.4001 42.2364C47.5647 42.3398 47.7493 42.4071 47.9419 42.4339C48.3298 42.4466 48.7254 42.0411 48.568 41.6863L47.9756 41.6748C48.1582 41.2951 48.2603 40.8817 48.2755 40.4607H48.2752Z" fill="#E6E6E6"/>
<path d="M36.6925 34.3949L37.345 34.9238C37.7218 35.2496 38.1287 35.5386 38.5604 35.787C39.3155 36.2053 40.2035 36.314 41.0372 36.0903C41.4488 35.973 41.8242 35.7539 42.1289 35.4533C42.4336 35.1526 42.6577 34.7802 42.7805 34.3702C43.0405 33.3902 42.6163 32.3724 42.2011 31.4476C42.1064 31.1829 41.9501 30.9445 41.7451 30.7521C41.6401 30.6589 41.5062 30.6049 41.366 30.5992C41.2258 30.5936 41.0879 30.6366 40.9758 30.7211C40.8945 30.8222 40.8405 30.9425 40.8188 31.0704C40.7971 31.1983 40.8085 31.3297 40.8519 31.4519C40.9412 31.6956 40.982 31.9544 40.9721 32.2138C40.9306 32.4697 40.6623 32.7114 40.4259 32.6054L40.3881 33.476C39.2588 32.9044 38.6614 31.3835 37.4045 31.2335C37.1224 31.1999 36.8365 31.2444 36.5779 31.3621C36.3194 31.4798 36.0981 31.6663 35.9383 31.9012C35.7785 32.1361 35.6862 32.4103 35.6716 32.694C35.657 32.9777 35.7206 33.26 35.8554 33.5101C36.0734 33.8569 36.3576 34.1574 36.6919 34.3943L36.6925 34.3949Z" fill="#E6E6E6"/>
<path d="M34.0023 30.6358C34.2636 30.4567 34.4703 30.2089 34.5997 29.9198C34.7291 29.6306 34.7762 29.3114 34.7357 28.9972C34.7044 28.845 34.64 28.7016 34.547 28.5772C34.4541 28.4527 34.3349 28.3503 34.1978 28.2772C34.0608 28.204 33.9093 28.162 33.7542 28.154C33.5991 28.146 33.4441 28.1723 33.3003 28.231C32.9776 28.4724 32.751 28.8202 32.6605 29.2128L31.7676 31.7317L32.2679 31.3676C32.887 31.2344 33.4755 30.9862 34.003 30.6358H34.0023Z" fill="#E6E6E6"/>
<path d="M39.7991 25.4832C39.8884 25.3705 39.952 25.2396 39.9853 25.0997C40.0187 24.9597 40.0209 24.8142 39.9919 24.6733C39.963 24.5325 39.9035 24.3996 39.8176 24.2842C39.7318 24.1688 39.6217 24.0736 39.4951 24.0053L38.8696 23.9468C38.7273 23.9828 38.5955 24.0516 38.4847 24.1477C38.3738 24.2439 38.2871 24.3647 38.2313 24.5004C38.1756 24.6361 38.1525 24.7831 38.1638 24.9294C38.1751 25.0756 38.2206 25.2173 38.2966 25.3428C38.3725 25.4683 38.4768 25.5743 38.6012 25.6523C38.7255 25.7302 38.8663 25.7779 39.0124 25.7916C39.1585 25.8052 39.3058 25.7844 39.4424 25.7309C39.579 25.6773 39.7012 25.5925 39.7991 25.4832Z" fill="#E6E6E6"/>
<path d="M45.555 26.4486C46.1387 26.7275 46.8777 26.9939 47.3855 26.593C47.5359 26.4568 47.6477 26.2835 47.7098 26.0903C47.7719 25.8972 47.7819 25.6911 47.739 25.4928C47.6478 25.0973 47.4717 24.7263 47.2228 24.4057C46.4462 23.2907 45.4594 22.3379 44.3179 21.6008L44.0357 21.9677C43.6416 22.9901 43.2611 24.1863 43.8107 25.1356C44.1816 25.7751 44.888 26.1304 45.555 26.4486Z" fill="#E6E6E6"/>
<path d="M49.9033 27.3598L50.9948 27.8537C50.888 27.667 50.725 27.5188 50.529 27.4301C50.333 27.3415 50.1141 27.3169 49.9033 27.3598Z" fill="#E6E6E6"/>
<path d="M46.9619 30.7942L46.4461 30.9643C46.0074 31.6849 46.1982 32.6064 46.4018 33.4252C46.5307 33.9429 46.8089 34.5796 47.3418 34.5561C47.8604 34.5331 48.0897 33.9054 48.1891 33.3952C48.3444 32.8418 48.3612 32.2587 48.2381 31.6973C48.1678 31.4195 48.0007 31.1758 47.7667 31.0102C47.5328 30.8446 47.2474 30.768 46.9619 30.7942Z" fill="#E6E6E6"/>
<path d="M38.7367 28.3685L39.1184 28.5235C39.2079 28.5109 39.2908 28.4691 39.3541 28.4047C39.4175 28.3403 39.4579 28.2567 39.4689 28.167C39.48 28.0773 39.4612 27.9865 39.4154 27.9085C39.3697 27.8306 39.2995 27.77 39.2157 27.736C39.132 27.702 39.0393 27.6966 38.9522 27.7205C38.8651 27.7445 38.7883 27.7966 38.7337 27.8686C38.6791 27.9407 38.6499 28.0287 38.6504 28.1191C38.6509 28.2095 38.6813 28.2972 38.7367 28.3685Z" fill="#E6E6E6"/>
<path d="M57.9773 57.5513C57.7925 57.5555 57.6113 57.6037 57.4489 57.6921C57.2865 57.7805 57.1475 57.9064 57.0437 58.0594C56.9398 58.2124 56.874 58.388 56.8518 58.5716C56.8296 58.7551 56.8515 58.9413 56.9159 59.1147C57.2908 59.9202 58.5815 59.9252 59.155 59.2448C59.3019 59.0516 59.4072 58.8299 59.4642 58.594C59.5212 58.358 59.5287 58.1127 59.4861 57.8737C59.4436 57.6347 59.3519 57.4071 59.2169 57.2053C59.082 57.0034 58.9066 56.8318 58.702 56.7012L57.9773 57.5513Z" fill="#E6E6E6"/>
<path d="M76.5675 76.6692C76.4175 76.7092 76.2771 76.7789 76.1544 76.8741C76.0318 76.9693 75.9295 77.0882 75.8536 77.2236C75.7777 77.359 75.7297 77.5083 75.7125 77.6626C75.6953 77.8169 75.7092 77.9731 75.7533 78.1219L76.825 78.1963L77.9137 77.6498C77.8918 77.4961 77.8393 77.3483 77.7593 77.2153C77.6793 77.0822 77.5734 76.9665 77.4479 76.8751C77.3225 76.7836 77.1799 76.7183 77.0288 76.6828C76.8776 76.6474 76.7209 76.6427 76.5678 76.6689L76.5675 76.6692Z" fill="#E6E6E6"/>
<path d="M72.2123 77.9947C71.9055 78.2123 71.6592 78.5044 71.4966 78.8436C71.334 79.1828 71.2604 79.5578 71.2829 79.9332C71.3178 80.3076 71.4709 80.6612 71.7201 80.9429C71.9693 81.2245 72.3016 81.4195 72.669 81.4997C73.0398 81.5577 73.4188 81.4727 73.7294 81.262C74.04 81.0513 74.2589 80.7305 74.3421 80.3645C74.5233 79.2563 73.332 78.4436 72.9039 77.406L72.2123 77.9947Z" fill="#E6E6E6"/>
<path d="M113.831 70.6742C113.944 71.5064 113.195 72.235 113.167 73.0744C113.134 74.0701 114.218 74.845 115.209 74.7474C115.701 74.6621 116.167 74.4639 116.57 74.1682C116.972 73.8725 117.301 73.4875 117.529 73.0434L117.551 72.9504L116.102 71.3127C115.509 70.6423 114.88 69.8792 114.903 68.9844C114.915 68.5432 115.089 68.1169 115.078 67.6748C115.055 67.3574 114.984 67.0453 114.868 66.749C114.738 66.3587 114.559 65.919 114.17 65.7886C113.682 65.6238 113.189 66.0563 112.956 66.5157C112.747 66.9396 112.645 67.4085 112.66 67.8811C112.674 68.3537 112.806 68.8153 113.041 69.2251C113.323 69.7026 113.756 70.1236 113.831 70.6742Z" fill="#E6E6E6"/>
<path d="M109.278 73.602C109.384 73.659 109.501 73.6925 109.621 73.7002C109.74 73.7079 109.86 73.6896 109.972 73.6466C110.403 73.5733 110.816 73.423 111.193 73.2029C111.38 73.09 111.534 72.9295 111.638 72.7379C111.743 72.5464 111.794 72.3305 111.788 72.1123C111.723 71.8377 111.578 71.5885 111.371 71.3965C111.164 71.2044 110.905 71.0781 110.626 71.0335C110.433 70.9654 110.226 70.946 110.023 70.977C109.82 71.0079 109.628 71.0883 109.464 71.2111C109.104 71.5488 109.147 72.1216 109.216 72.6099L109.14 72.7372C109.075 73.0387 109.031 73.4136 109.278 73.602Z" fill="#E6E6E6"/>
<path d="M185.294 109.161L184.981 108.382C184.838 108.735 184.891 109.096 185.294 109.161Z" fill="#E6E6E6"/>
<path d="M248 54.5231C246.659 53.0688 245.839 52.2304 244.992 50.4275C244.532 49.4333 243.832 48.5686 242.956 47.9106C242.079 47.2526 241.054 46.8218 239.971 46.6567C237.19 46.1985 234.348 46.9241 231.533 46.7788C227.025 46.5458 222.959 44.1276 218.642 42.8087C216.225 42.1319 213.763 41.6246 211.275 41.2906L206.973 40.609C202.274 39.8654 197.544 39.1218 192.787 39.2191C191.416 39.2476 189.503 38.8352 189.615 37.4677C189.751 35.7692 192.806 35.992 193.395 34.3927C193.758 33.4035 192.888 32.3646 191.933 31.9172C190.979 31.4699 189.877 31.3354 189.011 30.7346C188.145 30.1339 187.67 28.7416 188.466 28.0507L181.846 31.4445C180.011 32.3851 177.961 33.6086 177.637 35.6447C176.532 35.9368 175.564 36.6088 174.905 37.543C173.664 37.5495 172.688 38.7411 172.483 39.9655C172.278 41.1899 172.65 42.4289 173.019 43.6143C172.568 42.7517 172.089 41.8566 171.297 41.2937C170.504 40.7307 169.295 40.6239 168.618 41.3228C167.924 42.0401 168.086 43.2437 168.578 44.1131C169.069 44.9824 169.823 45.6839 170.287 46.5681C171.734 49.3298 169.111 53.2181 166.008 52.9105C166.216 50.0587 166.425 47.2068 166.633 44.355C166.764 43.4778 166.69 42.582 166.416 41.7383C166.077 40.9219 165.211 40.2511 164.348 40.4442C162.797 40.7908 162.93 43.0625 163.574 44.5146C164.217 45.9667 164.862 47.9861 163.545 48.8756C162.694 49.4501 161.541 49.0953 160.623 48.6368C159.705 48.1782 158.723 47.6144 157.72 47.8275C156.716 48.0407 156.085 49.5758 156.972 50.0923L152.561 49.3258C152.488 49.7587 152.325 50.1714 152.083 50.5374C151.84 50.9034 151.524 51.2145 151.154 51.4505C150.784 51.6866 150.368 51.8424 149.934 51.9079C149.5 51.9734 149.058 51.9471 148.634 51.8307L148.201 50.0359L147.555 49.8562C148.231 50.0443 147.174 52.8925 146.226 55.0687C144.953 54.9193 143.092 54.8905 142.88 54.5256C141.863 52.7779 141.984 48.6151 140.216 47.6317C139.33 47.1387 138.421 46.6894 137.489 46.284C137 46.0512 136.483 45.8815 135.951 45.779C134.867 45.608 133.772 45.9444 132.725 46.2772C131.488 46.67 130.222 47.0777 129.198 47.8749C128.323 48.6337 127.573 49.5254 126.976 50.5174L120.908 59.4979C120.305 60.2973 119.831 61.1858 119.502 62.1314C119.348 62.6016 119.296 63.0996 119.351 63.5915C119.407 64.0834 119.567 64.5576 119.823 64.9817C120.092 65.3975 120.493 65.7107 120.962 65.8708C121.43 66.0309 121.939 66.0287 122.406 65.8644C122.993 65.6107 123.58 65.0356 124.161 65.3012C124.6 65.5022 124.71 66.0807 124.664 66.5621C124.552 67.0337 124.544 67.5238 124.639 67.9991C124.903 68.7489 125.921 69.0094 126.646 68.685C127.352 68.2998 127.881 67.6555 128.121 66.8881C128.82 65.0948 128.749 63.1104 128.923 61.1932C129.097 59.2761 129.621 57.226 131.132 56.0338C131.585 55.6769 132.25 55.4197 132.715 55.759C132.89 55.9174 133.01 56.1263 133.06 56.3566C133.11 56.5869 133.087 56.827 132.994 57.0435C132.799 57.4717 132.546 57.8705 132.24 58.2282C131.724 58.9547 131.362 59.7797 131.178 60.6519C130.995 61.5241 130.992 62.4247 131.171 63.2979L131.481 63.489C132.659 63.1832 134.237 63.7307 135.801 64.2555C134.666 64.5932 133.666 65.281 132.944 66.2207C131.136 68.7582 129.827 71.1593 126.249 71.1292C125.401 71.1221 124.559 70.9542 123.71 70.9523C122.854 70.8994 122.01 71.1804 121.356 71.7365C120.712 72.3666 120.513 73.3259 119.962 74.0385C119.238 74.9757 118.028 75.3567 116.923 75.7821C116.116 76.0919 115.265 76.5127 114.893 77.2944C114.66 77.9355 114.607 78.6281 114.739 79.2974C114.862 80.4812 115.083 81.8277 116.088 82.4665C116.463 82.6625 116.874 82.7817 117.296 82.8174C117.718 82.8531 118.143 82.8045 118.546 82.6744C119.591 82.4204 120.612 81.9417 121.685 82.0133C123.37 82.1254 124.757 83.7424 124.774 85.4303C124.783 86.2848 124.533 87.2647 125.1 87.9048C125.632 88.5062 126.687 88.399 127.237 87.8153C127.494 87.5049 127.67 87.1365 127.751 86.7422C127.832 86.348 127.815 85.9399 127.702 85.5536C127.468 84.7839 127.108 84.0584 126.636 83.4065C127.197 83.2612 127.79 83.3146 128.316 83.5574C128.842 83.8003 129.267 84.2178 129.52 84.7388C129.894 85.57 129.773 86.5289 129.891 87.4342C130.01 88.3395 130.561 89.3421 131.471 89.3945C131.769 89.4028 132.06 89.3067 132.294 89.1229C132.528 88.9391 132.691 88.6792 132.753 88.3882C132.763 87.9295 132.738 87.4708 132.678 87.016C132.71 86.5682 132.911 86.1492 133.241 85.845C133.571 85.5409 134.005 85.3745 134.454 85.3801C134.177 85.8918 134.086 86.484 134.199 87.055C134.311 87.626 134.618 88.1402 135.068 88.5093C135.76 89.0453 136.676 89.1649 137.539 89.3148C138.402 89.4648 139.322 89.7015 139.878 90.3772C140.806 91.5028 139.671 92.01 139.494 92.9633C139.277 94.1338 140.255 95.862 140.63 96.9817L145.807 104.224C146.192 104.811 146.647 105.349 147.16 105.828C148.864 107.291 151.672 107.147 153.306 105.606C154.098 104.805 154.612 103.771 154.773 102.655C154.934 101.54 154.734 100.403 154.201 99.4098C153.191 97.5722 151.191 96.4355 150.204 94.5846C151.848 95.9456 153.866 96.7756 155.992 96.965C159.754 97.7293 163.327 99.228 166.509 101.375C166.658 104.699 167.933 107.873 170.125 110.377C170.519 107.54 171.841 104.914 173.885 102.908C175.215 101.611 177.031 100.566 178.855 100.915C180.679 101.264 182.063 103.589 180.96 105.083L183.733 105.29L184.976 108.382C185.05 108.165 185.191 107.978 185.379 107.847C185.567 107.717 185.792 107.65 186.021 107.657C186.886 107.787 187.493 108.592 188.316 108.89C189.868 109.45 191.527 107.898 191.727 106.26C191.928 104.622 191.149 103.042 190.392 101.576C192.064 101.886 193.79 101.701 195.359 101.045C196.927 100.389 198.271 99.2899 199.224 97.8821C200.178 96.4743 200.7 94.819 200.727 93.1189C200.754 91.4188 200.285 89.7477 199.377 88.3101C201.176 86.4207 203.293 84.8621 205.632 83.7055C207.796 82.6363 210.163 81.9027 212.054 80.4028C213.946 78.903 215.272 76.2989 214.362 74.0632C213.72 72.4831 212.107 71.4118 211.625 69.7762C210.927 67.4086 213.048 64.9597 215.445 64.3683C217.841 63.7768 220.343 64.504 222.704 65.2253C222.342 62.7963 225.157 60.5191 227.457 61.3816L230.346 60.2117C229.231 62.6733 226.81 64.2394 225.032 66.274C223.253 68.3086 222.193 71.6225 224.052 73.5858L232.042 66.3437L240.4 58.7683L240.001 57.5959C242.64 56.5945 245.479 55.7664 248 54.5231Z" fill="#E6E6E6"/>
<path d="M109.659 87.0125C109.551 87.1674 109.494 87.3516 109.495 87.54C109.496 87.7285 109.555 87.9121 109.664 88.0659C109.807 88.1874 109.988 88.2553 110.176 88.2579C110.364 88.2604 110.546 88.1975 110.693 88.0799C110.978 87.8356 111.201 87.5264 111.343 87.1783C111.481 87.4459 111.699 87.6645 111.966 87.8043C112.233 87.9441 112.536 87.9983 112.835 87.9596C113.432 87.8697 113.997 87.634 114.481 87.2734C114.865 87.0483 115.204 86.7542 115.48 86.4059C115.617 86.2305 115.711 86.0255 115.755 85.8073C115.799 85.5892 115.791 85.3638 115.732 85.1492C115.588 84.8201 115.364 84.532 115.081 84.3109L112.967 82.359L112.728 82.2874C112.604 82.1551 112.454 82.0493 112.288 81.9764C112.122 81.9034 111.942 81.8648 111.761 81.8629C111.579 81.8609 111.399 81.8957 111.232 81.9651C111.064 82.0345 110.912 82.1371 110.785 82.2667C110.347 82.7565 110.345 83.4886 110.413 84.142C110.481 84.7954 110.584 85.4916 110.293 86.0806C110.127 86.4177 109.845 86.685 109.659 87.0125Z" fill="#E6E6E6"/>
<path d="M150.549 109.25C147.811 108.641 145.304 107.26 143.325 105.27C141.346 103.281 139.977 100.767 139.382 98.0255C139.122 96.7317 139.004 95.3179 138.142 94.3175C137.309 93.349 135.948 92.9995 134.67 92.9995C133.392 92.9995 132.133 93.2936 130.859 93.3732C128.628 93.5123 126.267 92.9233 124.673 91.3593C123.918 90.6186 123.347 89.6776 122.465 89.093C121.28 88.3076 119.708 88.3082 118.359 88.7522C116.855 89.2479 115.651 90.6043 114.006 90.4175C112.296 90.2232 110.314 89.6188 109.644 91.8709C109.451 92.5193 109.516 93.2304 109.272 93.8612C108.895 94.8334 107.895 95.3814 107.103 96.0609C105.509 97.4288 104.662 99.507 104.377 101.588C104.091 103.669 104.312 105.782 104.531 107.87C104.651 108.997 104.808 110.209 105.581 111.037C106.66 112.19 108.47 112.146 110.043 112.015L115.527 111.563C116.512 111.481 117.635 111.447 118.337 112.143C118.758 112.561 118.935 113.166 119.305 113.628C119.637 114.022 120.093 114.292 120.598 114.394C121.103 114.496 121.628 114.424 122.087 114.189C121.715 114.851 121.513 115.595 121.498 116.354C121.483 117.113 121.655 117.864 122 118.541C122.344 119.217 122.85 119.798 123.473 120.233C124.096 120.667 124.816 120.941 125.57 121.03L125.711 121.119C124.54 123.124 123.325 125.375 123.811 127.645C124.227 129.591 125.839 131.152 126.104 133.124C126.346 134.934 125.401 136.785 125.819 138.563C126.243 140.363 128.061 141.618 129.905 141.752C131.749 141.887 133.561 141.068 134.99 139.894C136.419 138.719 137.523 137.207 138.612 135.711C139.284 134.788 139.973 133.827 140.204 132.709C140.45 131.519 140.165 130.199 140.744 129.132C141.411 127.899 142.995 127.437 143.795 126.287C144.83 124.797 144.22 122.768 144.449 120.967C145.019 116.515 150.678 113.739 150.549 109.25Z" fill="#E6E6E6"/>
<path d="M149.732 124.458C149.577 125.153 148.926 125.611 148.306 125.962C147.687 126.312 147.003 126.665 146.687 127.303C146.363 127.957 146.511 128.737 146.68 129.447C147.033 130.924 147.448 132.383 147.926 133.826C148.852 132.076 149.66 130.267 150.346 128.409C150.636 127.718 150.816 126.985 150.877 126.238C150.905 125.863 150.855 125.488 150.729 125.134C150.604 124.781 150.405 124.457 150.147 124.185L149.732 124.458Z" fill="#E6E6E6"/>
<path d="M187.819 116.711L185.486 114.017C184.954 113.403 184.347 112.747 183.542 112.645L183.21 112.857L185.233 117.674C185.471 118.407 185.892 119.068 186.454 119.595C187.058 120.069 188.036 120.16 188.54 119.58C188.702 119.363 188.805 119.107 188.837 118.838C188.869 118.568 188.829 118.295 188.723 118.046C188.503 117.551 188.197 117.098 187.819 116.71L187.819 116.711Z" fill="#E6E6E6"/>
<path d="M195.355 118.43C195.649 118.328 195.918 118.165 196.146 117.953C196.374 117.741 196.554 117.484 196.677 117.198C196.918 116.625 197.077 116.02 197.15 115.403L197.548 112.991L197.375 112.947C197.206 112.866 197.013 112.849 196.833 112.899C196.652 112.949 196.496 113.063 196.393 113.219C196.197 113.538 196.049 113.885 195.953 114.247C195.903 114.428 195.814 114.595 195.691 114.737C195.568 114.878 195.414 114.99 195.242 115.064C194.618 115.252 194.027 114.591 193.375 114.616C193.112 114.65 192.868 114.772 192.682 114.962C192.497 115.152 192.382 115.399 192.355 115.663C192.318 116.196 192.469 116.725 192.782 117.158C193.338 118.02 194.369 118.714 195.355 118.43Z" fill="#E6E6E6"/>
<path d="M199.655 119.954L201.447 115.234C200.721 115.76 200.164 116.488 199.846 117.326C199.528 118.165 199.461 119.078 199.655 119.954Z" fill="#E6E6E6"/>
<path d="M208.801 116.15L208.439 116.166C208.277 116.486 208.191 116.839 208.187 117.198C208.184 117.557 208.263 117.912 208.419 118.236C208.737 118.881 209.2 119.443 209.771 119.879C210.656 120.61 211.667 121.175 212.754 121.545C214.348 122.01 215.995 122.264 217.655 122.3L220.501 122.486C220.954 122.517 221.538 122.458 221.664 122.023C221.767 121.664 221.461 121.326 221.175 121.085C218.665 118.972 215.622 117.591 212.379 117.092C211.148 116.904 209.844 116.827 208.801 116.15Z" fill="#E6E6E6"/>
<path d="M218.929 128.676L216.882 126.691C216.218 126.048 215.224 125.366 214.463 125.891C214.026 126.193 213.891 126.782 213.521 127.163C213.295 127.365 213.023 127.508 212.728 127.579C212.433 127.649 212.126 127.645 211.833 127.566C211.25 127.402 210.699 127.141 210.204 126.793L208.51 125.743L206.758 124.655L205.439 125.936C205.496 125.306 204.656 124.896 204.073 125.145C203.797 125.301 203.559 125.516 203.377 125.776C203.195 126.036 203.074 126.334 203.023 126.647C202.926 127.273 202.757 127.885 202.519 128.472C201.85 129.754 200.224 130.134 198.794 130.348C197.364 130.563 195.744 130.865 194.979 132.092C194.341 133.115 194.532 134.426 194.745 135.612L195.551 140.096C195.589 140.64 195.807 141.155 196.17 141.56C196.878 142.185 197.975 141.806 198.839 141.424C200.645 140.556 202.584 139.994 204.575 139.762C206.583 139.538 208.605 140.056 210.258 141.218C211.282 141.999 212.064 143.079 213.15 143.772C213.898 144.222 214.739 144.495 215.609 144.571C216.478 144.647 217.354 144.524 218.169 144.21C219.802 143.56 221.153 142.355 221.985 140.807C222.724 139.442 223.095 137.908 223.061 136.356C223.027 134.804 222.59 133.288 221.792 131.957C220.978 130.748 220.016 129.647 218.929 128.676Z" fill="#E6E6E6"/>
<path d="M216.917 146.948C216.753 147.146 216.657 147.392 216.643 147.65C216.63 147.907 216.699 148.162 216.84 148.377C217.138 148.803 217.591 149.095 218.102 149.189C218.608 149.279 219.124 149.303 219.636 149.259L219.651 148.877C219.515 148.205 219.205 147.581 218.753 147.066C218.259 146.596 217.385 146.452 216.917 146.948Z" fill="#E6E6E6"/>
<path d="M234.488 147.358L234.244 147.269L232.497 149.902C232.184 150.374 231.856 150.941 232.048 151.475C232.274 152.106 233.11 152.291 233.76 152.125C234.255 151.99 234.702 151.717 235.048 151.337C235.393 150.958 235.624 150.487 235.712 149.981C235.784 149.473 235.707 148.954 235.489 148.488C235.272 148.022 234.924 147.63 234.488 147.358Z" fill="#E6E6E6"/>
<path d="M238.928 144.572L237.321 143.294C237.3 143.887 237.279 144.48 237.256 145.072H237.196C237.567 145.397 237.917 145.745 238.244 146.114C238.62 146.434 239.251 146.579 239.573 146.207C239.669 146.073 239.724 145.913 239.73 145.748C239.736 145.583 239.694 145.42 239.608 145.279C239.431 145 239.2 144.76 238.928 144.572Z" fill="#E6E6E6"/>
<path d="M209.887 88.9769C209.213 88.9558 208.466 88.9149 207.943 89.3415C207.771 89.4952 207.621 89.6711 207.495 89.8645L207.311 90.1226C207.035 90.4836 206.794 90.8703 206.592 91.2773C206.487 91.4681 206.424 91.6792 206.407 91.8966C206.39 92.1139 206.42 92.3323 206.495 92.537C206.538 92.6349 206.602 92.7221 206.683 92.7925C206.763 92.8628 206.858 92.9146 206.961 92.9442C207.064 92.9737 207.172 92.9803 207.278 92.9635C207.383 92.9467 207.484 92.9069 207.573 92.8468C207.861 92.5798 207.794 92.0955 208.012 91.7684C208.108 91.6452 208.231 91.546 208.372 91.4786C208.513 91.4112 208.667 91.3775 208.823 91.3802C209.135 91.3879 209.445 91.423 209.75 91.4849C210.596 91.6007 211.457 91.4721 212.231 91.1143C213.006 90.7565 213.663 90.1844 214.123 89.4656C214.583 88.7468 214.828 87.9114 214.828 87.0579C214.829 86.2045 214.585 85.3687 214.126 84.6493L214.072 84.4835C213.605 84.4657 213.146 84.6122 212.776 84.8975C212.406 85.1828 212.148 85.5889 212.046 86.045C211.895 86.831 212.215 87.7438 211.739 88.3866C211.337 88.9276 210.562 88.9979 209.887 88.9769Z" fill="#E6E6E6"/>
<path d="M215.925 80.6451L215.822 80.6361C215.219 80.7463 214.64 80.962 214.111 81.2734C213.938 81.3539 213.8 81.4943 213.722 81.6687C213.699 81.7613 213.699 81.8581 213.723 81.9505C213.747 82.0429 213.793 82.1279 213.858 82.1979C213.989 82.3362 214.142 82.4514 214.311 82.5387C214.563 82.707 214.842 82.8317 215.135 82.9074C215.283 82.9439 215.437 82.9431 215.584 82.9053C215.73 82.8674 215.866 82.7936 215.977 82.6905C216.081 82.5471 216.153 82.3827 216.187 82.2086C216.221 82.0346 216.217 81.8552 216.174 81.683C216.126 81.3295 216.042 80.9818 215.925 80.6451H215.925Z" fill="#E6E6E6"/>
<path d="M205.529 89.177C205.69 88.9187 205.805 88.634 205.867 88.3361L206.056 87.6421L205.384 87.2338C205.063 87.4009 204.766 87.6121 204.503 87.8612C204.373 87.9867 204.27 88.1379 204.2 88.3053C204.131 88.4727 204.097 88.6526 204.101 88.8337C204.11 89.0147 204.18 89.1873 204.3 89.3233C204.42 89.4593 204.582 89.5508 204.761 89.5828C204.913 89.5874 205.064 89.5525 205.199 89.4814C205.333 89.4103 205.447 89.3055 205.53 89.1773L205.529 89.177Z" fill="#E6E6E6"/>
<path d="M132.285 26.6555C132.019 26.8213 132.094 27.2219 132.202 27.5159L132.574 28.529L132.747 27.8735C132.899 27.6191 132.966 27.323 132.938 27.028C132.879 26.7395 132.535 26.5006 132.285 26.6555Z" fill="#E6E6E6"/>
<path d="M215.151 136.651C223.706 136.651 230.642 129.715 230.642 121.16C230.642 112.604 223.706 105.669 215.151 105.669C206.595 105.669 199.66 112.604 199.66 121.16C199.66 129.715 206.595 136.651 215.151 136.651Z" fill="#0059FC"/>
<mask id="mask0_21_6457" style="mask-type:luminance" maskUnits="userSpaceOnUse" x="199" y="105" width="32" height="32">
<path d="M215.151 136.651C223.706 136.651 230.642 129.715 230.642 121.16C230.642 112.604 223.706 105.669 215.151 105.669C206.595 105.669 199.66 112.604 199.66 121.16C199.66 129.715 206.595 136.651 215.151 136.651Z" fill="white"/>
</mask>
<g mask="url(#mask0_21_6457)">
<path d="M219.215 120.499C219.422 119.824 219.437 119.104 219.26 118.42C219.083 117.736 218.72 117.114 218.211 116.624C217.701 116.134 217.067 115.795 216.376 115.644C215.686 115.493 214.967 115.537 214.3 115.769C213.633 116.002 213.043 116.415 212.597 116.963C212.15 117.511 211.864 118.171 211.77 118.872C211.677 119.572 211.779 120.285 212.066 120.93C212.353 121.576 212.813 122.13 213.395 122.53L211.062 128.378L222.525 127.407C222.525 127.407 216.716 124.29 216.643 123.044C217.249 122.866 217.801 122.54 218.249 122.096C218.698 121.652 219.03 121.103 219.215 120.499Z" fill="#ED9DA0"/>
<path d="M222.541 127.039L223.518 126.587C223.87 126.654 224.195 126.823 224.452 127.072C224.71 127.321 224.889 127.64 224.968 127.989C225.301 129.249 226.822 136 226.822 136C227.08 136.275 227.254 136.619 227.321 136.99C227.389 137.361 227.348 137.744 227.203 138.092C227.203 138.092 227.381 139.435 226.822 139.637C226.264 139.839 222.524 142.726 222.524 142.726L222.541 127.039Z" fill="#090814"/>
<path d="M219.596 125.28L217.069 123.741C216.487 126.641 213.48 126.8 212.897 123.9L211.038 125.28L207.116 126.587L207.686 141.795L215.649 141.772V141.795H222.948L223.518 126.587L219.596 125.28Z" fill="#090814"/>
<path d="M208.094 127.039L207.117 126.587C206.765 126.654 206.44 126.823 206.183 127.072C205.925 127.321 205.746 127.64 205.667 127.989C205.334 129.249 205.952 136.535 205.952 136.535C205.694 136.81 205.521 137.154 205.453 137.525C205.386 137.896 205.427 138.279 205.572 138.627C205.572 138.627 205.394 139.97 205.952 140.172C206.511 140.374 208.095 140.464 208.095 140.464L208.094 127.039Z" fill="#090814"/>
<path d="M211.954 117.756L211.664 120.717C211.664 120.717 208.618 114.808 212.404 113.715C212.404 113.715 212.036 113.215 212.571 113.049C213.106 112.883 218.18 112.086 218.585 114.571C218.585 114.571 221.235 116.213 220.433 117.971L219.488 120.038L218.632 120.085C218.632 120.085 218.608 116.15 217.3 116.282C215.992 116.413 211.954 117.756 211.954 117.756Z" fill="#090814"/>
</g>
<path d="M131.654 97.3036C140.295 97.3036 147.3 90.368 147.3 81.8125C147.3 73.257 140.295 66.3214 131.654 66.3214C123.013 66.3214 116.008 73.257 116.008 81.8125C116.008 90.368 123.013 97.3036 131.654 97.3036Z" fill="#0059FC"/>
<mask id="mask1_21_6457" style="mask-type:luminance" maskUnits="userSpaceOnUse" x="116" y="66" width="32" height="32">
<path d="M131.654 97.3036C140.295 97.3036 147.3 90.368 147.3 81.8125C147.3 73.257 140.295 66.3214 131.654 66.3214C123.013 66.3214 116.008 73.257 116.008 81.8125C116.008 90.368 123.013 97.3036 131.654 97.3036Z" fill="white"/>
</mask>
<g mask="url(#mask1_21_6457)">
<path d="M129.651 83.51L129.497 86.0356L134.213 86.2748L132.752 82.947L129.651 83.51Z" fill="#ED9DA0"/>
<path d="M129.375 85.658C130.64 86.3222 132.662 86.1407 134.952 85.658L135.31 104.362C135.31 104.362 127.844 106.781 125.378 103.649L126.976 87.6461L129.375 85.6595L129.375 85.658Z" fill="#D6D6E3"/>
<path d="M133.514 84.6854L136.914 86.6993C137.54 87.0698 138.025 87.6384 138.292 88.3152C138.559 88.992 138.593 89.7384 138.389 90.4366L135.761 99.4113C135.761 99.4113 140.04 106.763 138.65 107.411C135.525 108.867 130.863 108.514 130.863 108.514L131.905 90.9128L133.516 84.6854H133.514Z" fill="#3F3D58"/>
<path d="M129.523 85.5913L125.679 87.085L124.771 98.1766L122.228 107.111C126.534 108.683 126.131 107.951 126.131 107.951L126.844 92.5344L129.521 85.5944L129.523 85.5913Z" fill="#3F3D58"/>
<path d="M123.908 106.921L123.921 106.859L127.851 88.6827C127.897 88.4827 127.903 88.2756 127.869 88.0732C127.835 87.8709 127.761 87.6772 127.652 87.5033C127.543 87.3293 127.401 87.1786 127.234 87.0596C127.067 86.9406 126.878 86.8557 126.678 86.8097C126.478 86.7637 126.271 86.7576 126.068 86.7917C125.866 86.8258 125.672 86.8994 125.498 87.0084C125.324 87.1173 125.173 87.2594 125.054 87.4266C124.935 87.5938 124.851 87.7828 124.805 87.9828L120.488 105.729L123.907 106.922L123.908 106.921Z" fill="#3F3D58"/>
<path d="M131.698 84.1807C133.811 84.1807 135.524 82.4676 135.524 80.3544C135.524 78.2412 133.811 76.5281 131.698 76.5281C129.584 76.5281 127.871 78.2412 127.871 80.3544C127.871 82.4676 129.584 84.1807 131.698 84.1807Z" fill="#ED9DA0"/>
<path d="M129.877 75.397C129.035 75.6932 128.552 75.8617 128.111 76.2883C127.365 77.0071 127.242 77.9679 127.128 78.8599C126.957 79.74 127.027 80.6501 127.332 81.4933C127.471 81.8453 128.149 83.4142 129.444 83.6119C129.699 83.6509 130.296 83.6612 130.124 83.5338C128.53 82.3565 127.85 81.647 127.906 79.8336C127.941 78.7068 129.662 77.4904 130.684 77.2717C130.93 77.2216 131.184 77.225 131.428 77.2819C131.672 77.3388 131.901 77.4478 132.099 77.6014C132.958 78.3068 132.922 81.2235 133.828 81.8332C134.199 82.0842 133.952 80.3188 134.215 80.6051C134.733 81.1699 134.4 82.0343 134.307 82.3642C133.866 83.9267 133.403 82.7714 132.972 84.1054C132.508 85.5458 136.591 86.5159 136.729 86.8375C136.971 87.397 133.518 90.0519 134.466 90.5123C135.669 91.0969 136.617 90.3357 137.176 90.9881C137.489 91.3528 137.32 91.7395 137.885 92.8743C138.069 93.2461 138.162 93.4302 138.243 93.4237C138.629 93.3927 139.254 90.3013 138.243 87.4227C137.818 86.2144 137.403 85.0312 136.289 84.1054C135.7 83.6159 135.204 83.44 135.065 82.8686C134.864 82.0519 135.698 81.7037 135.865 80.4158C135.98 79.535 136.06 78.2749 135.748 77.4675C135.455 76.7047 135.2 76.0423 134.532 75.4428C134.372 75.2988 133.078 74.3188 131.706 74.2909C131.075 74.2782 130.61 75.1392 129.878 75.3967L129.877 75.397Z" fill="#090814"/>
<path d="M135.8 86.8129C136.384 86.7303 136.979 86.873 137.462 87.212C137.946 87.5511 138.282 88.0611 138.404 88.639C139.284 92.8216 140.863 101.735 138.383 101.884C136.248 101.975 134.11 101.778 132.027 101.301L132.805 96.8254L135.335 96.5661L133.847 89.6069C133.78 89.2943 133.779 88.9712 133.842 88.6578C133.905 88.3445 134.033 88.0475 134.216 87.7854C134.399 87.5233 134.634 87.3017 134.906 87.1344C135.179 86.9671 135.483 86.8577 135.799 86.8129H135.8Z" fill="#3F3D58"/>
</g>
<path d="M45.8456 62.088C48.9143 62.088 51.9142 62.998 54.4657 64.7029C57.0173 66.4078 59.006 68.8311 60.1804 71.6662C61.3548 74.5014 61.662 77.6211 61.0633 80.6309C60.4646 83.6407 58.9869 86.4053 56.817 88.5753C54.647 90.7452 51.8824 92.2229 48.8726 92.8216C45.8628 93.4203 42.7431 93.1131 39.9079 91.9387C37.0728 90.7643 34.6495 88.7756 32.9446 86.2241C31.2397 83.6725 30.3297 80.6726 30.3297 77.6039C30.3297 73.4888 31.9644 69.5423 34.8742 66.6325C37.784 63.7227 41.7305 62.088 45.8456 62.088Z" fill="#0059FC"/>
<mask id="mask2_21_6457" style="mask-type:luminance" maskUnits="userSpaceOnUse" x="30" y="62" width="32" height="32">
<path d="M45.8149 93.0584C54.3672 93.0584 61.3001 86.1255 61.3001 77.5732C61.3001 69.021 54.3672 62.088 45.8149 62.088C37.2627 62.088 30.3297 69.021 30.3297 77.5732C30.3297 86.1255 37.2627 93.0584 45.8149 93.0584Z" fill="white"/>
</mask>
<g mask="url(#mask2_21_6457)">
<path d="M46.7599 74.6169C48.2407 74.6169 49.4411 73.4165 49.4411 71.9357C49.4411 70.4549 48.2407 69.2545 46.7599 69.2545C45.2791 69.2545 44.0787 70.4549 44.0787 71.9357C44.0787 73.4165 45.2791 74.6169 46.7599 74.6169Z" fill="#FFB9B9"/>
<path d="M44.4443 72.5452C44.4443 72.5452 44.3222 76.3234 43.7131 76.8108C43.104 77.2981 45.9069 79.3702 45.9069 79.3702L47.7349 76.4452V73.764L44.4443 72.5452Z" fill="#FFB9B9"/>
<path d="M45.6631 77.6644L44.1834 75.4299L43.3469 76.5673L42.1281 79.98L43.1031 93.2645L48.8314 93.3866L49.5625 78.1517L47.7346 75.9579L45.6631 77.6644Z" fill="#F2F2F2"/>
<path d="M51.8788 78.5173L52.8538 78.3955C52.8538 78.3955 53.0973 78.5173 53.2194 79.3705C53.3414 80.2238 54.8032 87.7803 54.8032 87.7803L52.8531 97.044L50.6593 94.119L52.0005 89.0004L50.6596 83.8797L51.8788 78.5173Z" fill="#090814"/>
<path d="M39.4472 78.3955H38.716L36.8881 88.2677L38.5942 95.9463L40.3007 93.143L39.8131 90.0959L40.0563 87.4147L40.9095 85.8303L39.4472 78.3955Z" fill="#090814"/>
<path d="M45.1758 71.9366L45.6635 71.8146C45.6635 71.8146 46.029 69.7422 46.8823 69.9866C47.7355 70.2311 49.9294 70.4743 49.9294 69.499C49.9294 68.5236 47.857 67.671 46.6388 67.7925C45.4206 67.9139 43.3479 68.2807 43.4696 70.1087C43.5874 71.3501 43.8937 72.5663 44.378 73.7153L44.4421 72.6309L45.1758 71.9366Z" fill="#090814"/>
<path d="M52.7323 78.3955L48.8323 76.8111L47.9183 76.1407L45.1761 88.2677L43.3481 82.7839L43.8965 75.776L38.8387 78.3965L40.5458 86.6848L40.7896 89.8537L40.0584 92.4131C40.0584 92.4131 37.499 94.2411 38.3522 96.1914C39.2055 98.1417 40.1802 98.2638 40.1802 98.2638C40.1802 98.2638 44.3241 94.3638 44.5682 93.3888C44.8123 92.4137 45.1776 90.7076 45.1776 90.7076C45.1776 90.7076 47.25 98.5079 49.6871 98.3859C52.1241 98.2638 52.1248 95.7047 52.1248 95.7047L51.5153 93.0235L50.5391 90.2168L51.0267 85.5856L52.7323 78.3955Z" fill="#090814"/>
</g>
</g>
<defs>
<clipPath id="clip0_21_6457">
<rect width="248" height="161.852" fill="white"/>
</clipPath>
</defs>
</svg>
