<svg width="270" height="154" viewBox="0 0 270 154" fill="none" xmlns="http://www.w3.org/2000/svg">
<g clip-path="url(#clip0_21_6647)">
<path opacity="0.1" d="M270 101.815C270.015 109.641 267.882 117.32 263.835 124.014C263.835 132.2 260.026 139.621 253.847 145.029C252.301 146.383 250.636 147.594 248.872 148.649C248.801 148.694 248.728 148.736 248.655 148.779C248.523 148.857 248.391 148.935 248.256 149.015L248.131 149.089C242.282 152.354 235.69 154.05 228.995 154.012H51.2551C38.9989 154.012 27.9039 149.737 19.8653 142.827C11.8266 135.918 6.87269 126.355 6.87269 115.809C2.3713 108.864 -0.0166135 100.757 -3.63427e-05 92.4766C-3.63427e-05 69.0335 18.7017 50.0289 41.7744 50.0289C42.591 50.0289 43.4006 50.0572 44.2054 50.1022C58.6825 25.368 91.3374 8.12024 129.274 8.12024C152.597 8.12024 173.916 14.6348 190.246 25.3987C196.432 21.8952 203.419 20.0581 210.524 20.0664C233.592 20.0664 252.299 39.0711 252.299 62.5142C252.295 63.9975 252.217 65.4797 252.063 66.955C257.623 70.8988 262.156 76.1246 265.278 82.1916C268.399 88.2586 270.019 94.9889 270 101.815Z" fill="#0059FC"/>
<path opacity="0.1" d="M97.4738 115.22C148.57 115.22 189.991 114.108 189.991 112.737C189.991 111.366 148.57 110.254 97.4738 110.254C46.3778 110.254 4.9563 111.366 4.9563 112.737C4.9563 114.108 46.3778 115.22 97.4738 115.22Z" fill="#0059FC"/>
<g opacity="0.7">
<path d="M63.0158 94.411H33.514V110.727H63.0158V94.411Z" fill="#65617D"/>
<path opacity="0.1" d="M52.8672 97.2485H43.8987V99.1403H52.8672V97.2485Z" fill="black"/>
<path opacity="0.1" d="M51.7462 97.485H45.0198V98.9038H51.7462V97.485Z" fill="black"/>
<path d="M92.9895 94.411H63.4878V110.727H92.9895V94.411Z" fill="#65617D"/>
<path opacity="0.1" d="M82.841 97.2485H73.8724V99.1403H82.841V97.2485Z" fill="black"/>
<path opacity="0.1" d="M81.7199 97.485H74.9935V98.9038H81.7199V97.485Z" fill="black"/>
<path d="M63.0158 77.6219H33.514V93.938H63.0158V77.6219Z" fill="#65617D"/>
<path opacity="0.1" d="M52.8672 80.4596H43.8987V82.3513H52.8672V80.4596Z" fill="black"/>
<path opacity="0.1" d="M51.7462 80.696H45.0198V82.1148H51.7462V80.696Z" fill="black"/>
<path d="M92.9895 77.6219H63.4878V93.938H92.9895V77.6219Z" fill="#65617D"/>
<path opacity="0.1" d="M82.841 80.4596H73.8724V82.3513H82.841V80.4596Z" fill="black"/>
<path opacity="0.1" d="M81.7199 80.696H74.9935V82.1148H81.7199V80.696Z" fill="black"/>
<path d="M63.0158 60.5966H33.514V76.9126H63.0158V60.5966Z" fill="#65617D"/>
<path opacity="0.1" d="M52.8672 63.4341H43.8987V65.3258H52.8672V63.4341Z" fill="black"/>
<path opacity="0.1" d="M51.7462 63.6705H45.0198V65.0893H51.7462V63.6705Z" fill="black"/>
<path d="M92.9895 60.5966H63.4878V76.9126H92.9895V60.5966Z" fill="#65617D"/>
<path opacity="0.1" d="M82.841 63.4341H73.8724V65.3258H82.841V63.4341Z" fill="black"/>
<path opacity="0.1" d="M81.7199 63.6705H74.9935V65.0893H81.7199V63.6705Z" fill="black"/>
<path d="M92.9895 43.571H63.4878V59.8871H92.9895V43.571Z" fill="#65617D"/>
<path opacity="0.1" d="M82.841 46.4086H73.8724V48.3003H82.841V46.4086Z" fill="black"/>
<path opacity="0.1" d="M81.7199 46.6451H74.9935V48.0639H81.7199V46.6451Z" fill="black"/>
</g>
<g opacity="0.7">
<path d="M122.963 94.1744H93.4615V110.491H122.963V94.1744Z" fill="#65617D"/>
<path opacity="0.1" d="M112.815 97.012H103.846V98.9037H112.815V97.012Z" fill="black"/>
<path opacity="0.1" d="M111.694 97.2484H104.967V98.6672H111.694V97.2484Z" fill="black"/>
<path d="M152.937 94.1744H123.435V110.491H152.937V94.1744Z" fill="#65617D"/>
<path opacity="0.1" d="M142.788 97.012H133.82V98.9037H142.788V97.012Z" fill="black"/>
<path opacity="0.1" d="M141.667 97.2484H134.941V98.6672H141.667V97.2484Z" fill="black"/>
<path d="M122.963 77.3854H93.4615V93.7014H122.963V77.3854Z" fill="#65617D"/>
<path opacity="0.1" d="M112.815 80.223H103.846V82.1147H112.815V80.223Z" fill="black"/>
<path opacity="0.1" d="M111.694 80.4595H104.967V81.8783H111.694V80.4595Z" fill="black"/>
<path d="M152.937 77.3854H123.435V93.7014H152.937V77.3854Z" fill="#65617D"/>
<path opacity="0.1" d="M142.788 80.223H133.82V82.1147H142.788V80.223Z" fill="black"/>
<path opacity="0.1" d="M141.667 80.4595H134.941V81.8783H141.667V80.4595Z" fill="black"/>
<path d="M122.963 60.36H93.4615V76.6761H122.963V60.36Z" fill="#65617D"/>
<path opacity="0.1" d="M112.815 63.1975H103.846V65.0892H112.815V63.1975Z" fill="black"/>
<path opacity="0.1" d="M111.694 63.434H104.967V64.8527H111.694V63.434Z" fill="black"/>
<path d="M152.937 60.36H123.435V76.6761H152.937V60.36Z" fill="#65617D"/>
<path opacity="0.1" d="M142.788 63.1975H133.82V65.0892H142.788V63.1975Z" fill="black"/>
<path opacity="0.1" d="M141.667 63.434H134.941V64.8527H141.667V63.434Z" fill="black"/>
<path d="M152.937 43.3345H123.435V59.6505H152.937V43.3345Z" fill="#65617D"/>
<path opacity="0.1" d="M142.788 46.172H133.82V48.0637H142.788V46.172Z" fill="black"/>
<path opacity="0.1" d="M141.667 46.4086H134.941V47.8274H141.667V46.4086Z" fill="black"/>
</g>
<path opacity="0.1" d="M207.289 0.0260465C207.289 0.0260465 187.419 -1.1752 189.755 12.7762C189.755 12.7762 189.283 15.2425 191.521 16.361C191.521 16.361 191.556 15.3277 193.56 15.68C194.273 15.7985 194.998 15.8334 195.719 15.7841C196.694 15.7166 197.62 15.3331 198.358 14.6916C198.358 14.6916 203.944 12.379 206.116 3.23251C206.116 3.23251 207.723 1.23675 207.659 0.723617L204.305 2.15896C204.305 2.15896 205.453 4.58272 204.542 6.5974C204.542 6.5974 204.433 2.24645 203.789 2.34104C203.659 2.36232 202.047 3.18049 202.047 3.18049C202.047 3.18049 204.018 7.40138 202.531 10.4707C202.531 10.4707 203.095 5.26847 201.431 3.48552L199.071 4.86648C199.071 4.86648 201.374 9.22689 199.812 12.7857C199.812 12.7857 200.213 7.32808 198.573 5.20226L196.434 6.87406C196.434 6.87406 198.599 11.173 197.279 14.1241C197.279 14.1241 197.107 7.77027 195.972 7.29024C195.972 7.29024 194.1 8.94549 193.815 9.62178C193.815 9.62178 195.297 12.7431 194.376 14.3889C194.376 14.3889 193.812 10.1562 193.35 10.1325C193.35 10.1325 191.485 12.937 191.292 14.8618C191.292 14.8618 191.372 12.0006 192.899 9.86534C192.899 9.86534 191.096 10.1751 190.043 11.348C190.043 11.348 190.333 9.36404 193.359 9.19142C193.359 9.19142 194.9 7.06324 195.311 6.93318C195.311 6.93318 192.304 6.68253 190.48 7.49124C190.48 7.49124 192.085 5.6208 195.863 6.47208L197.976 4.74352C197.976 4.74352 194.015 4.20201 192.335 4.80027C192.335 4.80027 194.268 3.14502 198.544 4.35335L200.848 2.98658C200.848 2.98658 197.471 2.25827 195.46 2.51365C195.46 2.51365 197.584 1.3668 201.523 2.61061L203.175 1.87047C203.175 1.87047 200.702 1.38335 199.977 1.30532C199.252 1.22729 199.215 1.02866 199.215 1.02866C200.782 0.766855 202.39 0.946134 203.862 1.54651C203.862 1.54651 207.35 0.245959 207.289 0.0260465Z" fill="#0059FC"/>
<path opacity="0.1" d="M182.781 3.57537C182.781 3.57537 173.812 3.0315 174.863 9.33801C174.863 9.33801 174.653 10.4518 175.658 10.9578C175.658 10.9578 175.675 10.4849 176.581 10.648C176.903 10.7023 177.23 10.7182 177.556 10.6953C177.996 10.6653 178.415 10.4918 178.748 10.2011C178.748 10.2011 181.273 9.1583 182.255 5.02489C182.255 5.02489 182.979 4.1216 182.951 3.88987L181.436 4.53778C181.436 4.53778 181.955 5.63497 181.547 6.54536C181.547 6.54536 181.497 4.57798 181.207 4.62527C181.148 4.62527 180.419 5.00361 180.419 5.00361C180.419 5.00361 181.311 6.91188 180.638 8.29993C180.638 8.29993 180.893 5.94947 180.14 5.14313L179.073 5.76739C179.073 5.76739 180.116 7.73714 179.408 9.34511C179.408 9.34511 179.59 6.87878 178.849 5.91873L177.884 6.67305C177.884 6.67305 178.861 8.61679 178.266 9.95045C178.266 9.95045 178.188 7.07741 177.674 6.86223C177.674 6.86223 176.829 7.60946 176.699 7.91686C176.699 7.91686 177.369 9.33565 176.954 10.0687C176.954 10.0687 176.699 8.15569 176.482 8.14859C176.482 8.14859 175.642 9.41605 175.552 10.2768C175.594 9.47349 175.845 8.6951 176.279 8.01854C175.793 8.11081 175.344 8.34341 174.988 8.68773C174.988 8.68773 175.12 7.7939 176.487 7.7135C176.487 7.7135 177.195 6.75345 177.369 6.69433C177.369 6.69433 176.01 6.58083 175.186 6.94735C175.186 6.94735 175.911 6.10081 177.619 6.48625L178.563 5.70591C178.563 5.70591 176.774 5.46945 176.015 5.73192C176.015 5.73192 176.888 4.9847 178.821 5.52857L179.859 4.90666C179.859 4.90666 178.335 4.57561 177.424 4.69621C177.424 4.69621 178.384 4.17599 180.164 4.73877L180.907 4.40536C180.907 4.40536 179.788 4.18308 179.46 4.14998C179.132 4.11687 179.116 4.02465 179.116 4.02465C179.824 3.90656 180.552 3.98844 181.216 4.26111C181.216 4.26111 182.809 3.67468 182.781 3.57537Z" fill="#0059FC"/>
<path d="M52.912 152.463C58.1532 152.463 62.4021 151.743 62.4021 150.855C62.4021 149.967 58.1532 149.247 52.912 149.247C47.6707 149.247 43.4219 149.967 43.4219 150.855C43.4219 151.743 47.6707 152.463 52.912 152.463Z" fill="#0059FC"/>
<path d="M56.8369 148.225C57.2702 147.872 57.5855 147.394 57.7408 146.856C57.8588 146.315 57.6275 145.674 57.1083 145.464C56.5277 145.241 55.907 145.646 55.4373 146.052C54.9677 146.459 54.4272 146.925 53.8135 146.837C54.1298 146.55 54.3664 146.185 54.5003 145.778C54.6343 145.372 54.6612 144.938 54.5782 144.518C54.5514 144.344 54.478 144.18 54.3658 144.045C54.0425 143.7 53.4595 143.846 53.0725 144.118C51.8452 144.984 51.503 146.655 51.4959 148.157C51.3732 147.615 51.477 147.05 51.4746 146.502C51.4723 145.953 51.3189 145.319 50.8492 145.028C50.5596 144.872 50.2339 144.796 49.9052 144.806C49.3552 144.785 48.7392 144.842 48.364 145.246C47.892 145.747 48.017 146.589 48.423 147.138C48.8289 147.686 49.4496 148.039 50.0208 148.419C50.4777 148.692 50.8673 149.065 51.1607 149.509C51.1961 149.572 51.2246 149.637 51.2457 149.706H54.7057C55.4795 149.311 56.1964 148.813 56.8369 148.225Z" fill="#0059FC"/>
<path d="M169.307 80.8733C169.288 80.6942 169.224 80.5228 169.121 80.3749C169.018 80.227 168.88 80.1073 168.719 80.0268C168.584 79.9689 168.438 79.939 168.291 79.9387C168.144 79.9385 167.998 79.9679 167.862 80.0253C167.727 80.0826 167.604 80.1668 167.501 80.2726C167.399 80.3785 167.319 80.504 167.265 80.6416L162.024 91.6916L160.844 135.201H162.732L163.44 91.7885L169.208 81.5591C169.312 81.3467 169.347 81.1066 169.307 80.8733Z" fill="#3F3D56"/>
<path opacity="0.1" d="M253.847 145.029C252.301 146.383 250.636 147.594 248.872 148.649C248.845 148.688 248.814 148.724 248.78 148.758C248.593 148.917 248.37 149.029 248.131 149.084C242.282 152.35 235.69 154.046 228.995 154.007H99.2297C84.3608 152.475 75.2885 150.444 75.2885 148.214C75.2885 146.485 80.7357 144.875 90.1149 143.527C91.0872 143.385 92.1013 143.248 93.1571 143.116C93.8069 143.034 94.4717 142.955 95.1514 142.879L96.3055 142.744C97.1614 142.647 98.0402 142.551 98.9418 142.458H99.0149L99.959 142.364C100.757 142.281 101.571 142.203 102.402 142.127L103.006 142.073L104.547 141.936C105.548 141.846 106.571 141.76 107.615 141.678C108.482 141.61 109.363 141.542 110.259 141.474C119.336 140.801 129.801 140.292 141.188 139.963L144.441 139.852L145.536 139.829L147.849 139.777L148.776 139.758L149.751 139.739L150.445 139.727L153.702 139.675L155.375 139.651H155.717C159.674 139.604 163.706 139.58 167.811 139.578C175.925 139.578 183.794 139.675 191.292 139.859C195.597 139.963 199.77 140.096 203.812 140.257H203.85C215.504 140.715 225.936 141.392 234.57 142.231L234.728 142.248C236.944 142.463 239.042 142.692 241.01 142.929C242.863 143.151 244.603 143.385 246.217 143.624C246.776 143.707 247.319 143.792 247.848 143.875L247.982 143.898C250.22 144.26 252.183 144.629 253.847 145.029Z" fill="#0059FC"/>
<path d="M248.872 148.649C248.845 148.688 248.814 148.724 248.78 148.758C248.593 148.917 248.37 149.029 248.131 149.084C247.654 149.218 247.163 149.297 246.668 149.32H246.519C246.236 149.33 245.953 149.32 245.672 149.292C245.466 149.262 245.259 149.249 245.051 149.252H245.023C244.721 149.294 244.424 149.368 244.138 149.472C243.499 149.647 242.841 149.741 242.179 149.751H241.943C241.202 149.751 240.451 149.725 239.708 149.729C239.587 149.729 239.472 149.729 239.347 149.729C238.072 149.763 236.805 149.966 235.53 149.987H235.122C233.873 149.956 232.597 149.689 231.603 148.933C231.403 148.8 231.24 148.617 231.131 148.403C231.046 148.177 231.018 147.933 231.048 147.694C231.072 147.266 231.155 146.8 231.475 146.511C231.677 146.356 231.909 146.244 232.155 146.183C232.587 146.043 233.021 145.908 233.453 145.773C233.885 145.639 234.378 145.494 234.843 145.357L234.933 145.329L235.193 145.251L235.36 145.194C235.563 145.129 235.758 145.04 235.941 144.929C236.182 144.777 236.386 144.572 236.538 144.331C236.564 144.288 236.592 144.243 236.616 144.199C236.639 144.154 236.616 144.125 236.599 144.087C236.559 143.792 236.529 143.489 236.477 143.201C235.812 143.046 235.207 142.703 234.732 142.212C234.325 141.808 233.982 141.343 233.715 140.834C233.128 139.727 232.825 138.49 232.386 137.315C231.714 135.527 230.734 133.877 229.748 132.241C228.846 130.732 227.94 129.219 226.916 127.793C226.234 126.847 225.5 125.946 224.825 124.998C222.915 122.352 221.545 119.354 220.793 116.177C220.678 115.568 220.515 114.969 220.305 114.385C219.899 113.392 219.156 112.583 218.58 111.675C217.961 110.696 217.537 109.607 217.331 108.466C217.213 107.818 217.015 107.119 216.371 107.048L216.302 107.182C214.966 109.783 213.595 112.432 211.582 114.555C211.26 114.868 210.965 115.207 210.702 115.57C210.49 115.922 210.301 116.286 210.135 116.662C209.816 117.337 209.393 117.957 208.882 118.5C208.73 118.654 208.564 118.794 208.386 118.918C208.15 119.09 207.888 119.222 207.61 119.308C207.5 119.342 207.388 119.367 207.275 119.384C207.275 119.412 207.286 119.438 207.289 119.467C207.291 119.495 207.303 119.528 207.308 119.559C207.655 121.451 207.506 123.401 206.876 125.218C206.859 125.274 206.84 125.329 206.819 125.385C206.722 125.65 206.615 125.91 206.5 126.166C206.213 126.792 205.87 127.393 205.601 128.029C205.556 128.138 205.512 128.247 205.471 128.355C204.527 130.888 204.763 133.716 204.641 136.438C204.63 137.033 204.559 137.625 204.431 138.207C204.27 138.862 204.013 139.538 203.871 140.214C203.742 140.721 203.732 141.251 203.841 141.763L203.784 141.784C203.531 141.879 203.274 141.964 203.017 142.044V142.08C203.109 142.61 203.199 143.139 203.291 143.667C203.369 144.121 203.461 144.612 203.777 144.934C203.863 145.005 203.942 145.084 204.013 145.17C204.199 145.464 204.034 145.851 204.07 146.199C204.121 146.691 204.575 147.109 204.504 147.599C204.472 147.745 204.405 147.881 204.309 147.996C204.213 148.111 204.09 148.2 203.952 148.256C203.835 148.309 203.713 148.348 203.588 148.372L203.51 148.389C203.369 148.415 203.227 148.429 203.085 148.443C201.327 148.618 199.545 148.793 197.803 148.495C197.459 148.436 197.117 148.358 196.767 148.33C196.326 148.31 195.884 148.328 195.446 148.384C192.214 148.69 188.965 148.754 185.724 148.573C184.882 148.526 183.914 148.389 183.468 147.667C183.097 147.069 183.232 146.296 183.418 145.613C183.472 145.361 183.568 145.121 183.704 144.903C183.719 144.88 183.737 144.857 183.756 144.837C184.19 144.296 185.007 144.262 185.71 144.284L188.009 144.352C188.235 144.371 188.463 144.353 188.684 144.3C189.057 144.191 189.34 143.894 189.689 143.726C190.128 143.515 190.68 143.489 190.997 143.13L191.037 143.078C191.093 143.002 191.145 142.923 191.193 142.841C191.193 142.825 191.214 142.808 191.226 142.792C191.234 142.777 191.244 142.763 191.254 142.749C191.544 142.366 192.052 142.238 192.465 141.995C192.527 141.958 192.586 141.916 192.642 141.869L192.689 141.827C192.244 141.509 191.856 141.118 191.542 140.671C191.421 140.54 191.331 140.383 191.28 140.212C191.251 140.083 191.261 139.949 191.308 139.826C191.318 139.796 191.331 139.767 191.346 139.739L191.358 139.715C191.518 139.398 191.849 139.112 192.03 138.788C192.037 138.778 192.043 138.767 192.047 138.755C192.297 138.282 192.347 137.549 191.976 137.168C192.165 134.054 193.019 131.02 193.208 127.897C193.284 126.66 193.253 125.419 193.31 124.177C193.366 122.936 193.498 121.732 193.638 120.514C193.949 117.731 194.705 115.005 194.598 112.21C194.589 111.949 194.6 111.688 194.631 111.429C194.63 111.41 194.63 111.391 194.631 111.373C194.707 110.8 194.885 110.245 195.158 109.736C195.5 109.161 195.887 108.614 196.316 108.1C197.768 106.208 199.512 104.316 200.029 101.99C200.296 100.788 200.886 99.6888 201.473 98.6082C201.82 97.965 202.181 97.3052 202.736 96.8323C203.036 96.6239 203.315 96.3863 203.569 96.1229C203.956 95.6216 203.97 94.9288 204.199 94.3329C204.317 94.0231 204.499 93.7394 204.589 93.4201C204.589 93.387 204.605 93.3563 204.612 93.3232C204.665 93.001 204.692 92.6753 204.695 92.3489C204.695 92.2544 204.709 92.1621 204.721 92.0699C204.859 91.1351 205.13 90.2249 205.526 89.3671C205.575 89.2584 205.623 89.1472 205.67 89.0384C204.581 88.402 203.62 87.5671 202.838 86.5768C202.572 86.2565 202.342 85.9084 202.151 85.5388C201.665 84.5716 201.554 83.4697 201.325 82.4103C200.777 79.8849 199.524 77.5061 199.349 74.9239C199.297 74.1364 199.349 73.323 199.075 72.5781C199 72.3768 198.911 72.1808 198.809 71.9917C198.766 71.9113 198.726 71.8309 198.684 71.7552L198.636 71.6654L198.516 71.4289L198.323 71.5803C193.494 75.3682 188.425 78.8374 183.147 81.9658L182.694 82.2354C182.458 82.3494 182.252 82.518 182.094 82.7272C182.075 82.7579 182.059 82.7887 182.042 82.8194C181.934 83.0441 181.905 83.2924 181.806 83.5288C181.594 84.0703 181.049 84.4156 180.492 84.5764C179.484 84.836 178.415 84.698 177.506 84.1909C177.391 84.1318 177.27 84.0703 177.166 84.0017C176.89 84.155 176.599 84.2794 176.298 84.373C175.354 84.6473 174.365 84.6355 173.388 84.6331C172.411 84.6307 171.412 84.6331 170.487 84.9547C169.869 85.1652 169.269 85.5128 168.627 85.5459C168.553 85.5506 168.479 85.5506 168.405 85.5459C168.039 85.5038 167.683 85.399 167.353 85.2361L167.159 85.1486C167.059 85.101 166.961 85.0481 166.867 84.9902C166.763 84.9263 166.668 84.8509 166.581 84.7655C166.456 84.6399 166.365 84.4845 166.317 84.3139C166.285 84.1906 166.285 84.0612 166.317 83.9379C166.326 83.8826 166.354 83.8323 166.397 83.796C166.439 83.7711 166.487 83.7588 166.536 83.7606C166.807 83.7576 167.077 83.7806 167.343 83.8291C167.5 83.8506 167.658 83.8593 167.815 83.8551H167.9C168.04 83.8402 168.174 83.7968 168.296 83.7276C168.418 83.6585 168.524 83.5651 168.608 83.4532C168.634 83.4185 168.655 83.3803 168.67 83.3396C168.698 83.2732 168.713 83.2015 168.712 83.1292C168.714 83.1111 168.714 83.0929 168.712 83.0748C168.613 83.0299 168.514 82.9849 168.42 82.9306C168.37 82.9045 168.323 82.8762 168.276 82.8478L168.247 82.8289C168.163 82.7711 168.084 82.7054 168.011 82.6326C167.965 82.5871 167.925 82.5363 167.891 82.4813C167.828 82.3956 167.781 82.2996 167.752 82.1975C167.557 82.1568 167.356 82.1625 167.164 82.2141C166.907 82.285 166.647 82.4363 166.392 82.4884C166.264 82.5208 166.128 82.515 166.003 82.4718C165.635 82.3394 165.505 81.8901 165.427 81.5047C165.413 81.4314 165.396 81.3557 165.384 81.28C165.357 81.1347 165.357 80.9856 165.384 80.8402C165.499 80.5098 165.716 80.2253 166.005 80.0291L166.779 79.3789L166.836 79.3316C166.836 79.2677 166.81 79.2039 166.801 79.14C166.773 78.9939 166.773 78.844 166.801 78.6978C166.915 78.3681 167.132 78.0843 167.421 77.8891L169.135 76.4443C169.456 76.1748 169.805 75.891 170.223 75.8626C170.843 75.8201 171.339 76.3356 171.804 76.7494C172.389 77.2696 173.1 77.6952 173.881 77.7473C174.253 77.7643 174.625 77.713 174.978 77.5959L175.179 77.5297C175.137 77.4422 175.094 77.3547 175.054 77.2672C174.986 77.123 174.917 76.9764 174.851 76.8298C175.856 76.7659 176.77 76.2126 177.532 75.5505C178.294 74.8884 178.948 74.1057 179.718 73.4554C180.548 72.746 181.502 72.2187 182.344 71.5353C184.303 69.9439 185.604 67.6053 187.7 66.203C188.427 65.7136 189.267 65.3234 189.762 64.5951C189.916 64.3586 190.031 64.1222 190.19 63.8857C190.692 63.1763 191.554 62.85 192.264 62.3581C192.975 61.8663 193.593 61.1451 194.171 60.4522C194.582 59.958 194.995 59.4638 195.387 58.9554C195.748 58.2815 196.052 57.5768 196.43 56.9124C196.75 56.351 197.124 55.822 197.546 55.3328C197.643 55.1436 197.742 54.9544 197.848 54.77C197.954 54.5855 198.032 54.4602 198.131 54.2971C198.2 54.1906 198.271 54.089 198.344 53.9849C198.129 53.6042 197.924 53.2755 197.827 53.1313L197.78 53.0674C197.572 52.8452 197.349 52.6367 197.114 52.4432C196.867 52.4057 196.623 52.3536 196.383 52.2871C194.926 51.8871 193.641 51.0184 192.726 49.8147C191.811 48.611 191.316 47.1391 191.318 45.6259C191.317 45.6189 191.317 45.6117 191.318 45.6046C191.319 44.5209 191.576 43.4529 192.068 42.488C192.167 42.2941 192.274 42.1073 192.389 41.9252C192.281 41.8911 192.176 41.8484 192.075 41.7975C191.903 41.7125 191.753 41.5887 191.636 41.4357C191.54 41.2995 191.478 41.1422 191.455 40.977C191.415 40.5873 191.473 40.1937 191.625 39.8325C191.689 39.6586 191.762 39.4881 191.844 39.3217C191.85 39.312 191.856 39.3017 191.861 39.291C192.916 37.1628 195.165 35.8552 197.412 35.7629C199.835 35.666 202.196 36.8058 204.107 38.4374C204.678 38.9063 205.188 39.444 205.627 40.0382C206.626 41.4286 207.076 43.2069 207.209 44.9685C207.258 45.5134 207.249 46.062 207.18 46.6049C207.155 46.7983 207.116 46.9896 207.062 47.1771C207.032 47.2882 206.991 47.3994 206.949 47.5105C206.906 47.6217 206.88 47.6713 206.843 47.747V47.7588C206.807 47.8345 206.767 47.9054 206.727 47.9764L206.706 48.0071L206.675 48.0568C206.694 48.1017 206.715 48.149 206.736 48.1939C206.758 48.2388 206.777 48.2814 206.8 48.324H206.829C207.301 48.3618 207.737 48.428 208.219 48.4658C208.445 48.4766 208.67 48.5115 208.889 48.5699C209.361 48.7118 209.717 49.057 210.114 49.336C211.096 50.0312 212.304 50.3552 213.269 51.074C214.685 52.1334 215.393 53.8832 216.253 55.451C217.385 57.5508 219.231 59.3385 220.045 61.5849C220.414 62.6048 220.783 63.6232 221.155 64.64C221.879 66.6334 222.604 68.6363 223.588 70.5162C224.957 73.1315 226.809 75.4819 227.907 78.2296C228.016 78.505 228.22 78.7317 228.483 78.8681C229.978 80.9839 231.308 83.2125 232.46 85.534C233.066 86.7613 233.64 88.0358 233.817 89.3955C233.955 90.6061 233.855 91.832 233.522 93.004C233.334 93.7002 233.103 94.3841 232.83 95.0518C232.724 95.2855 232.645 95.5307 232.594 95.7824C232.594 95.8084 232.594 95.8344 232.594 95.8605C232.547 96.3145 232.719 96.7637 232.766 97.2178C232.806 97.5832 232.765 97.9529 232.646 98.3008C232.627 98.3552 232.606 98.4095 232.585 98.4639C232.438 98.7404 232.314 99.0282 232.214 99.3247C232.206 99.3605 232.199 99.3968 232.195 99.4334C232.117 99.9466 232.32 100.464 232.431 100.978C232.847 102.831 232.771 104.761 232.667 106.653C232.613 107.599 233.375 108.358 234.013 109.055C235.193 110.363 236.116 111.893 237.005 113.416C237.491 114.189 237.9 115.008 238.225 115.861C238.563 116.835 238.698 117.866 238.884 118.876C239.486 121.997 241.452 124.754 241.985 127.882C242.233 129.315 242.863 130.654 243.81 131.756C244.095 132.051 244.357 132.367 244.595 132.702C244.76 132.968 244.891 133.254 244.985 133.553C245.217 134.248 245.326 134.979 245.308 135.712C245.271 136.063 245.291 136.417 245.367 136.762C245.589 137.488 246.382 137.887 246.71 138.571C247.038 139.254 246.812 140.129 246.946 140.905C247.052 141.53 247.389 142.092 247.89 142.479C247.701 142.645 247.503 142.796 247.3 142.952C247.488 143.099 247.653 143.272 247.789 143.468C247.882 143.599 247.961 143.739 248.025 143.886C248.336 144.612 248.346 145.475 248.601 146.251C248.709 146.573 248.863 146.913 248.768 147.239C248.728 147.333 248.701 147.432 248.688 147.533C248.688 147.746 248.91 147.885 248.995 148.079C249.026 148.176 249.031 148.28 249.009 148.38C248.988 148.48 248.94 148.573 248.872 148.649Z" fill="url(#paint0_linear_21_6647)"/>
<path d="M198.922 56.4276C200.366 56.0374 201.653 55.2216 202.913 54.4153L207.305 51.6132C206.113 51.5186 205.084 50.6673 204.473 49.6363C203.862 48.6054 203.609 47.4065 203.402 46.2289C201.513 46.9667 199.878 48.2176 198.353 49.5394C197.749 50.062 196.465 50.8518 196.279 51.6676C196.092 52.4834 197.282 53.1455 197.742 53.6917C197.9 53.8738 199.389 56.2976 198.922 56.4276Z" fill="#FBBEBE"/>
<path opacity="0.1" d="M198.922 56.4276C200.366 56.0374 201.653 55.2216 202.913 54.4153L207.305 51.6132C206.113 51.5186 205.084 50.6673 204.473 49.6363C203.862 48.6054 203.609 47.4065 203.402 46.2289C201.513 46.9667 199.878 48.2176 198.353 49.5394C197.749 50.062 196.465 50.8518 196.279 51.6676C196.092 52.4834 197.282 53.1455 197.742 53.6917C197.9 53.8738 199.389 56.2976 198.922 56.4276Z" fill="black"/>
<path d="M174.922 79.5728C174.148 79.97 173.324 80.3767 172.458 80.32C171.679 80.2703 170.968 79.8471 170.383 79.3292C169.911 78.9178 169.425 78.4046 168.804 78.4472C168.389 78.4756 168.04 78.757 167.719 79.0242L166.007 80.4595C165.719 80.6535 165.502 80.9355 165.387 81.2635C165.353 81.4861 165.367 81.7134 165.427 81.9303C165.505 82.3134 165.635 82.7603 166.003 82.8904C166.371 83.0204 166.772 82.7414 167.162 82.635C167.399 82.574 167.649 82.5786 167.885 82.6481C168.12 82.7176 168.333 82.8495 168.5 83.0299C168.639 83.1669 168.723 83.3503 168.736 83.5454C168.736 83.9734 168.264 84.2548 167.829 84.276C167.395 84.2973 166.98 84.1554 166.55 84.1815C166.524 84.1782 166.498 84.1801 166.473 84.1872C166.448 84.1942 166.424 84.2063 166.404 84.2226C166.383 84.2389 166.366 84.2591 166.354 84.2821C166.341 84.3051 166.333 84.3304 166.331 84.3564C166.304 84.5058 166.315 84.6595 166.364 84.8033C166.412 84.9471 166.496 85.0764 166.607 85.1793C166.831 85.3844 167.092 85.5449 167.376 85.6523C167.706 85.8158 168.063 85.9199 168.429 85.9597C169.154 86.007 169.819 85.605 170.506 85.3709C171.431 85.0587 172.427 85.0493 173.404 85.0516C174.381 85.054 175.372 85.0682 176.309 84.7939C177.246 84.5196 178.136 83.9119 178.502 83.0062C178.545 82.9217 178.559 82.8253 178.542 82.7319C178.506 82.6323 178.436 82.5487 178.344 82.4955C177.027 81.5189 176.494 80.3318 175.011 79.6295L174.922 79.5728Z" fill="#FBBEBE"/>
<path opacity="0.1" d="M174.922 79.5728C174.148 79.97 173.324 80.3767 172.458 80.32C171.679 80.2703 170.968 79.8471 170.383 79.3292C169.911 78.9178 169.425 78.4046 168.804 78.4472C168.389 78.4756 168.04 78.757 167.719 79.0242L166.007 80.4595C165.719 80.6535 165.502 80.9355 165.387 81.2635C165.353 81.4861 165.367 81.7134 165.427 81.9303C165.505 82.3134 165.635 82.7603 166.003 82.8904C166.371 83.0204 166.772 82.7414 167.162 82.635C167.399 82.574 167.649 82.5786 167.885 82.6481C168.12 82.7176 168.333 82.8495 168.5 83.0299C168.639 83.1669 168.723 83.3503 168.736 83.5454C168.736 83.9734 168.264 84.2548 167.829 84.276C167.395 84.2973 166.98 84.1554 166.55 84.1815C166.524 84.1782 166.498 84.1801 166.473 84.1872C166.448 84.1942 166.424 84.2063 166.404 84.2226C166.383 84.2389 166.366 84.2591 166.354 84.2821C166.341 84.3051 166.333 84.3304 166.331 84.3564C166.304 84.5058 166.315 84.6595 166.364 84.8033C166.412 84.9471 166.496 85.0764 166.607 85.1793C166.831 85.3844 167.092 85.5449 167.376 85.6523C167.706 85.8158 168.063 85.9199 168.429 85.9597C169.154 86.007 169.819 85.605 170.506 85.3709C171.431 85.0587 172.427 85.0493 173.404 85.0516C174.381 85.054 175.372 85.0682 176.309 84.7939C177.246 84.5196 178.136 83.9119 178.502 83.0062C178.545 82.9217 178.559 82.8253 178.542 82.7319C178.506 82.6323 178.436 82.5487 178.344 82.4955C177.027 81.5189 176.494 80.3318 175.011 79.6295L174.922 79.5728Z" fill="black"/>
<path d="M202.559 54.3537C202.193 54.1169 201.777 53.9676 201.344 53.9172C200.911 53.8667 200.473 53.9166 200.062 54.0629C199.24 54.3596 198.502 54.8522 197.912 55.4982C197.323 56.1 196.813 56.7747 196.394 57.5058C195.993 58.2152 195.686 58.9577 195.285 59.6647C194.577 60.9298 193.652 62.0459 192.722 63.1526C192.144 63.8407 191.558 64.5383 190.817 65.0443C190.076 65.5503 189.248 65.8601 188.745 66.5624C188.587 66.7847 188.474 67.0353 188.318 67.26C187.825 67.9836 186.987 68.3714 186.257 68.8561C184.166 70.2513 182.866 72.5733 180.912 74.1553C180.069 74.8363 179.118 75.3707 178.29 76.0659C177.518 76.7115 176.874 77.4847 176.104 78.1468C175.335 78.8089 174.431 79.3551 173.428 79.4166C174.098 80.9135 174.898 82.3819 176.047 83.5477C177.197 84.7134 178.92 85.4583 180.489 85.0019C181.046 84.8411 181.591 84.5006 181.804 83.9615C181.871 83.6844 181.964 83.4144 182.082 83.1551C182.24 82.947 182.445 82.7793 182.679 82.6657C188.98 78.9809 194.986 74.8122 200.643 70.1969C202.16 68.9578 203.666 67.8488 205.224 66.6499C205.782 66.253 206.298 65.7998 206.765 65.2973C207.414 64.5201 207.82 63.5677 207.931 62.5601C208.042 61.5524 207.853 60.5343 207.388 59.634C206.97 58.9452 206.491 58.2954 205.958 57.6926C204.986 56.4257 203.842 55.3018 202.559 54.3537Z" fill="#0059FC"/>
<path opacity="0.1" d="M202.559 54.3537C202.193 54.1169 201.777 53.9676 201.344 53.9172C200.911 53.8667 200.473 53.9166 200.062 54.0629C199.24 54.3596 198.502 54.8522 197.912 55.4982C197.323 56.1 196.813 56.7747 196.394 57.5058C195.993 58.2152 195.686 58.9577 195.285 59.6647C194.577 60.9298 193.652 62.0459 192.722 63.1526C192.144 63.8407 191.558 64.5383 190.817 65.0443C190.076 65.5503 189.248 65.8601 188.745 66.5624C188.587 66.7847 188.474 67.0353 188.318 67.26C187.825 67.9836 186.987 68.3714 186.257 68.8561C184.166 70.2513 182.866 72.5733 180.912 74.1553C180.069 74.8363 179.118 75.3707 178.29 76.0659C177.518 76.7115 176.874 77.4847 176.104 78.1468C175.335 78.8089 174.431 79.3551 173.428 79.4166C174.098 80.9135 174.898 82.3819 176.047 83.5477C177.197 84.7134 178.92 85.4583 180.489 85.0019C181.046 84.8411 181.591 84.5006 181.804 83.9615C181.871 83.6844 181.964 83.4144 182.082 83.1551C182.24 82.947 182.445 82.7793 182.679 82.6657C188.98 78.9809 194.986 74.8122 200.643 70.1969C202.16 68.9578 203.666 67.8488 205.224 66.6499C205.782 66.253 206.298 65.7998 206.765 65.2973C207.414 64.5201 207.82 63.5677 207.931 62.5601C208.042 61.5524 207.853 60.5343 207.388 59.634C206.97 58.9452 206.491 58.2954 205.958 57.6926C204.986 56.4257 203.842 55.3018 202.559 54.3537Z" fill="black"/>
<path d="M192.417 142.075C192.004 142.312 191.497 142.444 191.207 142.827C191.112 142.95 191.049 143.094 190.947 143.212C190.633 143.581 190.076 143.598 189.64 143.808C189.29 143.974 189.007 144.281 188.637 144.378C188.415 144.431 188.186 144.449 187.959 144.43L185.665 144.362C184.938 144.34 184.086 144.378 183.664 144.972C183.526 145.189 183.429 145.429 183.376 145.681C183.199 146.36 183.055 147.128 183.425 147.724C183.869 148.434 184.841 148.578 185.679 148.625C188.916 148.805 192.162 148.741 195.389 148.436C195.825 148.38 196.266 148.362 196.706 148.382C197.055 148.41 197.397 148.488 197.742 148.547C199.481 148.843 201.261 148.67 203.017 148.495C203.314 148.481 203.606 148.419 203.883 148.311C204.021 148.254 204.143 148.165 204.239 148.051C204.334 147.937 204.401 147.801 204.433 147.656C204.506 147.169 204.051 146.755 204.001 146.265C203.966 145.92 204.131 145.535 203.942 145.241C203.871 145.155 203.792 145.076 203.706 145.005C203.39 144.676 203.298 144.196 203.22 143.747L202.807 141.318C202.795 141.147 202.725 140.985 202.609 140.86C202.522 140.797 202.422 140.756 202.316 140.739C200.517 140.332 198.674 140.704 196.888 140.931C195.968 141.066 195.038 141.112 194.11 141.07C193.708 141.044 193.553 140.997 193.253 141.259C192.953 141.522 192.793 141.855 192.417 142.075Z" fill="#3F3D56"/>
<path d="M235.846 144.998C235.531 145.175 235.192 145.307 234.841 145.393C233.914 145.664 232.989 145.947 232.065 146.242C231.82 146.302 231.589 146.414 231.388 146.568C231.067 146.852 230.985 147.315 230.961 147.75C230.93 147.99 230.959 148.233 231.044 148.46C231.154 148.672 231.317 148.852 231.516 148.985C232.573 149.786 233.954 150.034 235.28 150.034C236.606 150.034 237.923 149.81 239.25 149.774C240.852 149.732 242.497 149.959 244.038 149.509C244.333 149.401 244.638 149.326 244.949 149.287C245.156 149.284 245.363 149.297 245.568 149.327C246.394 149.409 247.229 149.333 248.027 149.103C248.267 149.049 248.491 148.938 248.678 148.779C248.771 148.698 248.838 148.591 248.869 148.472C248.9 148.353 248.895 148.228 248.853 148.112C248.768 147.92 248.551 147.781 248.549 147.57C248.56 147.469 248.586 147.371 248.627 147.277C248.723 146.953 248.568 146.615 248.459 146.296C248.155 145.383 248.204 144.333 247.659 143.541C247.114 142.749 246.113 142.423 245.162 142.297C244.389 142.188 243.603 142.21 242.837 142.364C241.976 142.548 241.171 142.933 240.326 143.179C239.345 143.462 238.321 143.559 237.305 143.465C236.63 143.409 236.861 143.515 236.632 144.083C236.47 144.461 236.196 144.78 235.846 144.998Z" fill="#3F3D56"/>
<path d="M198.134 53.1478C201.914 53.1478 204.978 50.0776 204.978 46.2903C204.978 42.5031 201.914 39.4329 198.134 39.4329C194.354 39.4329 191.289 42.5031 191.289 46.2903C191.289 50.0776 194.354 53.1478 198.134 53.1478Z" fill="#FBBEBE"/>
<path d="M247.753 142.546C245.629 144.374 242.762 145.173 239.965 145.201C238.785 145.213 237.56 145.085 236.555 144.473C236.484 144.085 236.455 143.667 236.385 143.279C235.164 143.023 234.218 142.028 233.628 140.926C233.038 139.824 232.738 138.599 232.299 137.431C231.629 135.653 230.647 134.014 229.665 132.387C228.764 130.888 227.86 129.384 226.833 127.968C226.153 127.022 225.417 126.133 224.744 125.189C222.839 122.563 221.471 119.584 220.72 116.426C220.606 115.82 220.442 115.225 220.232 114.645C219.826 113.657 219.082 112.853 218.509 111.952C217.89 110.98 217.466 109.896 217.26 108.762C217.145 108.119 216.946 107.424 216.302 107.357C214.947 109.994 213.567 112.673 211.518 114.818C211.196 115.127 210.902 115.465 210.638 115.825C210.426 116.175 210.237 116.539 210.071 116.913C209.754 117.584 209.331 118.2 208.821 118.738C208.392 119.197 207.828 119.506 207.211 119.618C207.666 121.89 207.395 124.248 206.437 126.357C206.151 126.982 205.809 127.577 205.54 128.209C204.44 130.81 204.695 133.744 204.579 136.565C204.569 137.157 204.5 137.745 204.372 138.322C204.086 139.476 203.496 140.704 203.782 141.858C200.822 142.99 197.534 142.919 194.4 142.442C193.787 142.385 193.192 142.204 192.651 141.91C192.207 141.594 191.819 141.206 191.504 140.76C191.383 140.631 191.293 140.474 191.242 140.304C191.119 139.765 191.714 139.358 191.99 138.885C192.266 138.412 192.316 137.663 191.936 137.275C192.125 134.18 192.979 131.158 193.168 128.053C193.244 126.823 193.213 125.589 193.27 124.357C193.326 123.125 193.458 121.926 193.595 120.715C193.907 117.951 194.662 115.241 194.556 112.463C194.523 111.608 194.72 110.759 195.125 110.006C195.466 109.433 195.853 108.889 196.281 108.379C197.73 106.504 199.472 104.624 199.989 102.309C200.256 101.115 200.846 100.022 201.431 98.9487C201.778 98.3079 202.139 97.6529 202.691 97.1823C202.992 96.974 203.271 96.7364 203.524 96.4729C203.911 95.974 203.926 95.2906 204.155 94.6947C204.273 94.3873 204.454 94.1035 204.542 93.7867C204.614 93.4366 204.649 93.08 204.648 92.7226C204.723 91.5781 205.162 90.4714 205.625 89.4239C204.537 88.7929 203.576 87.9636 202.793 86.9789C202.529 86.6591 202.3 86.3128 202.108 85.9455C201.622 84.9855 201.511 83.8906 201.282 82.8384C200.737 80.3271 199.484 77.9648 199.309 75.3992C199.257 74.6165 199.309 73.8078 199.038 73.0676C198.912 72.7544 198.766 72.4502 198.599 72.1572C198.434 71.8694 198.309 71.5609 198.226 71.2398C198.075 70.5422 198.282 69.821 198.226 69.1116C198.169 68.485 197.902 67.8985 197.77 67.2861C197.635 66.4892 197.612 65.6774 197.702 64.8741C197.761 63.9283 197.966 62.9517 197.886 62.0176C197.756 60.4721 197.952 58.9164 198.463 57.452C198.973 55.9877 199.786 54.6476 200.848 53.5191L200.902 53.4647C201.353 52.9918 201.846 52.5732 202.252 52.0719C202.805 51.4004 203.196 50.6106 203.779 49.9579C204.034 49.6671 204.322 49.407 204.575 49.1138C204.806 48.8062 205.063 48.5183 205.342 48.253C205.483 48.1218 205.654 48.0271 205.84 47.9772C206.026 47.9274 206.221 47.9238 206.408 47.9669C206.456 48.3196 206.566 48.6608 206.734 48.9743C207.225 49.0121 207.662 49.0807 208.15 49.1185C208.377 49.1293 208.601 49.1641 208.821 49.2225C209.281 49.362 209.649 49.6955 210.043 49.9816C211.025 50.6744 212.231 50.996 213.196 51.7101C214.612 52.7624 215.32 54.5004 216.175 56.0587C217.305 58.1467 219.148 59.9226 219.951 62.1548L221.058 65.191C221.782 67.1726 222.507 69.1612 223.489 71.0293C224.855 73.6304 226.706 75.9738 227.803 78.6955C227.913 78.9685 228.116 79.1932 228.377 79.3292C229.871 81.4291 231.199 83.6428 232.349 85.9502C232.955 87.1704 233.529 88.4378 233.703 89.788C233.961 91.6963 233.441 93.6259 232.719 95.4088C232.603 95.6641 232.523 95.9349 232.483 96.2128C232.436 96.6644 232.608 97.109 232.656 97.5606C232.701 97.9824 232.639 98.4089 232.474 98.7997C232.327 99.0744 232.203 99.3607 232.103 99.6557C231.976 100.2 232.202 100.753 232.325 101.297C232.741 103.139 232.665 105.047 232.561 106.934C232.507 107.88 233.269 108.63 233.904 109.322C235.084 110.621 236.005 112.139 236.894 113.654C237.378 114.423 237.786 115.237 238.112 116.085C238.45 117.052 238.584 118.076 238.771 119.081C239.37 122.181 241.334 124.922 241.867 128.031C242.114 129.456 242.744 130.786 243.689 131.879C243.974 132.174 244.237 132.49 244.475 132.825C244.638 133.09 244.768 133.374 244.862 133.671C245.094 134.362 245.204 135.088 245.186 135.816C245.148 136.164 245.168 136.517 245.245 136.859C245.466 137.58 246.259 137.977 246.585 138.656C246.911 139.334 246.687 140.205 246.821 140.976C246.923 141.598 247.256 142.159 247.753 142.546Z" fill="#0059FC"/>
<path d="M176.338 77.4446C175.564 77.8418 174.74 78.2486 173.874 78.1918C173.095 78.1422 172.385 77.7189 171.799 77.201C171.327 76.7896 170.841 76.2764 170.22 76.319C169.805 76.3474 169.456 76.6288 169.135 76.896L167.424 78.3313C167.136 78.5253 166.918 78.8073 166.803 79.1353C166.769 79.3579 166.783 79.5852 166.843 79.8021C166.921 80.1852 167.051 80.6321 167.419 80.7622C167.787 80.8922 168.188 80.6132 168.578 80.5068C168.816 80.4459 169.065 80.4504 169.301 80.5199C169.537 80.5894 169.749 80.7213 169.916 80.9017C170.055 81.0387 170.139 81.2222 170.152 81.4172C170.152 81.8452 169.68 82.1266 169.246 82.1479C168.811 82.1691 168.396 82.0273 167.966 82.0533C167.94 82.05 167.914 82.0519 167.889 82.059C167.864 82.0661 167.84 82.0781 167.82 82.0944C167.799 82.1107 167.782 82.131 167.77 82.154C167.757 82.1769 167.75 82.2022 167.747 82.2283C167.72 82.3776 167.732 82.5313 167.78 82.6751C167.828 82.819 167.912 82.9483 168.023 83.0512C168.247 83.2562 168.508 83.4167 168.792 83.5241C169.123 83.6876 169.479 83.7917 169.845 83.8315C170.57 83.8788 171.235 83.4768 171.922 83.2427C172.847 82.9306 173.843 82.9211 174.82 82.9235C175.797 82.9258 176.789 82.94 177.726 82.6657C178.663 82.3914 179.552 81.7837 179.918 80.8781C179.961 80.7936 179.975 80.6971 179.958 80.6038C179.922 80.5041 179.852 80.4205 179.76 80.3673C178.443 79.3907 177.91 78.2036 176.428 77.5013L176.338 77.4446Z" fill="#FBBEBE"/>
<path d="M194.804 42.0765C194.395 42.1428 194.048 42.4194 193.661 42.5731C193.401 42.6742 193.123 42.7189 192.845 42.7043C192.567 42.6896 192.295 42.6159 192.047 42.488C191.874 42.4039 191.723 42.2809 191.606 42.1286C191.289 41.6887 191.4 41.0503 191.594 40.5348C192.51 38.0968 194.955 36.5882 197.376 36.4913C199.798 36.3943 202.153 37.527 204.062 39.1468C204.63 39.6141 205.14 40.1485 205.58 40.7382C206.576 42.1215 207.027 43.8879 207.159 45.6377C207.238 46.372 207.189 47.1145 207.015 47.8321C206.931 48.1808 206.778 48.509 206.565 48.7971C206.351 49.0852 206.082 49.3272 205.773 49.5086C205.098 49.8539 204.289 49.7451 203.607 49.414C202.925 49.083 202.34 48.5604 201.754 48.0615C201.489 47.8053 201.175 47.6051 200.831 47.4727C200.66 47.4115 200.474 47.4012 200.297 47.4432C200.12 47.4851 199.959 47.5775 199.833 47.7091C199.517 48.0898 199.597 48.7141 199.309 49.1279C199.021 49.5417 198.422 49.6009 197.917 49.6009C197.412 49.6009 196.899 49.5583 196.597 49.1563C196.321 48.7921 196.361 48.2601 196.465 47.8014C196.569 47.3426 196.746 46.8886 196.701 46.418C196.604 45.4722 195.778 44.8905 195.521 44.0203C195.353 43.4504 195.722 43.2092 195.684 42.6937C195.656 42.2397 195.169 42.0174 194.804 42.0765Z" fill="#3F3D56"/>
<path opacity="0.1" d="M216.307 107.298V107.357C214.952 109.994 213.571 112.673 211.523 114.818C211.201 115.127 210.906 115.465 210.643 115.825C210.431 116.175 210.242 116.539 210.076 116.913C209.758 117.584 209.336 118.2 208.825 118.738L207.116 119.594L212.545 91.2186L216.307 107.298Z" fill="black"/>
<path opacity="0.1" d="M208.417 64.3515C207.951 64.854 207.434 65.3072 206.876 65.7041C205.318 66.8864 203.808 68.0025 202.295 69.251C201.075 70.2458 199.839 71.22 198.585 72.1737C198.42 71.8859 198.295 71.5774 198.212 71.2563C198.061 70.5587 198.268 69.8375 198.212 69.1281C198.155 68.5014 197.888 67.915 197.756 67.3026C197.621 66.5057 197.598 65.6939 197.688 64.8906C197.747 63.9448 197.952 62.9682 197.872 62.0341C197.741 60.4848 197.939 58.9254 198.452 57.458C198.965 55.9905 199.781 54.6482 200.848 53.519L200.902 53.4647C201.156 53.3167 201.425 53.1962 201.705 53.1052C202.116 52.9606 202.555 52.9127 202.988 52.9652C203.421 53.0177 203.836 53.1692 204.202 53.4079C205.485 54.356 206.629 55.4799 207.6 56.7468C208.134 57.3496 208.613 57.9994 209.031 58.6882C209.497 59.5876 209.687 60.6051 209.578 61.6128C209.469 62.6204 209.065 63.5733 208.417 64.3515Z" fill="black"/>
<path d="M203.975 52.2256C203.609 51.9888 203.193 51.8394 202.76 51.789C202.327 51.7385 201.889 51.7884 201.478 51.9347C200.656 52.2315 199.918 52.7241 199.328 53.3701C198.739 53.9718 198.229 54.6465 197.81 55.3776C197.409 56.087 197.102 56.8295 196.701 57.5366C195.993 58.8016 195.068 59.9178 194.138 61.0244C193.56 61.7125 192.974 62.4101 192.233 62.9161C191.492 63.4222 190.664 63.7319 190.161 64.4342C190.003 64.6565 189.89 64.9072 189.734 65.1318C189.241 65.8554 188.403 66.2432 187.674 66.7279C185.583 68.1231 184.282 70.4452 182.328 72.0271C181.485 72.7081 180.534 73.2425 179.706 73.9377C178.934 74.5833 178.29 75.3565 177.52 76.0186C176.751 76.6807 175.847 77.227 174.844 77.2885C175.514 78.7853 176.314 80.2537 177.464 81.4195C178.613 82.5853 180.336 83.3301 181.905 82.8738C182.462 82.713 183.008 82.3724 183.22 81.8333C183.287 81.5562 183.38 81.2862 183.499 81.027C183.656 80.8189 183.861 80.6511 184.096 80.5375C190.396 76.8528 196.402 72.684 202.059 68.0687C203.576 66.8296 205.082 65.7206 206.64 64.5217C207.198 64.1248 207.715 63.6716 208.181 63.1692C208.83 62.3919 209.236 61.4396 209.347 60.4319C209.458 59.4242 209.269 58.4062 208.804 57.5058C208.386 56.817 207.908 56.1673 207.374 55.5644C206.402 54.2976 205.258 53.1736 203.975 52.2256Z" fill="#0059FC"/>
<g opacity="0.1">
<path d="M198.389 48.6479C197.917 48.6479 197.371 48.6053 197.069 48.2033C196.796 47.8392 196.833 47.3071 196.937 46.8484C197.041 46.3897 197.218 45.9356 197.173 45.4651C197.076 44.5192 196.25 43.9375 195.993 43.0673C195.826 42.4974 196.194 42.2563 196.156 41.7408C196.123 41.2938 195.639 41.0716 195.273 41.1307C194.865 41.1969 194.518 41.4736 194.131 41.6273C193.871 41.7284 193.593 41.7731 193.315 41.7584C193.036 41.7437 192.764 41.67 192.517 41.5421C192.344 41.458 192.193 41.335 192.075 41.1827C191.759 40.7429 191.87 40.1044 192.063 39.5889C192.063 39.57 192.08 39.5535 192.087 39.5345C191.89 39.8509 191.724 40.186 191.591 40.5348C191.398 41.0503 191.287 41.6887 191.603 42.1286C191.721 42.2809 191.872 42.4039 192.045 42.488C192.292 42.6159 192.564 42.6896 192.843 42.7043C193.121 42.7189 193.399 42.6742 193.659 42.5731C194.046 42.4194 194.393 42.1428 194.801 42.0765C195.167 42.0174 195.651 42.2397 195.684 42.6866C195.722 43.2021 195.354 43.4433 195.521 44.0132C195.774 44.8834 196.6 45.4745 196.701 46.4109C196.748 46.8839 196.576 47.3379 196.465 47.7943C196.354 48.2506 196.324 48.785 196.597 49.1492C196.899 49.5512 197.44 49.589 197.917 49.5938C198.393 49.5985 199.007 49.5654 199.309 49.1208C199.44 48.8976 199.525 48.651 199.562 48.3949C199.241 48.6242 198.792 48.6526 198.389 48.6479Z" fill="black"/>
<path d="M206.245 48.5627C205.57 48.908 204.761 48.7992 204.079 48.4682C203.397 48.1371 202.811 47.6145 202.226 47.1156C201.961 46.8594 201.647 46.6592 201.303 46.5268C201.132 46.4656 200.946 46.4553 200.769 46.4973C200.592 46.5392 200.431 46.6316 200.305 46.7632C200.145 47.0006 200.044 47.2731 200.01 47.5578C200.133 47.4853 200.27 47.44 200.411 47.4249C200.553 47.4098 200.696 47.4253 200.831 47.4703C201.175 47.6027 201.489 47.8029 201.754 48.0591C202.339 48.558 202.934 49.083 203.607 49.4116C204.28 49.7403 205.098 49.8515 205.773 49.5062C206.37 49.1562 206.806 48.5843 206.984 47.9148C206.79 48.1842 206.538 48.4058 206.245 48.5627Z" fill="black"/>
</g>
<path d="M147.509 150.217C151.419 150.217 154.589 147.041 154.589 143.123C154.589 139.205 151.419 136.029 147.509 136.029C143.598 136.029 140.428 139.205 140.428 143.123C140.428 147.041 143.598 150.217 147.509 150.217Z" fill="#3F3D56"/>
<path opacity="0.1" d="M147.509 150.217C151.419 150.217 154.589 147.041 154.589 143.123C154.589 139.205 151.419 136.029 147.509 136.029C143.598 136.029 140.428 139.205 140.428 143.123C140.428 147.041 143.598 150.217 147.509 150.217Z" fill="black"/>
<path d="M147.509 147.615C149.985 147.615 151.993 145.604 151.993 143.123C151.993 140.641 149.985 138.63 147.509 138.63C145.032 138.63 143.024 140.641 143.024 143.123C143.024 145.604 145.032 147.615 147.509 147.615Z" fill="#65617D"/>
<path opacity="0.1" d="M147.509 147.615C149.985 147.615 151.993 145.604 151.993 143.123C151.993 140.641 149.985 138.63 147.509 138.63C145.032 138.63 143.024 140.641 143.024 143.123C143.024 145.604 145.032 147.615 147.509 147.615Z" fill="black"/>
<path d="M142.08 132.009L146.725 142.532C146.794 142.689 146.907 142.824 147.05 142.92C147.193 143.015 147.361 143.068 147.532 143.071C147.704 143.075 147.874 143.029 148.02 142.939C148.167 142.849 148.285 142.719 148.361 142.565L153.881 131.299L142.08 132.009Z" fill="#3F3D56"/>
<path opacity="0.1" d="M142.08 132.009L146.725 142.532C146.794 142.689 146.907 142.824 147.05 142.92C147.193 143.015 147.361 143.068 147.532 143.071C147.704 143.075 147.874 143.029 148.02 142.939C148.167 142.849 148.285 142.719 148.361 142.565L153.881 131.299L142.08 132.009Z" fill="black"/>
<path d="M103.374 150.217C107.285 150.217 110.455 147.041 110.455 143.123C110.455 139.205 107.285 136.029 103.374 136.029C99.4637 136.029 96.2937 139.205 96.2937 143.123C96.2937 147.041 99.4637 150.217 103.374 150.217Z" fill="#3F3D56"/>
<path opacity="0.1" d="M103.374 150.217C107.285 150.217 110.455 147.041 110.455 143.123C110.455 139.205 107.285 136.029 103.374 136.029C99.4637 136.029 96.2937 139.205 96.2937 143.123C96.2937 147.041 99.4637 150.217 103.374 150.217Z" fill="black"/>
<path d="M103.374 147.615C105.851 147.615 107.858 145.604 107.858 143.123C107.858 140.641 105.851 138.63 103.374 138.63C100.898 138.63 98.8899 140.641 98.8899 143.123C98.8899 145.604 100.898 147.615 103.374 147.615Z" fill="#65617D"/>
<path opacity="0.1" d="M103.374 147.615C105.851 147.615 107.858 145.604 107.858 143.123C107.858 140.641 105.851 138.63 103.374 138.63C100.898 138.63 98.8899 140.641 98.8899 143.123C98.8899 145.604 100.898 147.615 103.374 147.615Z" fill="black"/>
<path d="M97.9458 132.009L102.591 142.532C102.66 142.689 102.772 142.824 102.915 142.92C103.059 143.015 103.226 143.068 103.398 143.071C103.57 143.075 103.739 143.029 103.886 142.939C104.033 142.849 104.151 142.719 104.226 142.565L109.747 131.299L97.9458 132.009Z" fill="#3F3D56"/>
<path opacity="0.1" d="M97.9458 132.009L102.591 142.532C102.66 142.689 102.772 142.824 102.915 142.92C103.059 143.015 103.226 143.068 103.398 143.071C103.57 143.075 103.739 143.029 103.886 142.939C104.033 142.849 104.151 142.719 104.226 142.565L109.747 131.299L97.9458 132.009Z" fill="black"/>
<path d="M170.487 81.3462C170.468 81.1671 170.404 80.9957 170.301 80.8478C170.198 80.6999 170.06 80.5802 169.899 80.4997C169.764 80.4418 169.618 80.4119 169.471 80.4116C169.324 80.4114 169.178 80.4408 169.042 80.4982C168.907 80.5555 168.784 80.6397 168.681 80.7455C168.579 80.8514 168.499 80.9769 168.445 81.1145L164.384 91.2186L163.204 136.62H165.092L165.8 91.3156L170.388 82.032C170.492 81.8196 170.527 81.5795 170.487 81.3462Z" fill="#3F3D56"/>
<path d="M86.9712 133.073L93.3436 129.053L162.142 128.462L163.912 133.073H86.9712Z" fill="#0059FC"/>
<path d="M86.9712 137.329V133.073L165.158 132.316L165.082 135.201H88.3873V137.329H86.9712Z" fill="#3F3D56"/>
<path d="M96.8838 152.699C100.794 152.699 103.964 149.523 103.964 145.606C103.964 141.688 100.794 138.512 96.8838 138.512C92.9734 138.512 89.8033 141.688 89.8033 145.606C89.8033 149.523 92.9734 152.699 96.8838 152.699Z" fill="#3F3D56"/>
<path d="M96.8837 150.098C99.3603 150.098 101.368 148.087 101.368 145.606C101.368 143.124 99.3603 141.113 96.8837 141.113C94.4071 141.113 92.3994 143.124 92.3994 145.606C92.3994 148.087 94.4071 150.098 96.8837 150.098Z" fill="#65617D"/>
<path d="M91.4554 134.492L96.1002 145.014C96.1694 145.172 96.2821 145.307 96.4251 145.402C96.5682 145.498 96.7355 145.551 96.9074 145.554C97.0794 145.558 97.2487 145.512 97.3955 145.422C97.5422 145.332 97.6603 145.202 97.7358 145.047L103.256 133.782L91.4554 134.492Z" fill="#3F3D56"/>
<path d="M151.875 152.699C155.785 152.699 158.955 149.523 158.955 145.606C158.955 141.688 155.785 138.512 151.875 138.512C147.965 138.512 144.795 141.688 144.795 145.606C144.795 149.523 147.965 152.699 151.875 152.699Z" fill="#3F3D56"/>
<path d="M151.875 150.098C154.352 150.098 156.359 148.087 156.359 145.606C156.359 143.124 154.352 141.113 151.875 141.113C149.398 141.113 147.391 143.124 147.391 145.606C147.391 148.087 149.398 150.098 151.875 150.098Z" fill="#65617D"/>
<path d="M146.447 134.492L151.091 145.014C151.161 145.172 151.273 145.307 151.416 145.402C151.559 145.498 151.727 145.551 151.899 145.554C152.071 145.558 152.24 145.512 152.387 145.422C152.533 145.332 152.652 145.202 152.727 145.047L158.247 133.782L146.447 134.492Z" fill="#3F3D56"/>
<path d="M125.323 114.51H95.8217V130.826H125.323V114.51Z" fill="#65617D"/>
<path opacity="0.1" d="M115.175 117.348H106.206V119.24H115.175V117.348Z" fill="black"/>
<path opacity="0.1" d="M114.054 117.584H107.327V119.003H114.054V117.584Z" fill="black"/>
<path d="M155.297 114.51H125.795V130.826H155.297V114.51Z" fill="#65617D"/>
<path opacity="0.1" d="M145.149 117.348H136.18V119.24H145.149V117.348Z" fill="black"/>
<path opacity="0.1" d="M144.028 117.584H137.301V119.003H144.028V117.584Z" fill="black"/>
<path d="M125.323 97.7214H95.8217V114.038H125.323V97.7214Z" fill="#65617D"/>
<path opacity="0.1" d="M115.175 100.559H106.206V102.451H115.175V100.559Z" fill="black"/>
<path opacity="0.1" d="M114.054 100.795H107.327V102.214H114.054V100.795Z" fill="black"/>
<path d="M155.297 97.7214H125.795V114.038H155.297V97.7214Z" fill="#65617D"/>
<path opacity="0.1" d="M145.149 100.559H136.18V102.451H145.149V100.559Z" fill="black"/>
<path opacity="0.1" d="M144.028 100.795H137.301V102.214H144.028V100.795Z" fill="black"/>
<path d="M125.323 80.6959H95.8217V97.012H125.323V80.6959Z" fill="#65617D"/>
<path opacity="0.1" d="M115.175 83.5336H106.206V85.4253H115.175V83.5336Z" fill="black"/>
<path opacity="0.1" d="M114.054 83.77H107.327V85.1888H114.054V83.77Z" fill="black"/>
<path d="M155.297 80.6959H125.795V97.012H155.297V80.6959Z" fill="#65617D"/>
<path opacity="0.1" d="M145.149 83.5336H136.18V85.4253H145.149V83.5336Z" fill="black"/>
<path opacity="0.1" d="M144.028 83.77H137.301V85.1888H144.028V83.77Z" fill="black"/>
<path d="M155.297 63.6705H125.795V79.9866H155.297V63.6705Z" fill="#65617D"/>
<path opacity="0.1" d="M145.149 66.5081H136.18V68.3998H145.149V66.5081Z" fill="black"/>
<path opacity="0.1" d="M144.028 66.7445H137.301V68.1633H144.028V66.7445Z" fill="black"/>
</g>
<defs>
<linearGradient id="paint0_linear_21_6647" x1="207.18" y1="150.013" x2="207.18" y2="35.7677" gradientUnits="userSpaceOnUse">
<stop stop-color="#808080" stop-opacity="0.25"/>
<stop offset="0.54" stop-color="#808080" stop-opacity="0.12"/>
<stop offset="1" stop-color="#808080" stop-opacity="0.1"/>
</linearGradient>
<clipPath id="clip0_21_6647">
<rect width="270" height="154" fill="white"/>
</clipPath>
</defs>
</svg>
