<svg width="132" height="176" viewBox="0 0 132 176" fill="none" xmlns="http://www.w3.org/2000/svg">
<g clip-path="url(#clip0_21_6618)">
<path d="M83.8826 37.3879C83.8826 37.8671 83.8272 38.3579 83.7107 38.8488L78.8415 59.502C78.151 62.4383 75.1991 64.2564 72.256 63.5623L52.7416 57.5269L51.7888 57.2336C50.6786 58.0352 49.1284 58.404 47.5083 58.1194C44.6759 57.6198 42.7148 55.3225 43.1286 52.9844C43.5425 50.6493 46.1737 49.1594 49.0061 49.656C50.6262 49.9406 51.9578 50.8149 52.7271 51.9447L52.7416 51.9476L52.7912 51.9563L69.7763 54.0504L71.2041 36.8796C71.4752 33.5976 74.2259 31.0737 77.5302 31.0737C81.1144 31.0737 83.8826 33.9927 83.8826 37.3879Z" fill="#ED9DA0"/>
<path d="M83.8828 37.3879C83.8828 37.8671 83.8274 38.3579 83.7109 38.8488L79.7158 60.3733C79.0253 63.3096 76.0734 65.1277 73.1303 64.4336L53.616 59.0256L54.4901 50.6029L69.3511 52.6359L71.2043 36.8796C71.4753 33.5976 74.226 31.0737 77.5304 31.0737C81.1145 31.0737 83.8828 33.9927 83.8828 37.3879Z" fill="#2F2E43"/>
<path d="M0 175.782H10.356H19.5611H19.9311H28.0347H83.5301H96.7359H132" stroke="#090814" stroke-width="1.5" stroke-miterlimit="10"/>
<path d="M109.227 150.807L104.513 154.271L107.988 158.969L112.702 155.505L109.227 150.807Z" fill="#ED9DA0"/>
<path d="M115.058 160.37L105.039 167.732C104.183 168.362 103.177 168.799 102.132 168.996L99.6304 169.468C99.1132 169.566 98.5771 169.356 98.2647 168.934C97.8983 168.438 97.9087 167.754 98.29 167.27L101.323 163.419L105.316 155.214L105.339 155.235C105.916 155.76 106.793 156.551 106.859 156.59C108.092 156.862 109.039 156.709 109.673 156.136C110.78 155.136 110.557 153.174 110.555 153.155L110.553 153.14L110.566 153.132C110.868 152.955 111.158 152.915 111.43 153.014C112.006 153.224 112.307 153.978 112.35 154.093C112.913 154.172 114.376 155.844 114.494 155.98C115.335 156.132 115.915 156.447 116.216 156.916C116.48 157.326 116.531 157.849 116.368 158.471C116.172 159.219 115.707 159.893 115.058 160.37Z" fill="#090814"/>
<path d="M68.8069 164.516H62.9509V170.353H68.8069V164.516Z" fill="#ED9DA0"/>
<path d="M67.8074 175.662H55.3597C54.2958 175.662 53.2266 175.419 52.2677 174.96L49.973 173.861C49.4985 173.633 49.1919 173.147 49.1919 172.623C49.1919 172.007 49.6075 171.463 50.2025 171.299L54.9367 169.993L63.0359 165.75L63.0419 165.78C63.1934 166.545 63.4281 167.7 63.4579 167.77C64.2885 168.718 65.1417 169.155 65.9939 169.069C67.4803 168.919 68.4685 167.208 68.4783 167.191L68.4858 167.178L68.501 167.179C68.8491 167.215 69.1065 167.355 69.2663 167.595C69.6053 168.105 69.3985 168.89 69.3645 169.008C69.7705 169.404 69.9528 171.616 69.9669 171.794C70.554 172.415 70.8331 173.011 70.7961 173.567C70.7638 174.053 70.4934 174.504 69.9925 174.908C69.3899 175.395 68.6139 175.662 67.8074 175.662Z" fill="#090814"/>
<path d="M92.7006 73.2751H64.6351L60.1614 166.077H70.0451L76.431 123.895L102.056 157.641L111.411 149.204L92.7006 123.895V73.2751Z" fill="#090814"/>
<path d="M85.4751 12.2863C85.4751 12.2863 93.2076 12.2696 90.319 4.84332C87.4304 -2.583 82.0516 0.742166 82.0516 0.742166C82.0516 0.742166 79.7852 1.93542 80.2524 4.59771" fill="#090814"/>
<path d="M86.2492 15.8485C86.2492 10.1547 81.6183 5.53894 75.9059 5.53894C70.1934 5.53894 65.5625 10.1547 65.5625 15.8485C65.5625 20.4662 68.6085 24.3743 72.8069 25.6868L74.8065 38.8583L85 30.3915C85 30.3915 82.7979 27.5958 81.6169 24.4434C84.4081 22.5971 86.2492 19.4377 86.2492 15.8485Z" fill="#ED9DA0"/>
<path d="M80.8753 24.5575C80.8753 24.5575 82.2488 19.3086 80.0029 16.8951C77.7621 14.4871 77.4726 18.2338 77.4726 18.2338L75.8557 17.8835C75.8557 17.8835 76.1369 14.2398 72.9734 13.6092L75.0121 9.26479C75.0121 9.26479 67.2069 10.7753 66.9917 10.0218C65.299 4.09302 81.4477 -0.971589 85.9086 8.07359C92.8469 22.1418 80.8753 24.5575 80.8753 24.5575Z" fill="#090814"/>
<path d="M86.5376 60.5535L91.1213 74.0169L65.1875 73.7264L69.0541 61.4248L86.5376 60.5535Z" fill="#ED9DA0"/>
<path d="M84.1958 26.3821L72.6952 30.3671L61.8228 86.3132L84.1958 89.0359L85.8271 80.5059L87.3824 89.0359H95.1323L86.7769 33.4016C86.403 30.9115 85.5248 28.5233 84.1958 26.3821Z" fill="#0059FC"/>
<path d="M80.9713 92.1178L81.1715 82.9219L75.7847 82.8054L75.5846 92.0013C74.5795 92.9313 73.9161 94.3762 73.8804 96.0144C73.818 98.8809 75.6968 101.246 78.0769 101.298C80.4569 101.349 82.4369 99.0673 82.4992 96.2008C82.5349 94.5626 81.9349 93.0903 80.9713 92.1178Z" fill="#ED9DA0"/>
<path d="M73.5344 46.0919V90.6653H82.8896L85.6544 46.4682" fill="#090814"/>
<path d="M92.3731 93.3695C92.209 93.3695 92.0448 93.3637 91.88 93.3512C89.9143 93.204 88.2228 92.1535 86.8524 90.2292C81.695 82.9857 71.2954 59.015 71.2954 52.1984C71.2954 45.6844 72.7182 30.7549 72.7674 30.5311L83.2709 24.7346C88.3099 25.9137 91.8174 30.5132 91.6114 35.6711C91.108 48.2732 92.4042 77.0006 100.885 88.9055L100.955 89.0037L100.871 89.0904C100.696 89.2713 96.6791 93.3695 92.3731 93.3695Z" fill="#090814"/>
<path d="M41.7073 77.1066C40.1567 77.1066 38.4604 76.7272 36.7922 76.3533C35.555 76.0743 34.4634 76.0074 33.5845 75.9516C32.2578 75.8679 31.2053 75.8009 30.6231 75.0253C30.0465 74.2609 30.0465 72.9608 30.6231 70.3941C31.3901 66.9848 33.0975 61.5446 35.1912 57.0696C37.8894 51.2945 40.4869 48.6385 42.9053 49.1797C46.1466 49.9051 47.4397 55.2952 47.9212 58.4477C48.5929 62.8446 48.5369 68.0673 47.7756 71.4431C46.768 75.9181 44.456 77.101 41.7073 77.101L41.7073 77.1066ZM42.3007 50.1171C40.5205 50.1171 38.3373 52.7062 36.1036 57.4992C34.0436 61.9072 32.3585 67.2638 31.6084 70.6229C31.1214 72.7767 31.071 73.954 31.4348 74.4339C31.7427 74.8412 32.5433 74.8914 33.6573 74.9584C34.5698 75.0142 35.7006 75.0867 37.0161 75.3824C42.2391 76.5486 45.5084 76.9727 46.8016 71.2311C48.1843 65.0766 47.1318 51.155 42.6926 50.1618C42.5638 50.1339 42.4351 50.1171 42.3063 50.1171L42.3007 50.1171Z" fill="#DFDFE0"/>
<path d="M62.8456 118.475L13.0676 118.799L5.33105 115.256L9.83749 69.4399L14.3719 69.6687L61.0095 72.0346L62.8456 118.475Z" fill="#E2E3E4"/>
<path opacity="0.2" d="M13.0676 118.799L5.33105 115.256L9.83749 69.4399L14.3719 69.6687L13.0676 118.799Z" fill="#272223"/>
<path d="M15.8308 62.6486L15.7593 62.5774L15.6879 62.6486C12.2113 59.1862 6.57704 59.1905 3.10333 62.6557C-0.37039 66.1224 -0.440405 71.808 3.03617 75.2704L15.7679 87.9477L28.491 75.2547C31.9647 71.7881 31.8919 66.1024 28.4167 62.6401C24.9401 59.1777 19.3059 59.182 15.8322 62.6472L15.8308 62.6486Z" fill="#0059FC"/>
</g>
<defs>
<clipPath id="clip0_21_6618">
<rect width="132" height="176" fill="white"/>
</clipPath>
</defs>
</svg>
