<svg width="274" height="142" viewBox="0 0 274 142" fill="none" xmlns="http://www.w3.org/2000/svg">
<g clip-path="url(#clip0_21_6337)">
<path d="M65.9394 139.589L59.1898 128.885L65.9425 140.755L65.9461 141.975C66.4276 141.969 66.9043 141.951 67.3761 141.919L66.8256 126.252L66.8328 126.131L66.8204 126.107L66.768 124.627L73.8252 112.896L66.7607 123.518L66.7396 123.832L66.3237 111.994L72.3907 99.8568L66.2763 109.914L65.9919 85.3785L65.9906 85.2969L65.9896 85.3772L65.8511 104.722L60.0538 96.9819L65.8562 106.388L65.8831 116.984L60.5041 106.751L65.8861 118.541L65.901 124.433L58.0874 110.185L65.9072 126.488L65.9394 139.589Z" fill="#E2E2E2"/>
<path d="M123.859 139.589L117.11 128.885L123.862 140.755L123.866 141.975C124.348 141.969 124.824 141.951 125.296 141.919L124.745 126.252L124.753 126.131L124.74 126.107L124.688 124.627L131.745 112.896L124.681 123.518L124.66 123.832L124.244 111.994L130.311 99.8568L124.196 109.914L123.912 85.3785L123.91 85.2969L123.91 85.3772L123.771 104.722L117.974 96.9819L123.776 106.388L123.803 116.984L118.424 106.751L123.806 118.541L123.821 124.433L116.007 110.185L123.827 126.488L123.859 139.589Z" fill="#E2E2E2"/>
<path d="M7.96429 140.277L3.09048 132.548L7.96655 141.119L7.96916 142C8.31687 141.996 8.66106 141.983 9.00175 141.96L8.60422 130.646L8.60945 130.559L8.6005 130.542L8.56265 129.473L13.6586 121.002L8.55739 128.673L8.54213 128.899L8.24183 120.351L12.6228 111.587L8.2076 118.849L8.00222 101.132L8.00128 101.073L8.00057 101.131L7.90057 115.1L3.71437 109.511L7.90428 116.303L7.92372 123.954L4.03952 116.565L7.92586 125.079L7.93661 129.333L2.29443 119.045L7.94104 130.817L7.96429 140.277Z" fill="#E2E2E2"/>
<path d="M264.726 139.589L257.977 128.885L264.729 140.755L264.733 141.975C265.215 141.969 265.691 141.951 266.163 141.919L265.612 126.252L265.62 126.131L265.607 126.107L265.555 124.627L272.612 112.896L265.548 123.518L265.526 123.832L265.111 111.994L271.178 99.8568L265.063 109.914L264.779 85.3785L264.777 85.2969L264.776 85.3772L264.638 104.722L258.841 96.9819L264.643 106.388L264.67 116.984L259.291 106.751L264.673 118.541L264.688 124.433L256.874 110.185L264.694 126.488L264.726 139.589Z" fill="#E2E2E2"/>
<path d="M81.6797 123.428H118.09V121.887H81.6797V123.428Z" fill="#0059FC"/>
<path d="M79.8284 121.887H116.238V120.345H79.8284V121.887Z" fill="#0059FC"/>
<path d="M81.9883 120.345H118.398V118.803H81.9883V120.345Z" fill="#0059FC"/>
<path d="M85.6909 118.803H122.101V117.262H85.6909V118.803Z" fill="#0059FC"/>
<path d="M54.7114 119.418H55.9756V110.449H54.7114V119.418Z" fill="#3F3D56"/>
<path d="M54.7089 110.335L55.1843 111.505L101.965 92.5312L101.489 91.3607L54.7089 110.335Z" fill="#3F3D56"/>
<path d="M31.3246 132.809H42.3228V128.513H31.3246V132.809Z" fill="#3F3D56"/>
<path d="M32.3358 137.104H86.5681V132.303H32.3358V137.104Z" fill="#3F3D56"/>
<path d="M41.248 134.703H54.2689V118.344H44.5348L41.248 126.595V134.703Z" fill="#E2E2E2"/>
<path d="M46.6841 124.913H52.2463V119.355H46.6841V124.913Z" fill="white"/>
<path d="M42.5122 124.976H46.052V119.418H44.5348L42.5122 124.976Z" fill="white"/>
<path d="M50.7293 130.471H51.9934V128.071H50.7293V130.471Z" fill="#3F3D56"/>
<path d="M44.9775 125.355H44.9143C44.5958 125.355 44.2904 125.229 44.0651 125.004C43.8399 124.779 43.7134 124.473 43.7134 124.155C43.7134 123.837 43.8399 123.532 44.0651 123.307C44.2904 123.081 44.5958 122.955 44.9143 122.955H44.9775V125.355Z" fill="#3F3D56"/>
<path d="M92.0039 134.703H91.9407C91.6222 134.703 91.3167 134.577 91.0915 134.352C90.8663 134.127 90.7397 133.822 90.7397 133.503C90.7397 133.185 90.8663 132.88 91.0915 132.655C91.3167 132.43 91.6222 132.303 91.9407 132.303H92.0039V134.703Z" fill="#3F3D56"/>
<path d="M36.1915 132.285C35.2514 132.297 34.326 132.521 33.4844 132.94C32.6427 133.358 31.9063 133.961 31.33 134.703H28.8594L31.2613 128.017L42.449 125.812L42.133 134.703H41.053C40.4767 133.961 39.7403 133.358 38.8986 132.94C38.0569 132.521 37.1316 132.297 36.1915 132.285Z" fill="#E2E2E2"/>
<path d="M36.0652 141.778C39.1023 141.778 41.5643 139.318 41.5643 136.283C41.5643 133.248 39.1023 130.787 36.0652 130.787C33.0282 130.787 30.5662 133.248 30.5662 136.283C30.5662 139.318 33.0282 141.778 36.0652 141.778Z" fill="#3F3D56"/>
<path d="M36.0651 139.175C37.6636 139.175 38.9594 137.88 38.9594 136.283C38.9594 134.685 37.6636 133.39 36.0651 133.39C34.4667 133.39 33.1709 134.685 33.1709 136.283C33.1709 137.88 34.4667 139.175 36.0651 139.175Z" fill="#E2E2E2"/>
<path d="M85.7464 141.715C88.3995 141.715 90.5502 139.565 90.5502 136.914C90.5502 134.263 88.3995 132.114 85.7464 132.114C83.0934 132.114 80.9426 134.263 80.9426 136.914C80.9426 139.565 83.0934 141.715 85.7464 141.715Z" fill="#3F3D56"/>
<path d="M85.7466 139.441C87.1429 139.441 88.2749 138.31 88.2749 136.914C88.2749 135.519 87.1429 134.388 85.7466 134.388C84.3502 134.388 83.2183 135.519 83.2183 136.914C83.2183 138.31 84.3502 139.441 85.7466 139.441Z" fill="#E2E2E2"/>
<path d="M53.8897 135.209H56.5444V116.07H53.8897V135.209Z" fill="#3F3D56"/>
<path d="M53.8896 132.872H92.0671V131.735H53.8896V132.872Z" fill="#3F3D56"/>
<path d="M44.219 125.734H45.4832V125.229H44.219V125.734Z" fill="#3F3D56"/>
<path d="M100.095 123.419C100.083 123.406 100.074 123.39 100.068 123.373C100.062 123.356 100.061 123.338 100.062 123.321L101.806 106.845C101.809 106.814 101.824 106.786 101.847 106.765C101.87 106.744 101.9 106.732 101.931 106.732H101.932C101.963 106.732 101.993 106.744 102.016 106.764C102.039 106.785 102.054 106.813 102.057 106.844L103.943 123.286C103.945 123.303 103.943 123.321 103.938 123.338C103.933 123.355 103.924 123.37 103.912 123.384C103.9 123.397 103.886 123.407 103.87 123.415C103.854 123.422 103.836 123.426 103.818 123.426L100.189 123.46H100.188C100.171 123.46 100.153 123.457 100.137 123.45C100.121 123.442 100.106 123.432 100.095 123.419ZM101.937 108.012L100.329 123.206L103.676 123.175L101.937 108.012Z" fill="#3F3D56"/>
<path d="M31.2847 128.115L31.3438 128.137C31.6417 128.25 31.8826 128.476 32.0136 128.766C32.1446 129.056 32.1549 129.387 32.0422 129.684C31.9296 129.982 31.7031 130.223 31.4128 130.354C31.1225 130.485 30.792 130.495 30.4941 130.382L30.435 130.36L31.2847 128.115Z" fill="#3F3D56"/>
<path d="M101.359 109.817H102.623V91.3732H101.359V109.817Z" fill="#3F3D56"/>
<path d="M55.3435 112.47C56.321 112.47 57.1134 111.678 57.1134 110.701C57.1134 109.725 56.321 108.933 55.3435 108.933C54.3661 108.933 53.5737 109.725 53.5737 110.701C53.5737 111.678 54.3661 112.47 55.3435 112.47Z" fill="#3F3D56"/>
<path d="M57.9207 131.754H94.3306V130.212H57.9207V131.754Z" fill="#0059FC"/>
<path d="M60.0806 130.212H96.4905V128.67H60.0806V130.212Z" fill="#0059FC"/>
<path d="M58.5378 128.979H94.9478V127.437H58.5378V128.979Z" fill="#0059FC"/>
<path d="M60.6978 127.437H97.1077V125.895H60.6978V127.437Z" fill="#0059FC"/>
<path d="M117.973 37.6926C119.134 37.6912 120.255 38.1089 121.132 38.8686C121.825 38.6796 122.551 38.6477 123.257 38.7753C123.842 37.9272 124.683 37.2881 125.657 36.9516C126.631 36.615 127.688 36.5986 128.672 36.9047C129.656 37.2107 130.517 37.8233 131.128 38.6529C131.739 39.4825 132.068 40.4855 132.068 41.5156H113.247C113.478 40.4339 114.073 39.4641 114.933 38.7683C115.793 38.0724 116.867 37.6927 117.973 37.6926Z" fill="#E2E2E2"/>
<path d="M89.6582 52.9088C90.7552 52.9075 91.8157 53.3024 92.6444 54.0206C93.2991 53.8419 93.9855 53.8118 94.6534 53.9324C95.2064 53.1305 96.0014 52.5264 96.9224 52.2082C97.8434 51.89 98.8421 51.8745 99.7726 52.1639C100.703 52.4532 101.516 53.0324 102.094 53.8166C102.672 54.6009 102.983 55.5492 102.983 56.523H85.1897C85.4079 55.5004 85.9706 54.5836 86.784 53.9257C87.5973 53.2679 88.6119 52.9089 89.6582 52.9088Z" fill="#E2E2E2"/>
<path d="M61.3488 27.812C62.4902 27.8107 63.5936 28.2215 64.4558 28.9688C65.137 28.7829 65.8512 28.7515 66.5461 28.877C67.1215 28.0427 67.9487 27.4141 68.9069 27.0831C69.8652 26.752 70.9043 26.7359 71.8724 27.0369C72.8405 27.338 73.6869 27.9406 74.2879 28.7566C74.8889 29.5726 75.2131 30.5593 75.213 31.5725H56.6995C56.9265 30.5085 57.512 29.5545 58.3582 28.8701C59.2045 28.1856 60.2601 27.8121 61.3488 27.812Z" fill="#E2E2E2"/>
<path d="M183.592 75.6014V114.115H198.58V75.0664L195.101 75.1906V67.3102H192.577L192.161 49.8568C193.18 49.1937 193.896 47.6188 193.896 45.7799C193.897 45.2519 193.836 44.7257 193.713 44.2122C194.195 43.6911 194.49 43.025 194.553 42.3182C194.616 41.6114 194.442 40.9038 194.059 40.3062C194.379 40.5859 194.752 40.7992 195.155 40.9338C195.558 41.0683 195.985 41.1215 196.409 41.0901C196.833 41.0588 197.246 40.9436 197.626 40.7512C198.005 40.5588 198.342 40.2931 198.618 39.9694C198.893 39.6457 199.102 39.2706 199.231 38.8657C199.36 38.4608 199.408 38.0344 199.371 37.611C199.334 37.1876 199.213 36.7758 199.016 36.3994C198.818 36.0231 198.548 35.6897 198.22 35.4185C198.771 35.2155 199.256 34.8655 199.621 34.4066C199.987 33.9477 200.22 33.3975 200.294 32.8157C200.369 32.2339 200.283 31.6427 200.045 31.1065C199.807 30.5702 199.427 30.1094 198.945 29.774C198.463 29.4386 197.899 29.2415 197.313 29.204C196.727 29.1666 196.143 29.2903 195.622 29.5617C195.102 29.8331 194.666 30.2418 194.362 30.7434C194.057 31.245 193.896 31.8204 193.896 32.407C193.896 32.454 193.898 32.5006 193.9 32.5471C193.459 32.4124 192.994 32.3742 192.537 32.435C192.08 32.4958 191.641 32.6542 191.251 32.8994C190.86 33.1446 190.527 33.4708 190.274 33.856C190.021 34.2412 189.854 34.6763 189.784 35.1318C189.384 34.8936 188.936 34.7455 188.473 34.6975C188.009 34.6496 187.541 34.7031 187.1 34.8542C186.659 35.0054 186.256 35.2506 185.92 35.5728C185.583 35.8951 185.321 36.2867 185.151 36.7204C184.981 37.1541 184.908 37.6195 184.936 38.0844C184.964 38.5493 185.094 39.0024 185.315 39.4125C185.536 39.8225 185.843 40.1795 186.216 40.4587C186.589 40.7379 187.019 40.9327 187.475 41.0295C187.474 41.0528 187.473 41.0759 187.473 41.0994C187.771 41.9989 188.151 42.8694 188.607 43.7001C188.384 44.3707 188.272 45.0732 188.276 45.7798C188.276 47.6188 188.992 49.1937 190.011 49.8568L189.595 67.3102H187.071V75.4772L183.592 75.6014ZM192.951 38.8257L192.96 38.8259C193.006 38.8259 193.052 38.8244 193.098 38.8225C193.127 38.9173 193.16 39.0102 193.197 39.1011C193.12 39.0047 193.038 38.9128 192.951 38.8257Z" fill="#E2E2E2"/>
<path d="M175.34 141.53H220.839V88.9296H175.34V141.53Z" fill="#3F3D56"/>
<path d="M191.956 141.53H204.223V130.831H191.956V141.53Z" fill="#E2E2E2"/>
<path d="M160.176 19.72C160.175 19.7589 160.173 19.7974 160.173 19.8364C160.172 20.5518 160.316 21.2599 160.594 21.9188C160.873 22.5776 161.282 23.1737 161.796 23.6714C161.876 23.8426 161.966 24.0094 162.064 24.1711C161.692 25.2886 161.505 26.4595 161.511 27.6373C161.511 31.6994 163.608 34.9924 166.195 34.9924C168.782 34.9924 170.879 31.6994 170.879 27.6373C170.881 26.7574 170.778 25.8803 170.574 25.0245C171.377 24.156 171.869 23.0458 171.973 21.8678C172.077 20.6898 171.788 19.5105 171.15 18.5146C171.683 18.9806 172.304 19.3361 172.977 19.5603C173.649 19.7846 174.359 19.8731 175.066 19.8209C175.773 19.7686 176.462 19.5766 177.094 19.2559C177.726 18.9353 178.288 18.4924 178.747 17.953C179.207 17.4135 179.554 16.7883 179.77 16.1136C179.985 15.4388 180.065 14.7281 180.003 14.0225C179.941 13.3169 179.74 12.6305 179.411 12.0032C179.082 11.376 178.631 10.8203 178.086 10.3684C179.003 10.03 179.811 9.44665 180.42 8.68183C181.03 7.91702 181.418 6.99995 181.542 6.03027C181.666 5.06058 181.523 4.07535 181.126 3.18161C180.73 2.28786 180.096 1.51977 179.293 0.960774C178.491 0.40178 177.55 0.07326 176.574 0.0108971C175.597 -0.0514659 174.623 0.154715 173.755 0.607042C172.888 1.05937 172.161 1.74054 171.654 2.57657C171.147 3.4126 170.879 4.37152 170.879 5.34915C170.879 5.42747 170.881 5.50517 170.885 5.58265C170.15 5.3583 169.375 5.29462 168.613 5.39593C167.851 5.49725 167.12 5.76119 166.47 6.16983C165.819 6.57847 165.264 7.12225 164.842 7.76423C164.42 8.40622 164.142 9.13138 164.025 9.89048C163.358 9.49357 162.612 9.2466 161.839 9.16671C161.067 9.08682 160.286 9.17593 159.551 9.42785C158.816 9.67976 158.145 10.0885 157.584 10.6255C157.024 11.1626 156.587 11.8153 156.303 12.5381C156.02 13.261 155.898 14.0367 155.945 14.8115C155.992 15.5863 156.207 16.3416 156.576 17.025C156.944 17.7083 157.457 18.3033 158.079 18.7687C158.701 19.2341 159.416 19.5587 160.176 19.72ZM169.318 16.0474C169.395 16.0474 169.471 16.0449 169.548 16.0416C169.596 16.1997 169.651 16.3545 169.713 16.506C169.586 16.3453 169.449 16.1921 169.304 16.0471L169.318 16.0474Z" fill="#E2E2E2"/>
<path d="M163.518 71.5449H168.871L168.68 63.5219V63.5188L167.98 34.0997C167.442 34.4279 166.824 34.6016 166.195 34.6016C165.565 34.6016 164.947 34.4279 164.41 34.0997L163.709 63.5188V63.5219L163.518 71.5449Z" fill="#0059FC"/>
<path d="M153.706 77.3387V141.53H178.684V76.4476L172.886 76.6542V63.5219H159.503V77.1321L153.706 77.3387Z" fill="#0059FC"/>
<path d="M223.965 19.72C223.964 19.7589 223.962 19.7974 223.962 19.8364C223.961 20.5518 224.104 21.2599 224.383 21.9188C224.662 22.5776 225.07 23.1737 225.585 23.6714C225.665 23.8426 225.754 24.0094 225.852 24.1711C225.48 25.2886 225.294 26.4595 225.3 27.6373C225.3 31.6994 227.397 34.9924 229.984 34.9924C232.57 34.9924 234.667 31.6994 234.667 27.6373C234.669 26.7574 234.567 25.8803 234.362 25.0245C235.165 24.156 235.658 23.0458 235.762 21.8678C235.866 20.6898 235.576 19.5105 234.938 18.5146C235.472 18.9806 236.093 19.3361 236.765 19.5604C237.437 19.7846 238.148 19.8732 238.855 19.8209C239.561 19.7687 240.251 19.5767 240.883 19.256C241.515 18.9353 242.077 18.4924 242.536 17.953C242.995 17.4136 243.343 16.7883 243.558 16.1136C243.774 15.4389 243.853 14.7281 243.792 14.0225C243.73 13.3169 243.529 12.6305 243.2 12.0032C242.87 11.376 242.42 10.8203 241.874 10.3684C242.792 10.03 243.599 9.44665 244.209 8.68183C244.818 7.91702 245.206 6.99996 245.331 6.03027C245.455 5.06059 245.311 4.07536 244.915 3.18161C244.518 2.28786 243.884 1.51977 243.082 0.960774C242.279 0.40178 241.339 0.0732602 240.362 0.0108971C239.386 -0.051466 238.411 0.154715 237.544 0.607042C236.677 1.05937 235.95 1.74054 235.443 2.57657C234.936 3.4126 234.667 4.37152 234.667 5.34915C234.667 5.42747 234.67 5.50517 234.673 5.58265C233.938 5.3583 233.164 5.29462 232.402 5.39593C231.64 5.49725 230.909 5.76119 230.258 6.16983C229.608 6.57847 229.053 7.12225 228.631 7.76423C228.209 8.40622 227.93 9.13138 227.814 9.89048C227.146 9.49357 226.4 9.2466 225.628 9.16671C224.855 9.08682 224.074 9.17593 223.34 9.42785C222.605 9.67976 221.934 10.0885 221.373 10.6255C220.812 11.1626 220.375 11.8153 220.092 12.5381C219.809 13.261 219.687 14.0367 219.734 14.8115C219.781 15.5863 219.996 16.3416 220.364 17.025C220.733 17.7083 221.246 18.3033 221.867 18.7687C222.489 19.2341 223.205 19.5587 223.965 19.72ZM233.106 16.0474C233.183 16.0474 233.26 16.0449 233.336 16.0416C233.384 16.1997 233.44 16.3545 233.502 16.506C233.374 16.3453 233.237 16.1921 233.092 16.0471L233.106 16.0474Z" fill="#E2E2E2"/>
<path d="M227.307 71.5449H232.66L231.768 34.1008C230.614 34.515 229.353 34.515 228.199 34.1008L227.307 71.5449Z" fill="#0059FC"/>
<path d="M217.494 77.3387V141.53H242.475V76.4476L240.423 76.5216L236.674 76.6542V63.5219H223.292V77.1321L217.494 77.3387Z" fill="#0059FC"/>
<path d="M204.878 101.445H211.049V95.2781H204.878V101.445Z" fill="white"/>
<path d="M195.004 101.445H201.175V95.2781H195.004V101.445Z" fill="white"/>
<path d="M185.13 101.445H191.301V95.2781H185.13V101.445Z" fill="white"/>
<path d="M204.878 111.312H211.049V105.145H204.878V111.312Z" fill="white"/>
<path d="M195.004 111.312H201.175V105.145H195.004V111.312Z" fill="white"/>
<path d="M185.13 111.312H191.301V105.145H185.13V111.312Z" fill="white"/>
<path d="M204.878 121.179H211.049V115.012H204.878V121.179Z" fill="white"/>
<path d="M195.004 121.179H201.175V115.012H195.004V121.179Z" fill="white"/>
<path d="M185.13 121.179H191.301V115.012H185.13V121.179Z" fill="white"/>
<path d="M163.11 98.9781H169.281V92.8113H163.11V98.9781Z" fill="white"/>
<path d="M163.11 108.845H169.281V102.678H163.11V108.845Z" fill="white"/>
<path d="M163.11 118.712H169.281V112.545H163.11V118.712Z" fill="white"/>
<path d="M163.11 128.579H169.281V122.412H163.11V128.579Z" fill="white"/>
<path d="M226.846 98.9781H233.018V92.8113H226.846V98.9781Z" fill="white"/>
<path d="M226.846 108.845H233.018V102.678H226.846V108.845Z" fill="white"/>
<path d="M226.846 118.712H233.018V112.545H226.846V118.712Z" fill="white"/>
<path d="M226.846 128.579H233.018V122.412H226.846V128.579Z" fill="white"/>
<path d="M274 141.312H0V141.929H274V141.312Z" fill="#3F3D56"/>
</g>
<defs>
<clipPath id="clip0_21_6337">
<rect width="274" height="142" fill="white"/>
</clipPath>
</defs>
</svg>
