<svg width="227" height="184" viewBox="0 0 227 184" fill="none" xmlns="http://www.w3.org/2000/svg">
<g clip-path="url(#clip0_21_6560)">
<path d="M181.22 33.516C180.041 46.5008 176.681 60.1926 171.413 73.4033C164.897 89.7401 155.996 104.13 145.67 115.016L145.097 114.517C155.373 103.683 164.234 89.3567 170.722 73.0874C176.586 58.3852 180.073 43.0853 180.812 28.8486L181.545 28.9711C181.467 30.4747 181.359 31.9897 181.22 33.516Z" fill="#F2F2F2"/>
<path d="M185.916 108.929C171.413 131.989 153.817 148.466 136.37 155.323L136.018 154.676C153.344 147.866 170.836 131.474 185.273 108.52L185.916 108.929Z" fill="#F2F2F2"/>
<path d="M180.868 49.6827C179.689 62.6675 176.329 76.3592 171.061 89.57C164.545 105.907 155.644 120.296 145.318 131.182L144.745 130.683C155.02 119.849 163.882 105.523 170.37 89.254C176.234 74.5518 179.721 59.252 180.46 45.0153L181.193 45.1378C181.115 46.6414 181.007 48.1563 180.868 49.6827Z" fill="#F2F2F2"/>
<path d="M18.0499 83.0186H8.53398C8.33067 83.019 8.12991 82.9734 7.94674 82.8852C7.76358 82.7971 7.60277 82.6686 7.47638 82.5094C7.35151 82.3543 7.26343 82.173 7.21871 81.979C7.174 81.785 7.17384 81.5834 7.21822 81.3894C8.12452 77.3928 8.06758 73.2382 7.05211 69.2679C6.98788 69.0065 7.00341 68.7319 7.0967 68.4794C7.18999 68.2268 7.35677 68.008 7.57558 67.851C12.4687 64.334 16.3221 64.436 19.029 68.1549C19.1511 68.3244 19.2321 68.5199 19.2659 68.7259C19.9891 73.0714 20.0291 77.5031 19.3845 81.8608C19.3397 82.1825 19.1798 82.477 18.9344 82.6898C18.689 82.9027 18.3748 83.0195 18.0499 83.0186Z" fill="#E6E6E6"/>
<path d="M15.0998 73.4948H11.8263C11.6453 73.4948 11.4717 73.423 11.3437 73.2951C11.2157 73.1671 11.1438 72.9936 11.1438 72.8127C11.1438 72.6318 11.2157 72.4583 11.3437 72.3304C11.4717 72.2025 11.6453 72.1306 11.8263 72.1306H15.0998C15.2806 72.131 15.4538 72.203 15.5815 72.3309C15.7092 72.4588 15.7809 72.6321 15.7809 72.8127C15.7809 72.9934 15.7092 73.1667 15.5815 73.2946C15.4538 73.4224 15.2806 73.4945 15.0998 73.4948Z" fill="white"/>
<path d="M15.0998 75.8871H11.8263C11.6453 75.8871 11.4717 75.8152 11.3437 75.6873C11.2157 75.5593 11.1438 75.3858 11.1438 75.2049C11.1438 75.024 11.2157 74.8505 11.3437 74.7226C11.4717 74.5947 11.6453 74.5228 11.8263 74.5228H15.0998C15.2806 74.5232 15.4538 74.5952 15.5815 74.7231C15.7092 74.851 15.7809 75.0243 15.7809 75.2049C15.7809 75.3856 15.7092 75.5589 15.5815 75.6868C15.4538 75.8146 15.2806 75.8867 15.0998 75.8871Z" fill="white"/>
<path d="M15.0998 78.2794H11.8263C11.6453 78.2794 11.4717 78.2075 11.3437 78.0796C11.2157 77.9517 11.1438 77.7782 11.1438 77.5973C11.1438 77.4164 11.2157 77.2429 11.3437 77.1149C11.4717 76.987 11.6453 76.9152 11.8263 76.9152H15.0998C15.2806 76.9155 15.4538 76.9876 15.5815 77.1155C15.7092 77.2433 15.7809 77.4166 15.7809 77.5973C15.7809 77.7779 15.7092 77.9512 15.5815 78.0791C15.4538 78.207 15.2806 78.279 15.0998 78.2794Z" fill="white"/>
<path d="M190.992 125.481H181.476C181.273 125.481 181.072 125.435 180.889 125.347C180.706 125.259 180.545 125.131 180.419 124.971C180.294 124.816 180.206 124.635 180.161 124.441C180.116 124.247 180.116 124.045 180.16 123.851C181.067 119.855 181.01 115.7 179.994 111.73C179.93 111.469 179.946 111.194 180.039 110.941C180.132 110.689 180.299 110.47 180.518 110.313C185.411 106.796 189.264 106.898 191.971 110.617C192.093 110.786 192.174 110.982 192.208 111.188C192.931 115.533 192.971 119.965 192.327 124.323C192.282 124.645 192.122 124.939 191.877 125.152C191.631 125.365 191.317 125.481 190.992 125.481Z" fill="#E6E6E6"/>
<path d="M188.042 115.957H184.768C184.588 115.957 184.414 115.884 184.287 115.757C184.159 115.629 184.087 115.455 184.087 115.275C184.087 115.094 184.159 114.921 184.287 114.793C184.414 114.665 184.588 114.593 184.768 114.593H188.042C188.223 114.593 188.397 114.665 188.525 114.792C188.653 114.92 188.725 115.094 188.725 115.275C188.725 115.456 188.653 115.629 188.525 115.757C188.397 115.885 188.223 115.957 188.042 115.957Z" fill="white"/>
<path d="M188.042 118.349H184.768C184.588 118.349 184.414 118.277 184.287 118.149C184.159 118.021 184.087 117.848 184.087 117.667C184.087 117.486 184.159 117.313 184.287 117.185C184.414 117.057 184.588 116.985 184.768 116.985H188.042C188.223 116.985 188.397 117.057 188.525 117.185C188.653 117.313 188.725 117.486 188.725 117.667C188.725 117.848 188.653 118.021 188.525 118.149C188.397 118.277 188.223 118.349 188.042 118.349Z" fill="white"/>
<path d="M188.042 120.741H184.768C184.588 120.741 184.414 120.669 184.287 120.541C184.159 120.413 184.087 120.24 184.087 120.059C184.087 119.879 184.159 119.705 184.287 119.577C184.414 119.449 184.588 119.377 184.768 119.377H188.042C188.223 119.377 188.397 119.449 188.525 119.577C188.653 119.705 188.725 119.878 188.725 120.059C188.725 120.24 188.653 120.414 188.525 120.542C188.397 120.669 188.223 120.741 188.042 120.741Z" fill="white"/>
<path d="M227 183.644C227 183.691 226.991 183.737 226.973 183.781C226.955 183.824 226.929 183.863 226.896 183.896C226.863 183.929 226.824 183.955 226.78 183.973C226.737 183.991 226.691 184 226.644 184H0.356058C0.261626 184 0.171065 183.963 0.104291 183.896C0.0375171 183.829 0 183.739 0 183.644C0 183.55 0.0375171 183.459 0.104291 183.393C0.171065 183.326 0.261626 183.288 0.356058 183.288H226.644C226.691 183.288 226.737 183.297 226.78 183.315C226.824 183.333 226.863 183.359 226.896 183.392C226.929 183.425 226.955 183.465 226.973 183.508C226.991 183.551 227 183.597 227 183.644Z" fill="#CCCCCC"/>
<path d="M59.6929 161.857L59.0995 153.607C55.2117 151.665 50.9083 150.7 46.563 150.797C52.6763 155.52 52.1866 164.959 56.4204 171.418C57.7564 173.423 59.5265 175.101 61.5998 176.329C63.673 177.557 65.9961 178.303 68.397 178.512L73.4848 181.437C74.0668 177.593 73.8079 173.668 72.7261 169.933C71.6442 166.198 69.7651 162.743 67.2181 159.803C65.7729 158.169 64.1275 156.723 62.3207 155.499C61.2086 158.69 59.6929 161.857 59.6929 161.857Z" fill="#F2F2F2"/>
<path d="M167.307 163.053L167.901 154.803C171.788 152.861 176.092 151.897 180.437 151.994C174.324 156.716 174.813 166.155 170.58 172.614C169.244 174.619 167.474 176.298 165.4 177.525C163.327 178.753 161.004 179.499 158.603 179.708L153.515 182.633C152.933 178.789 153.192 174.864 154.274 171.129C155.356 167.395 157.235 163.939 159.782 161C161.227 159.365 162.873 157.919 164.679 156.695C165.791 159.886 167.307 163.053 167.307 163.053Z" fill="#F2F2F2"/>
<path d="M110.807 69.9554C113.947 69.9554 116.492 67.4116 116.492 64.2738C116.492 61.136 113.947 58.5923 110.807 58.5923C107.667 58.5923 105.122 61.136 105.122 64.2738C105.122 67.4116 107.667 69.9554 110.807 69.9554Z" fill="#0059FC"/>
<path d="M113.725 61.906C113.64 61.8244 113.526 61.7789 113.408 61.7789C113.29 61.7789 113.176 61.8244 113.091 61.906C111.884 62.8674 110.801 63.9734 109.865 65.1991C109.635 64.7546 109.405 64.3101 109.175 63.8657C108.91 63.3526 108.135 63.8058 108.4 64.3184C108.736 64.9686 109.073 65.6187 109.409 66.2688C109.449 66.3352 109.506 66.39 109.574 66.4281C109.642 66.4661 109.718 66.4861 109.796 66.4861C109.874 66.4861 109.951 66.4661 110.018 66.4281C110.086 66.39 110.143 66.3352 110.184 66.2688C111.182 64.8644 112.374 63.609 113.725 62.5403C113.809 62.4558 113.856 62.3419 113.856 62.2231C113.856 62.1044 113.809 61.9904 113.725 61.906Z" fill="white"/>
<path d="M85.3699 80.3847L76.7971 66.9297L86.7242 61.6165L89.3297 71.882L107.688 81.7962C108.412 81.5355 109.197 81.4913 109.947 81.6688C110.697 81.8462 111.378 82.2379 111.909 82.7959C112.44 83.3538 112.796 84.0541 112.936 84.8112C113.075 85.5683 112.991 86.3496 112.694 87.0598C112.396 87.77 111.899 88.3784 111.262 88.8108C110.624 89.2433 109.875 89.481 109.105 89.4952C108.335 89.5093 107.577 89.2992 106.924 88.8905C106.271 88.4817 105.752 87.892 105.429 87.1932L85.3699 80.3847Z" fill="#A0616A"/>
<path d="M70.5338 50.7917C67.8402 54.7442 77.4125 69.111 77.4125 69.111C77.8789 68.1064 82.3366 79.3874 83.0832 78.721C85.2052 76.8271 88.527 71.5514 90.3735 71.3162C91.4294 71.1817 87.9245 63.6975 87.9245 63.6975C87.9245 63.6975 86.3226 59.278 84.149 53.6325C83.5641 52.0251 82.5818 50.5917 81.2935 49.4657C80.0052 48.3398 78.4527 47.5579 76.7807 47.1928C76.7807 47.1928 73.2274 46.8393 70.5338 50.7917Z" fill="#3F3D56"/>
<path d="M70.6655 179.564L74.7368 179.564L76.6735 163.869L70.6646 163.869L70.6655 179.564Z" fill="#A0616A"/>
<path d="M69.6267 178.235L70.7727 178.235L75.2468 176.417L77.6447 178.235H77.6451C79.0002 178.235 80.2998 178.773 81.2581 179.731C82.2163 180.688 82.7547 181.987 82.7548 183.342V183.508L69.6269 183.508L69.6267 178.235Z" fill="#2F2E41"/>
<path d="M89.5802 179.564L93.6515 179.564L95.5886 163.869L89.5796 163.869L89.5802 179.564Z" fill="#A0616A"/>
<path d="M88.5415 178.235L89.6875 178.235L94.1616 176.417L96.5595 178.235H96.5598C97.915 178.235 99.2146 178.773 100.173 179.731C101.131 180.688 101.669 181.987 101.67 183.342V183.508L88.5417 183.508L88.5415 178.235Z" fill="#2F2E41"/>
<path d="M91.3424 93.7609L64.8603 94.4225C59.8308 97.1526 59.7544 103.062 61.4024 110.077C61.4024 110.077 60.846 114.247 61.9587 115.359C63.0713 116.471 63.6276 116.471 63.0713 118.417C62.515 120.363 65.4543 123.541 65.0973 123.898C64.7403 124.255 63.9058 126.201 63.9058 126.201L66.6874 142.047C66.6874 142.047 68.6345 169.568 69.1909 170.124C69.7472 170.68 70.3035 170.124 69.7472 171.514C69.1909 172.904 68.6345 172.348 69.1909 172.904C69.6836 173.435 70.1479 173.992 70.5817 174.572H77.3068C77.3068 174.572 77.8138 171.792 77.8138 171.514C77.8138 171.236 78.3701 169.568 78.3701 169.29C78.3701 169.012 77.8784 168.521 77.8784 168.521C77.7085 167.955 77.5937 167.375 77.5357 166.788C77.5357 166.232 75.8667 144.827 75.8667 144.827L79.2046 117.027L87.2713 144.271C87.2713 144.271 87.2713 168.178 87.8276 168.734C88.3839 169.29 88.3839 169.012 88.1057 170.124C87.8276 171.236 86.7149 170.958 87.5494 171.792C88.3839 172.626 88.6621 171.236 88.3839 172.626L88.1057 174.016L96.4505 174.135C96.4505 174.135 97.5632 171.792 97.0069 170.958C96.4505 170.124 96.4839 170.352 97.1626 168.987C97.8414 167.622 98.1195 167.344 97.8414 167.066C97.5632 166.788 97.5632 165.309 97.5632 165.309L96.1724 138.711C96.1724 138.711 95.8942 110.633 95.8942 109.799C95.8733 109.37 95.9524 108.942 96.1253 108.549V107.417L95.0598 103.406L91.3424 93.7609Z" fill="#2F2E41"/>
<path d="M75.4344 38.7286C79.9787 38.7286 83.6625 35.047 83.6625 30.5054C83.6625 25.9639 79.9787 22.2822 75.4344 22.2822C70.8902 22.2822 67.2063 25.9639 67.2063 30.5054C67.2063 35.047 70.8902 38.7286 75.4344 38.7286Z" fill="#A0616A"/>
<path d="M79.5485 44.1636C81.3211 45.2168 82.3815 47.1519 82.9902 49.1211C84.1172 52.7668 84.7956 56.536 85.0103 60.3457L85.6532 71.7511L93.6159 96.0363C86.7149 101.872 60.7751 97.3626 60.7751 97.3626C60.7751 97.3626 59.9788 97.0974 60.7751 96.3016C61.5713 95.5057 62.3465 96.2108 61.5503 95.415C60.754 94.6192 61.3029 95.5058 61.5683 94.7099C61.8338 93.9142 61.5683 94.4447 61.3029 94.1794C61.0375 93.9141 63.3577 91.5268 63.3577 91.5268L61.2343 77.5868L58.5801 49.4689C61.7652 45.4899 68.1708 43.1443 68.1708 43.1443L69.8259 40.1669L78.1016 40.8285L79.5485 44.1636Z" fill="#3F3D56"/>
<path d="M82.2171 26.1366C82.8566 26.6133 83.3304 27.2784 83.5718 28.0383C83.6645 26.7964 83.6704 25.5496 83.5894 24.3069C83.4924 23.4336 82.8773 23.2372 82.1649 23.0095C81.5217 22.8039 80.7941 22.5716 80.5984 21.7239C78.0119 19.2092 73.5095 19.336 70.4281 20.2132C68.7325 20.6959 67.7569 21.316 67.6696 21.6793L67.6515 21.7541L67.5827 21.7885C66.2757 22.4416 66.0213 24.5039 66.0381 26.119C66.07 29.1618 67.1212 32.6178 67.7134 32.8985C67.7448 32.9134 67.7527 32.9075 67.7663 32.8962C68.658 32.184 69.746 32.9504 70.2241 33.367C70.5061 31.4758 71.4141 29.7336 72.8031 28.4186C74.192 27.1037 75.9818 26.2918 77.8867 26.1127C78.5087 26.0526 79.1258 25.9492 79.7335 25.8032C80.0417 25.7235 80.3586 25.6819 80.6769 25.6795C81.225 25.6711 81.7625 25.8307 82.2171 26.1366Z" fill="#2F2E41"/>
<path d="M133.296 100.313L149.124 84.25L153.294 71.4028L146.584 68.6901C143.259 72.0413 139.837 82.3003 139.837 82.3003L129.034 96.7907C128.948 96.8228 128.862 96.8567 128.777 96.8967C128.28 97.1314 127.851 97.4903 127.533 97.9389C127.215 98.3874 127.019 98.9103 126.962 99.4571C126.905 100.004 126.991 100.556 127.21 101.06C127.429 101.564 127.775 102.003 128.213 102.335C128.652 102.667 129.169 102.88 129.714 102.953C130.259 103.027 130.814 102.959 131.325 102.756C131.836 102.552 132.286 102.221 132.631 101.793C132.976 101.365 133.206 100.855 133.296 100.313Z" fill="#FFB8B8"/>
<path d="M144.753 70.1597L153.24 72.6132L153.271 72.6071C156.391 72.0018 158.858 66.8208 160.379 62.5812C160.879 61.1828 160.83 59.6467 160.24 58.2835C159.65 56.9203 158.565 55.8317 157.203 55.2377C156.195 54.8064 155.087 54.6653 154.003 54.8304C152.92 54.9956 151.904 55.4603 151.071 56.1723L146.839 59.8136L144.753 70.1597Z" fill="#0059FC"/>
<path d="M137.492 179.087L132.928 179.086L130.757 161.493L137.493 161.493L137.492 179.087Z" fill="#FFB8B8"/>
<path d="M138.656 177.597L137.372 177.597L132.356 175.559L129.668 177.597H129.668C128.149 177.597 126.692 178.2 125.618 179.274C124.544 180.347 123.94 181.803 123.94 183.321V183.507L138.656 183.508L138.656 177.597Z" fill="#2F2E41"/>
<path d="M157.743 179.087L153.179 179.086L151.008 161.493L157.744 161.493L157.743 179.087Z" fill="#FFB8B8"/>
<path d="M158.908 177.597L157.623 177.597L152.608 175.559L149.92 177.597H149.919C148.4 177.597 146.943 178.2 145.869 179.274C144.795 180.347 144.192 181.803 144.191 183.321V183.507L158.908 183.508L158.908 177.597Z" fill="#2F2E41"/>
<path d="M164.703 103.305C164.703 103.305 165.236 109.696 163.903 115.822C162.571 121.947 162.571 139.197 162.571 139.197L159.64 172.811L150.847 172.012L148.448 115.822L139.922 134.729L140.721 137.392L139.656 138.058C139.656 138.058 140.454 143.251 139.922 143.251C139.389 143.251 138.056 144.05 138.056 144.05L139.122 171.479L130.062 171.213L126.865 132.599L130.329 110.495L130.595 106.235L131.794 106.284L132.405 104.504L133.526 101.441L164.703 103.305Z" fill="#2F2E41"/>
<path d="M165.163 104.648L165.211 104.581C167.747 101.032 163.933 92.5045 163.357 91.2683L165.78 90.4824L165.235 85.8466L164.976 83.7799L166.828 81.9289L166.834 81.8828L167.899 72.5621L169.449 66.3714C170.033 64.0311 169.983 61.5776 169.305 59.2629C168.627 56.9482 167.344 54.8555 165.589 53.1998L162.007 49.8243L157.654 43.3866H150.633L148.226 47.9307C145.892 48.4697 143.822 49.81 142.375 51.7179C140.928 53.6258 140.197 55.9804 140.309 58.3717L140.854 70.2895L138.719 85.1282L138.717 87.8136L136.314 90.4832L136.839 93.1058L135.009 93.8892L134.202 97.656C133.867 98.0968 131.661 101.037 131.661 101.841C131.661 101.961 131.75 102.078 131.942 102.207C133.445 103.225 141.755 105.299 145.434 103.828C149.351 102.263 164.926 104.611 165.082 104.635L165.163 104.648Z" fill="#0059FC"/>
<path d="M153.236 41.3084C158.371 41.3084 162.534 37.1482 162.534 32.0163C162.534 26.8844 158.371 22.7241 153.236 22.7241C148.101 22.7241 143.939 26.8844 143.939 32.0163C143.939 37.1482 148.101 41.3084 153.236 41.3084Z" fill="#FFB8B8"/>
<path d="M152.346 41.4588C153.786 41.4441 155.222 41.3065 156.638 41.0475C158.041 40.7247 161.135 38.3337 161.978 36.9211C162.604 35.8716 162.98 34.2483 163.186 33.0714C163.463 31.5138 163.409 29.9155 163.029 28.3798C162.648 26.8442 161.95 25.4055 160.978 24.157C160.603 23.6339 160.094 23.2218 159.504 22.9642C159.452 22.9453 159.398 22.9288 159.344 22.9149C158.489 22.7135 157.714 22.2613 157.118 21.6164C157.002 21.4858 156.877 21.3637 156.744 21.2511C156.075 20.7161 155.289 20.3469 154.451 20.1736C153.096 19.8483 151.158 20.2559 148.69 21.3858C147.45 21.9536 146.074 21.7952 145.014 21.5938C144.954 21.5839 144.893 21.5897 144.837 21.6107C144.78 21.6317 144.73 21.6671 144.692 21.7134C144.254 22.146 143.669 22.3969 143.053 22.4157C142.677 22.442 142.295 22.9738 141.834 23.6663C141.73 23.8235 141.608 24.007 141.519 24.119L141.502 23.9087L141.295 24.1491C140.969 24.527 140.744 24.9811 140.642 25.4691C140.539 25.9571 140.561 26.4631 140.707 26.9401C140.852 27.4171 141.117 27.8495 141.474 28.197C141.832 28.5446 142.272 28.796 142.753 28.9278C143.135 29.0188 143.525 29.0707 143.918 29.0825C144.156 29.0977 144.402 29.1135 144.638 29.1482C145.397 29.2832 146.108 29.6126 146.701 30.1042C147.295 30.5958 147.751 31.2329 148.024 31.9531C148.089 32.1196 148.191 32.2689 148.323 32.3897C148.454 32.5105 148.612 32.5995 148.783 32.6497C148.955 32.7 149.135 32.7102 149.311 32.6796C149.487 32.649 149.654 32.5784 149.798 32.4732C150.038 32.2762 150.322 32.1402 150.627 32.0767C150.931 32.0132 151.246 32.0242 151.545 32.1086C151.805 32.2445 152.01 32.4655 152.126 32.7346C152.267 33.0342 152.494 33.2851 152.777 33.4554C153.745 33.923 153.868 36.1019 153.571 37.9286C153.286 39.6894 152.665 40.9738 152.061 41.0521C151.597 41.1123 151.544 41.1468 151.512 41.23L151.484 41.3045L151.538 41.3721C151.798 41.4587 152.074 41.4883 152.346 41.4588Z" fill="#2F2E41"/>
<path d="M144.632 71.1535L140.163 65.4624C135.61 66.7152 127.533 73.9107 127.533 73.9107L110.944 81.1052C110.391 81.0122 109.822 81.0666 109.296 81.263C108.77 81.4593 108.305 81.7907 107.948 82.2237C107.591 82.6567 107.355 83.1761 107.262 83.7295C107.17 84.283 107.225 84.851 107.422 85.3763C107.619 85.9017 107.951 86.3659 108.385 86.7223C108.819 87.0786 109.339 87.3144 109.893 87.4061C110.446 87.4977 111.015 87.442 111.54 87.2443C112.066 87.0467 112.53 86.7143 112.886 86.2804L134.616 80.2216L144.632 71.1535Z" fill="#FFB8B8"/>
<path d="M143.561 72.4545L150.612 64.5983L151.004 59.0316C151.077 57.9385 150.842 56.8468 150.327 55.8798C149.812 54.9129 149.036 54.1093 148.088 53.5599C146.797 52.8237 145.275 52.6048 143.829 52.9473C142.383 53.2899 141.121 54.1684 140.299 55.4052C137.807 59.1582 135.126 64.2324 136.506 67.0933L136.52 67.1223L143.561 72.4545Z" fill="#0059FC"/>
<path d="M78.5657 101.984L60.2379 92.6026C58.9342 91.9354 58.5024 90.1655 59.2753 88.6573L71.2254 65.338C71.9983 63.8298 73.6876 63.1457 74.9913 63.8129L93.3191 73.1938C94.6228 73.8611 95.0546 75.6309 94.2817 77.1391L82.3316 100.458C81.5587 101.967 79.8693 102.651 78.5657 101.984Z" fill="#E6E6E6"/>
<path d="M75.4343 97.6711L62.9821 91.2976C61.7612 90.6727 61.3567 89.0151 62.0805 87.6026L72.0084 68.2293C72.7323 66.8168 74.3145 66.1762 75.5355 66.8011L90.5751 74.499C91.7961 75.1239 92.2005 76.7814 91.4766 78.1939L86.0832 88.7185C82.8591 95.0102 80.8728 100.455 75.4343 97.6711Z" fill="white"/>
<path d="M81.591 87.0914L70.5617 81.4462C70.4269 81.3501 70.3311 81.2088 70.2919 81.048C70.2526 80.8873 70.2726 80.7177 70.3481 80.5704C70.4235 80.4232 70.5495 80.3079 70.703 80.2458C70.8565 80.1836 71.0272 80.1787 71.1839 80.232L82.2132 85.8772C82.348 85.9732 82.4438 86.1145 82.4831 86.2753C82.5223 86.4361 82.5023 86.6056 82.4269 86.7529C82.3514 86.9002 82.2254 87.0154 82.0719 87.0776C81.9185 87.1397 81.7477 87.1446 81.591 87.0914Z" fill="#0059FC"/>
<path d="M71.8492 85.1334L69.3322 83.8451C69.1974 83.7491 69.1016 83.6078 69.0624 83.447C69.0231 83.2862 69.0431 83.1167 69.1186 82.9694C69.1941 82.8221 69.32 82.7069 69.4735 82.6447C69.627 82.5826 69.7977 82.5776 69.9545 82.6309L72.4715 83.9192C72.6063 84.0152 72.7021 84.1565 72.7413 84.3173C72.7806 84.4781 72.7606 84.6476 72.6851 84.7949C72.6096 84.9422 72.4837 85.0575 72.3302 85.1196C72.1767 85.1818 72.006 85.1867 71.8492 85.1334Z" fill="#0059FC"/>
<path d="M75.0778 89.8141L68.103 86.2441C67.9681 86.148 67.8723 86.0067 67.8331 85.8459C67.7939 85.6851 67.8138 85.5156 67.8893 85.3683C67.9648 85.221 68.0908 85.1058 68.2443 85.0436C68.3977 84.9815 68.5684 84.9766 68.7252 85.0298L75.7001 88.5998C75.8349 88.6959 75.9307 88.8372 75.97 88.998C76.0092 89.1587 75.9892 89.3283 75.9138 89.4756C75.8383 89.6229 75.7123 89.7381 75.5588 89.8003C75.4054 89.8624 75.2346 89.8673 75.0778 89.8141Z" fill="#0059FC"/>
<path d="M85.9555 78.5744L74.9262 72.9292C74.7914 72.8332 74.6956 72.6918 74.6564 72.5311C74.6171 72.3703 74.6371 72.2008 74.7126 72.0535C74.788 71.9062 74.914 71.7909 75.0675 71.7288C75.221 71.6667 75.3917 71.6618 75.5485 71.715L86.5777 77.3602C86.7125 77.4562 86.8083 77.5975 86.8476 77.7583C86.8868 77.9191 86.8668 78.0886 86.7914 78.2359C86.7159 78.3832 86.5899 78.4984 86.4364 78.5606C86.283 78.6227 86.1122 78.6276 85.9555 78.5744Z" fill="#0059FC"/>
<path d="M76.214 76.6165L73.697 75.3282C73.5621 75.2321 73.4663 75.0908 73.4271 74.93C73.3879 74.7692 73.4078 74.5997 73.4833 74.4524C73.5588 74.3051 73.6848 74.1899 73.8383 74.1277C73.9917 74.0656 74.1624 74.0607 74.3192 74.1139L76.8362 75.4022C76.9711 75.4982 77.0669 75.6396 77.1061 75.8003C77.1453 75.9611 77.1254 76.1306 77.0499 76.2779C76.9744 76.4252 76.8484 76.5405 76.6949 76.6026C76.5415 76.6648 76.3708 76.6697 76.214 76.6165Z" fill="#0059FC"/>
<path d="M79.4423 81.2971L72.4675 77.7271C72.3326 77.631 72.2368 77.4897 72.1976 77.3289C72.1584 77.1682 72.1783 76.9986 72.2538 76.8513C72.3293 76.7041 72.4553 76.5888 72.6088 76.5267C72.7622 76.4645 72.9329 76.4596 73.0897 76.5128L80.0646 80.0829C80.1995 80.1789 80.2952 80.3202 80.3345 80.481C80.3737 80.6418 80.3537 80.8113 80.2783 80.9586C80.2028 81.1059 80.0768 81.2211 79.9233 81.2833C79.7699 81.3454 79.5991 81.3503 79.4423 81.2971Z" fill="#0059FC"/>
<path d="M63.3783 81.6818L59.2378 66.2767L70.3023 64.1835L69.7073 74.7574L84.2451 89.7177C85.0148 89.6862 85.777 89.8793 86.4387 90.2732C87.1005 90.6672 87.6333 91.2451 87.9721 91.9365C88.3109 92.6278 88.4411 93.4028 88.3468 94.1668C88.2526 94.9308 87.9379 95.651 87.4412 96.2394C86.9445 96.8278 86.2872 97.259 85.5495 97.4805C84.8118 97.7021 84.0256 97.7043 83.2866 97.4869C82.5477 97.2696 81.888 96.8421 81.3879 96.2565C80.8879 95.6709 80.5692 94.9526 80.4706 94.1891L63.3783 81.6818Z" fill="#A0616A"/>
<path d="M58.1056 49.0043C54.3499 51.9675 59.1703 68.5421 59.1703 68.5421C59.9167 67.7236 60.7839 79.8214 61.6962 79.4095C64.2889 78.2387 69.0409 74.2015 70.8729 74.5306C71.9206 74.7188 70.8229 66.5285 70.8229 66.5285C70.8229 66.5285 70.621 61.8323 70.2416 55.7953C70.166 54.0865 69.659 52.4247 68.7679 50.9644C67.8768 49.5041 66.6305 48.2929 65.145 47.4435C65.145 47.4435 61.8613 46.0412 58.1056 49.0043Z" fill="#3F3D56"/>
<path d="M120.597 115.875L110.595 111.155C110.382 111.054 110.193 110.907 110.044 110.723C109.896 110.54 109.791 110.325 109.737 110.095C109.682 109.87 109.68 109.636 109.729 109.41C109.779 109.184 109.879 108.972 110.022 108.79C112.919 105.09 114.908 100.762 115.83 96.1549C115.9 95.8021 116.09 95.4844 116.368 95.2559C116.645 95.0274 116.994 94.9023 117.354 94.9019C122.455 94.9192 126.267 96.7806 128.684 100.434C128.812 100.624 128.896 100.839 128.932 101.065C128.967 101.291 128.953 101.522 128.89 101.742C127.49 106.564 125.36 111.143 122.574 115.32C122.368 115.636 122.053 115.866 121.69 115.968C121.326 116.07 120.938 116.037 120.597 115.875Z" fill="#E6E6E6"/>
<path d="M123.539 109.255L115.892 105.646C115.702 105.556 115.555 105.394 115.484 105.196C115.413 104.999 115.423 104.781 115.513 104.59C115.603 104.4 115.765 104.254 115.963 104.183C116.161 104.112 116.379 104.122 116.569 104.212L124.216 107.821C124.311 107.865 124.395 107.928 124.465 108.005C124.535 108.082 124.589 108.172 124.624 108.27C124.66 108.368 124.675 108.472 124.67 108.576C124.665 108.68 124.64 108.782 124.595 108.876C124.551 108.971 124.488 109.055 124.411 109.125C124.334 109.195 124.244 109.249 124.145 109.284C124.047 109.319 123.943 109.335 123.839 109.33C123.735 109.325 123.633 109.299 123.539 109.255Z" fill="white"/>
<path d="M124.727 106.74L117.08 103.132C116.89 103.042 116.743 102.88 116.672 102.682C116.601 102.484 116.611 102.266 116.701 102.076C116.791 101.886 116.953 101.739 117.151 101.668C117.349 101.597 117.567 101.608 117.757 101.698L125.404 105.307C125.595 105.396 125.741 105.558 125.812 105.756C125.883 105.954 125.873 106.172 125.783 106.362C125.693 106.552 125.532 106.699 125.333 106.77C125.135 106.841 124.917 106.83 124.727 106.74Z" fill="white"/>
<path d="M114.509 27.8141L113.797 27.8921C110.623 15.4273 104.471 6.79179 96.0056 2.91903C85.2437 -2.00394 71.9363 1.30192 58.5345 12.2278C45.0647 23.2094 33.1403 40.5556 24.9583 61.0719L24.2676 60.756C32.4855 40.1501 44.4711 22.7201 58.0165 11.6774C71.6297 0.578908 85.2088 -2.7512 96.2521 2.30067C104.96 6.2844 111.273 15.1069 114.509 27.8141Z" fill="#F2F2F2"/>
<path d="M35.9743 44.048C34.1127 47.9672 32.3421 52.0276 30.7115 56.1162C21.3282 79.6444 16.5731 103.673 16.9617 125.605L16.2283 125.527C15.8394 103.513 20.6081 79.4018 30.0208 55.8002C31.6561 51.7001 33.4318 47.6283 35.2987 43.698L35.9743 44.048Z" fill="#F2F2F2"/>
<path d="M35.6222 60.2145C33.7607 64.1337 31.99 68.1941 30.3594 72.2827C20.9761 95.8109 16.2211 119.839 16.6096 141.772L15.8763 141.694C15.4873 119.68 20.2561 95.5683 29.6687 71.9668C31.304 67.8666 33.0797 63.7948 34.9466 59.8645L35.6222 60.2145Z" fill="#F2F2F2"/>
<path d="M15.9116 66.0941C16.7223 64.8763 16.2424 63.1331 14.8399 62.2005C13.4373 61.2679 11.6431 61.4991 10.8324 62.7169C10.0217 63.9347 10.5015 65.6779 11.9041 66.6105C13.3067 67.5431 15.1009 67.3119 15.9116 66.0941Z" fill="#CCCCCC"/>
<path d="M188.537 110.072C189.348 108.854 188.868 107.111 187.465 106.178C186.063 105.246 184.269 105.477 183.458 106.695C182.647 107.912 183.127 109.656 184.53 110.588C185.932 111.521 187.726 111.29 188.537 110.072Z" fill="#CCCCCC"/>
</g>
<defs>
<clipPath id="clip0_21_6560">
<rect width="227" height="184" fill="white"/>
</clipPath>
</defs>
</svg>
