<svg width="500" height="500" viewBox="0 0 500 500" fill="none" xmlns="http://www.w3.org/2000/svg">
<rect width="500" height="500" fill="white"/>
<path d="M153.791 114.841C155.02 110.552 158.942 107.596 163.404 107.596H486.424C493.071 107.596 497.868 113.962 496.036 120.352L403.206 444.178C401.977 448.466 398.055 451.422 393.594 451.422H70.5737C63.9262 451.422 59.129 445.056 60.9608 438.666L153.791 114.841Z" fill="#0F6FEC"/>
<path d="M96.4866 55.2443C97.7161 50.9555 101.638 48 106.099 48H429.119C435.767 48 440.564 54.3656 438.732 60.7557L345.902 384.581C344.673 388.87 340.751 391.826 336.289 391.826H13.2695C6.62201 391.826 1.82481 385.46 3.65663 379.07L96.4866 55.2443Z" fill="#5E17EB" fill-opacity="0.8"/>
</svg>
